<svg id="Layer_1" data-name="Layer 1" xmlns="http://www.w3.org/2000/svg" viewBox="0 0 800 576"><title>SNAS_logo_BW</title><path d="M304,255.47v2h-4v-2c0-17.22-17.82-30.69-39.39-30.69s-39.4,13.46-39.4,30.69c0,30.49,87.11,30.49,86.9,65.33,0,18.41-21.18,34.65-47.5,34.65-26.93,0-47.52-16-47.52-34.65v-2h4v2c0,17,19.79,30.68,43.55,30.68,23.16,0,43.55-13.85,43.55-30.68,0-31.08-86.7-30.68-86.9-65.33,0-18.81,19-34.64,43.36-34.64S304,236.66,304,255.47Z"/><path d="M260.68,359.83c-28.62,0-51.9-17.51-51.9-39v-6.36h12.73v6.36c0,14.26,17.94,26.3,39.17,26.3,20.86,0,39.16-12.29,39.16-26.3,0-12.08-19.72-19.45-38.8-26.57-23.59-8.81-48-17.92-48.11-38.73,0-21.55,21.41-39.05,47.74-39.05s47.73,17.51,47.73,39v6.36H295.69v-6.36c0-14.5-15.71-26.3-35-26.3s-35,11.8-35,26.3c0,11.69,19.56,19,38.47,26.1,23.87,8.94,48.56,18.19,48.43,39.26S288.81,359.83,260.68,359.83Z"/><path d="M122.85,291.34a4,4,0,0,1-4-4c0-78,63.47-141.49,141.49-141.49a4,4,0,0,1,0,8.09c-73.55,0-133.4,59.84-133.4,133.4A4,4,0,0,1,122.85,291.34Z"/><path d="M49,291.34a4,4,0,0,1-4-4C45,168.58,141.58,72,260.3,72a4,4,0,0,1,0,8.09c-114.25,0-207.2,93-207.2,207.2A4,4,0,0,1,49,291.34Z"/><path d="M260.79,430.65a4,4,0,1,1,0-8.09,133.89,133.89,0,0,0,97.68-42.5,4,4,0,1,1,5.92,5.52A142,142,0,0,1,260.79,430.65Z"/><path d="M260.79,504.45a4,4,0,1,1,0-8.09c79.42,0,150.63-44.21,185.83-115.36a4,4,0,1,1,7.26,3.58C417.3,458.53,343.31,504.45,260.79,504.45Z"/><path d="M747.38,255.47v2h-4v-2c0-17.22-17.82-30.69-39.4-30.69s-39.39,13.46-39.39,30.69c0,30.49,87.11,30.49,86.91,65.33,0,18.41-21.18,34.65-47.52,34.65-26.92,0-47.5-16-47.5-34.65v-2h4v2c0,17,19.79,30.68,43.55,30.68,23.17,0,43.55-13.85,43.55-30.68,0-31.08-86.7-30.68-86.9-65.33,0-18.81,19-34.64,43.35-34.64S747.38,236.66,747.38,255.47Z"/><path d="M704,359.83c-28.61,0-51.89-17.51-51.89-39v-6.36h12.73v6.36c0,14.26,17.93,26.3,39.16,26.3,20.87,0,39.17-12.29,39.17-26.3,0-12.08-19.72-19.45-38.79-26.57-23.59-8.81-48-17.92-48.11-38.73,0-21.55,21.41-39.05,47.73-39.05s47.74,17.51,47.74,39v6.36H739v-6.36c0-14.5-15.71-26.3-35-26.3s-35,11.8-35,26.3c0,11.69,19.56,19,38.47,26.1,23.87,8.94,48.56,18.19,48.44,39.26S732.15,359.83,704,359.83Z"/><path d="M365.84,353.46v2h-4V222.8a2,2,0,0,1,3.56-1.19l91.26,125.71.2-124.52v-2h4v2l-.2,130.66a2,2,0,0,1-3.56,1.19l-91.26-125.7Z"/><path d="M365.84,359.83h-4a4.38,4.38,0,0,1-4.38-4.39V222.8A6.41,6.41,0,0,1,369,219.07l83.33,114.79.17-113a4.38,4.38,0,0,1,4.39-4.38h4a4.38,4.38,0,0,1,4.39,4.38L465,353.47a6.41,6.41,0,0,1-11.51,3.73L370.23,242.44v113A4.38,4.38,0,0,1,365.84,359.83ZM460.63,352l0,0ZM361.9,224.19l0,0Z"/><path d="M521.49,354.06l-.32,1.19h-3.46l.94-2.77,45.59-130.65a1.48,1.48,0,0,1,2.83,0l45.59,130.65.94,2.77h-3.46l-.32-1.19-44.18-126.5Z"/><path d="M613.62,360h-3.46a4.73,4.73,0,0,1-4.56-3.5l-.32-1.19-39.62-113.4L525.74,356.46a4.73,4.73,0,0,1-4.56,3.5h-3.46a4.73,4.73,0,0,1-4.47-6.24l.94-2.77L559.8,220.27a6.2,6.2,0,0,1,11.75,0l46.54,133.43a4.73,4.73,0,0,1-4.47,6.24Zm-51-136.59v0Zm6.09,0v0Z"/></svg>