<?xml version="1.0" encoding="utf-8"?>
<!-- Generator: Adobe Illustrator 20.1.0, SVG Export Plug-In . SVG Version: 6.00 Build 0)  -->
<svg version="1.1" id="Layer_1" xmlns="http://www.w3.org/2000/svg" xmlns:xlink="http://www.w3.org/1999/xlink" x="0px" y="0px"
	 viewBox="0 0 32 32" style="enable-background:new 0 0 32 32;" xml:space="preserve">
<style type="text/css">
	.st0{fill:#FF4401;}
</style>
<g>
	<path class="st0" d="M25.3,8.9v0.4h-0.9V8.9c0-3.7-3.9-6.6-8.5-6.6S7.6,5.2,7.6,8.9c0,6.6,18.7,6.6,18.7,14c0,4-4.5,7.4-10.2,7.4
		S5.8,26.9,5.8,23v-0.5h0.9v0.4c0,3.7,4.2,6.6,9.4,6.6s9.4-3,9.4-6.6c0-6.7-18.6-6.6-18.7-14c0-4.1,4.1-7.4,9.3-7.4
		S25.3,4.8,25.3,8.9z"/>
	<path class="st0" d="M16,30.8c-5.9,0-10.7-3.5-10.7-7.8v-1h1.8v0.9c0,3.4,4,6.1,8.9,6.1c4.8,0,8.9-2.8,8.9-6.1
		c0-2.9-4.2-4.5-8.6-6.1c-4.9-1.8-10-3.7-10.1-7.9c0-4.4,4.4-7.9,9.7-7.9c5.4,0,9.8,3.5,9.8,7.9v0.9h-1.8V8.9c0-3.4-3.6-6.1-8-6.1
		C11.6,2.8,8,5.5,8,8.9c0,2.8,4.2,4.4,8.6,6.1c5,1.9,10.1,3.8,10.1,7.9C26.7,27.1,21.8,30.8,16,30.8z"/>
</g>
<g>
	<path class="st0" d="M16,31.3c-6.2,0-11.2-3.8-11.2-8.4v-1.4h2.7V23c0,3,3.9,5.7,8.4,5.7s8.4-2.6,8.4-5.7s-4.2-4.1-8.3-5.7
		c-5.1-2-10.3-3.9-10.3-8.3s4.6-8.4,10.2-8.4S26.3,4.3,26.3,9v1.4h-2.7V9c0-3.1-3.4-5.7-7.5-5.7S8.5,5.8,8.5,9
		c0,2.5,4.2,4.1,8.3,5.6c5.1,1.9,10.4,4,10.4,8.4S22,31.3,16,31.3z"/>
	<path class="st0" d="M16,31.8c-6.4,0-11.7-4-11.7-8.9v-1.8H8V23c0,2.8,3.7,5.2,7.9,5.2c4.3,0,7.9-2.4,7.9-5.2
		c0-2.3-2.9-3.4-6.3-4.6c-0.5-0.2-1.1-0.4-1.6-0.6h-0.1c-5.2-1.9-10.5-4-10.5-8.7c0-4.8,4.9-8.9,10.7-8.9c6,0,10.8,4,10.8,8.9v1.8
		h-3.7V9c0-2.8-3.2-5.2-7-5.2c-3.9,0-7,2.3-7,5.2c0,2.1,3.9,3.6,7.6,5l0.3,0.1c5,1.9,10.7,4,10.7,8.8C27.7,27.7,22.3,31.8,16,31.8z
		 M5.3,22.1V23c0,4.4,4.8,7.9,10.7,7.9c5.7,0,10.7-3.7,10.7-7.9c0-4.1-5.1-6.1-10.1-7.9L16.3,15C12.2,13.3,8,11.7,8,9
		c0-3.5,3.5-6.2,8-6.2c4.4,0,8,2.8,8,6.2v0.9h1.7V9c0-4.3-4.5-7.9-9.8-7.9c-5.2,0-9.7,3.7-9.7,7.9c0,4.1,5,6,9.9,7.8h0.1
		c0.5,0.2,1.1,0.4,1.6,0.6c3.6,1.3,7,2.5,7,5.5c0,3.3-4.1,6.2-8.9,6.2c-4.7,0-8.9-2.9-8.9-6.2V22H5.3V22.1z"/>
</g>
</svg>
