<?xml version="1.0" encoding="UTF-8" standalone="no"?>
<svg
   xmlns:dc="http://purl.org/dc/elements/1.1/"
   xmlns:cc="http://creativecommons.org/ns#"
   xmlns:rdf="http://www.w3.org/1999/02/22-rdf-syntax-ns#"
   xmlns:svg="http://www.w3.org/2000/svg"
   xmlns="http://www.w3.org/2000/svg"
   viewBox="0 0 1200 675"
   height="675"
   width="1200"
   xml:space="preserve"
   version="1.1"
   id="svg2"><metadata
     id="metadata8"><rdf:RDF><cc:Work
         rdf:about=""><dc:format>image/svg+xml</dc:format><dc:type
           rdf:resource="http://purl.org/dc/dcmitype/StillImage" /></cc:Work></rdf:RDF></metadata><defs
     id="defs6"><clipPath
       id="clipPath16"
       clipPathUnits="userSpaceOnUse"><path
         style="clip-rule:evenodd"
         id="path18"
         d="m 0,1.2207e-4 960,0 0,539.99999793 -960,0 L 0,1.2207e-4 Z" /></clipPath><clipPath
       id="clipPath28"
       clipPathUnits="userSpaceOnUse"><path
         style="clip-rule:evenodd"
         id="path30"
         d="M 1.4305e-5,0 960.00001,0 l 0,540 -959.999995695,0 0,-540 z" /></clipPath><clipPath
       id="clipPath42"
       clipPathUnits="userSpaceOnUse"><path
         style="clip-rule:evenodd"
         id="path44"
         d="M 1.4305e-5,0 960.00001,0 l 0,540 -959.999995695,0 0,-540 z" /></clipPath><clipPath
       id="clipPath56"
       clipPathUnits="userSpaceOnUse"><path
         style="clip-rule:evenodd"
         id="path58"
         d="M 1.4305e-5,0 960.00001,0 l 0,540 -959.999995695,0 0,-540 z" /></clipPath><clipPath
       id="clipPath70"
       clipPathUnits="userSpaceOnUse"><path
         style="clip-rule:evenodd"
         id="path72"
         d="M 1.4305e-5,0 960.00001,0 l 0,540 -959.999995695,0 0,-540 z" /></clipPath><clipPath
       id="clipPath84"
       clipPathUnits="userSpaceOnUse"><path
         style="clip-rule:evenodd"
         id="path86"
         d="M 1.4305e-5,0 960.00001,0 l 0,540 -959.999995695,0 0,-540 z" /></clipPath><linearGradient
       id="linearGradient94"
       spreadMethod="pad"
       gradientUnits="userSpaceOnUse"
       y2="237.60001"
       x2="310.92001"
       y1="301.67999"
       x1="310.92001"><stop
         id="stop96"
         offset="0"
         style="stop-opacity:1;stop-color:#797979" /><stop
         id="stop98"
         offset="0.25"
         style="stop-opacity:1;stop-color:#8e8e8e" /><stop
         id="stop100"
         offset="0.5"
         style="stop-opacity:1;stop-color:#9b9b9b" /><stop
         id="stop102"
         offset="0.75"
         style="stop-opacity:1;stop-color:#8e8e8e" /><stop
         id="stop104"
         offset="1"
         style="stop-opacity:1;stop-color:#797979" /></linearGradient><clipPath
       id="clipPath112"
       clipPathUnits="userSpaceOnUse"><path
         style="clip-rule:evenodd"
         id="path114"
         d="M 1.4305e-5,0 960.00001,0 l 0,540 -959.999995695,0 0,-540 z" /></clipPath><clipPath
       id="clipPath124"
       clipPathUnits="userSpaceOnUse"><path
         style="clip-rule:evenodd"
         id="path126"
         d="M 1.4305e-5,0 960.00001,0 l 0,540 -959.999995695,0 0,-540 z" /></clipPath><linearGradient
       id="linearGradient134"
       spreadMethod="pad"
       gradientUnits="userSpaceOnUse"
       y2="237.60001"
       x2="398.28"
       y1="301.67999"
       x1="398.28"><stop
         id="stop136"
         offset="0"
         style="stop-opacity:1;stop-color:#797979" /><stop
         id="stop138"
         offset="0.25"
         style="stop-opacity:1;stop-color:#8e8e8e" /><stop
         id="stop140"
         offset="0.5"
         style="stop-opacity:1;stop-color:#9b9b9b" /><stop
         id="stop142"
         offset="0.75"
         style="stop-opacity:1;stop-color:#8e8e8e" /><stop
         id="stop144"
         offset="1"
         style="stop-opacity:1;stop-color:#797979" /></linearGradient><clipPath
       id="clipPath152"
       clipPathUnits="userSpaceOnUse"><path
         style="clip-rule:evenodd"
         id="path154"
         d="M 1.4305e-5,0 960.00001,0 l 0,540 -959.999995695,0 0,-540 z" /></clipPath><clipPath
       id="clipPath164"
       clipPathUnits="userSpaceOnUse"><path
         style="clip-rule:evenodd"
         id="path166"
         d="M 1.4305e-5,0 960.00001,0 l 0,540 -959.999995695,0 0,-540 z" /></clipPath><clipPath
       id="clipPath178"
       clipPathUnits="userSpaceOnUse"><path
         style="clip-rule:evenodd"
         id="path180"
         d="M 1.4305e-5,0 960.00001,0 l 0,540 -959.999995695,0 0,-540 z" /></clipPath><clipPath
       id="clipPath192"
       clipPathUnits="userSpaceOnUse"><path
         style="clip-rule:evenodd"
         id="path194"
         d="M 1.4305e-5,0 960.00001,0 l 0,540 -959.999995695,0 0,-540 z" /></clipPath><clipPath
       id="clipPath206"
       clipPathUnits="userSpaceOnUse"><path
         style="clip-rule:evenodd"
         id="path208"
         d="M 1.4305e-5,0 960.00001,0 l 0,540 -959.999995695,0 0,-540 z" /></clipPath><clipPath
       id="clipPath218"
       clipPathUnits="userSpaceOnUse"><path
         style="clip-rule:evenodd"
         id="path220"
         d="M 1.4305e-5,0 960.00001,0 l 0,540 -959.999995695,0 0,-540 z" /></clipPath><clipPath
       id="clipPath232"
       clipPathUnits="userSpaceOnUse"><path
         style="clip-rule:evenodd"
         id="path234"
         d="M 1.4305e-5,0 960.00001,0 l 0,540 -959.999995695,0 0,-540 z" /></clipPath><clipPath
       id="clipPath244"
       clipPathUnits="userSpaceOnUse"><path
         style="clip-rule:evenodd"
         id="path246"
         d="M 6.1035e-5,540 960,540 960,1.2207e-4 l -959.999908447,0" /></clipPath><clipPath
       id="clipPath256"
       clipPathUnits="userSpaceOnUse"><path
         style="clip-rule:evenodd"
         id="path258"
         d="M 1.4305e-5,0 960.00001,0 l 0,540 -959.999995695,0 0,-540 z" /></clipPath><clipPath
       id="clipPath268"
       clipPathUnits="userSpaceOnUse"><path
         style="clip-rule:evenodd"
         id="path270"
         d="M -6.1035e-5,540 960,540 960,0 0,6.1035e-5" /></clipPath><clipPath
       id="clipPath280"
       clipPathUnits="userSpaceOnUse"><path
         style="clip-rule:evenodd"
         id="path282"
         d="M 1.4305e-5,0 960.00001,0 l 0,540 -959.999995695,0 0,-540 z" /></clipPath><clipPath
       id="clipPath294"
       clipPathUnits="userSpaceOnUse"><path
         style="clip-rule:evenodd"
         id="path296"
         d="M 1.4305e-5,0 960.00001,0 l 0,540 -959.999995695,0 0,-540 z" /></clipPath><clipPath
       id="clipPath306"
       clipPathUnits="userSpaceOnUse"><path
         style="clip-rule:evenodd"
         id="path308"
         d="M -6.1035e-5,540 960,540 960,6.1035e-5 l -960.000061035,0" /></clipPath><clipPath
       id="clipPath318"
       clipPathUnits="userSpaceOnUse"><path
         style="clip-rule:evenodd"
         id="path320"
         d="M 1.4305e-5,0 960.00001,0 l 0,540 -959.999995695,0 0,-540 z" /></clipPath><clipPath
       id="clipPath332"
       clipPathUnits="userSpaceOnUse"><path
         style="clip-rule:evenodd"
         id="path334"
         d="M 1.4305e-5,0 960.00001,0 l 0,540 -959.999995695,0 0,-540 z" /></clipPath><clipPath
       id="clipPath344"
       clipPathUnits="userSpaceOnUse"><path
         style="clip-rule:evenodd"
         id="path346"
         d="M 1.4305e-5,0 960.00001,0 l 0,540 -959.999995695,0 0,-540 z" /></clipPath><clipPath
       id="clipPath360"
       clipPathUnits="userSpaceOnUse"><path
         style="clip-rule:evenodd"
         id="path362"
         d="M 1.4305e-5,0 960.00001,0 l 0,540 -959.999995695,0 0,-540 z" /></clipPath><clipPath
       id="clipPath372"
       clipPathUnits="userSpaceOnUse"><path
         style="clip-rule:evenodd"
         id="path374"
         d="M -1.2207e-4,540 960,540 960,6.1035e-5 l -960.00012207,0" /></clipPath></defs><g
     transform="matrix(1.25,0,0,-1.25,0,675)"
     id="g10"><g
       id="g12"><g
         clip-path="url(#clipPath16)"
         id="g14"><path
           id="path20"
           style="fill:#ffffff;fill-opacity:1;fill-rule:evenodd;stroke:none"
           d="m 0,6.1035e-5 960,0 0,539.999998965 -960,0 L 0,6.1035e-5 Z" /></g></g><path
       id="path22"
       style="fill:#ed7d31;fill-opacity:1;fill-rule:evenodd;stroke:none"
       d="m 267.36,363.24 174.72,0 0,23.64 -174.72,0 0,-23.64 z" /><g
       id="g24"><g
         clip-path="url(#clipPath28)"
         id="g26"><text
           id="text32"
           style="font-variant:normal;font-weight:normal;font-size:12px;font-family:Calibri;-inkscape-font-specification:Calibri;writing-mode:lr-tb;fill:#ffffff;fill-opacity:1;fill-rule:nonzero;stroke:none"
           transform="matrix(1,0,0,-1,324.74,370.99)"><tspan
             id="tspan34"
             y="0"
             x="0 5.6399999 12 18.204 20.988001 26.028 28.788 33.348 37.307999 43.284 49.655998 55.632">TCP Listener</tspan></text>
</g></g><path
       id="path36"
       style="fill:#ed7d31;fill-opacity:1;fill-rule:evenodd;stroke:none"
       d="m 267.36,336.36 174.72,0 0,21.36 -174.72,0 0,-21.36 z" /><g
       id="g38"><g
         clip-path="url(#clipPath42)"
         id="g40"><text
           id="text46"
           style="font-variant:normal;font-weight:normal;font-size:12px;font-family:Calibri;-inkscape-font-specification:Calibri;writing-mode:lr-tb;fill:#ffffff;fill-opacity:1;fill-rule:nonzero;stroke:none"
           transform="matrix(1,0,0,-1,308.3,342.96)"><tspan
             id="tspan48"
             y="0"
             x="0 6.3600001 12.684 19.068001 25.416 31.392 36.467999 40.523998 43.284 49.608002 55.992001 58.391998 64.236 70.620003 74.699997 80.676003 86.447998">Connection Thread</tspan></text>
</g></g><path
       id="path50"
       style="fill:#ed7d31;fill-opacity:1;fill-rule:evenodd;stroke:none"
       d="m 267.36,308.52 174.72,0 0,23.04 -174.72,0 0,-23.04 z" /><g
       id="g52"><g
         clip-path="url(#clipPath56)"
         id="g54"><text
           id="text60"
           style="font-variant:normal;font-weight:normal;font-size:12px;font-family:Calibri;-inkscape-font-specification:Calibri;writing-mode:lr-tb;fill:#ffffff;fill-opacity:1;fill-rule:nonzero;stroke:none"
           transform="matrix(1,0,0,-1,321.14,315.94)"><tspan
             id="tspan62"
             y="0"
             x="0 3.0239999 9.3479996 15 19.068001 25.044001 29.736 34.428001 37.068001 43.548 49.896 53.495998 56.976002 62.952">Ingress Buffer</tspan></text>
</g></g><path
       id="path64"
       style="fill:#ed7d31;fill-opacity:1;fill-rule:evenodd;stroke:none"
       d="m 267.36,277.56 174.72,0 0,24 -174.72,0 0,-24 z" /><g
       id="g66"><g
         clip-path="url(#clipPath70)"
         id="g68"><text
           id="text74"
           style="font-variant:normal;font-weight:normal;font-size:12px;font-family:Calibri;-inkscape-font-specification:Calibri;writing-mode:lr-tb;fill:#ffffff;fill-opacity:1;fill-rule:nonzero;stroke:none"
           transform="matrix(1,0,0,-1,306.02,285.43)"><tspan
             id="tspan76"
             y="0"
             x="0 6 11.748 15.72 20.412001 26.388 30.576 33.240002 36.875999 43.32 53.627998 59.832001 62.616001 70.800003 73.512001 80.040001 87.575996 93.779999">Parser (BMP &amp; BGP)</tspan></text>
</g></g><path
       id="path78"
       style="fill:#ed7d31;fill-opacity:1;fill-rule:evenodd;stroke:none"
       d="m 267.36,217.2 174.72,0 0,19.08 -174.72,0 0,-19.08 z" /><g
       id="g80"><g
         clip-path="url(#clipPath84)"
         id="g82"><text
           id="text88"
           style="font-variant:normal;font-weight:normal;font-size:12px;font-family:Calibri;-inkscape-font-specification:Calibri;writing-mode:lr-tb;fill:#ffffff;fill-opacity:1;fill-rule:nonzero;stroke:none"
           transform="matrix(1,0,0,-1,334.58,222.6)"><tspan
             id="tspan90"
             y="0"
             x="0 6.204 10.2 16.524 22.908001 29.256001 34.296001">Produce</tspan></text>
</g></g><g
       id="g92"><path
         id="path106"
         style="fill:url(#linearGradient94);fill-opacity:1;fill-rule:evenodd;stroke:none"
         d="m 267.36,237.6 87.12,0 0,32.04 -87.12,0 0,-32.04 z" /></g><g
       id="g108"><g
         clip-path="url(#clipPath112)"
         id="g110"><text
           id="text116"
           style="font-variant:normal;font-weight:normal;font-size:12px;font-family:Calibri;-inkscape-font-specification:Calibri;writing-mode:lr-tb;fill:#000000;fill-opacity:1;fill-rule:nonzero;stroke:none"
           transform="matrix(1,0,0,-1,299.09,255.79)"><tspan
             id="tspan118"
             y="0"
             x="0 6.5159998 12.96 23.639999">RAW </tspan></text>
</g></g><g
       id="g120"><g
         clip-path="url(#clipPath124)"
         id="g122"><text
           id="text128"
           style="font-variant:normal;font-weight:normal;font-size:10.56000042px;font-family:Calibri;-inkscape-font-specification:Calibri;writing-mode:lr-tb;fill:#000000;fill-opacity:1;fill-rule:nonzero;stroke:none"
           transform="matrix(1,0,0,-1,283.85,242.83)"><tspan
             id="tspan130"
             y="0"
             x="0 3.23136 10.05312 15.11136 18.596161 21.02496 25.79808 31.056959 33.116161 38.860802 45.587521 50.983681">(Native BGP)</tspan></text>
</g></g><g
       id="g132"><path
         id="path146"
         style="fill:url(#linearGradient134);fill-opacity:1;fill-rule:evenodd;stroke:none"
         d="m 354.48,237.6 87.6,0 0,32.04 -87.6,0 0,-32.04 z" /></g><g
       id="g148"><g
         clip-path="url(#clipPath152)"
         id="g150"><text
           id="text156"
           style="font-variant:normal;font-weight:normal;font-size:12px;font-family:Calibri;-inkscape-font-specification:Calibri;writing-mode:lr-tb;fill:#000000;fill-opacity:1;fill-rule:nonzero;stroke:none"
           transform="matrix(1,0,0,-1,380.9,255.79)"><tspan
             id="tspan158"
             y="0"
             x="0 4.8000002 10.68 15.84 19.908001 26.256001 32.004002">Textual</tspan></text>
</g></g><g
       id="g160"><g
         clip-path="url(#clipPath164)"
         id="g162"><text
           id="text168"
           style="font-variant:normal;font-weight:normal;font-size:10.56000042px;font-family:Calibri;-inkscape-font-specification:Calibri;writing-mode:lr-tb;fill:#000000;fill-opacity:1;fill-rule:nonzero;stroke:none"
           transform="matrix(1,0,0,-1,373.82,242.83)"><tspan
             id="tspan170"
             y="0"
             x="0 3.23136 6.5999999 11.39424 18.38496 25.20672 29.282881 34.911362 39.71616 45.703678">(JSON/CSV)</tspan></text>
</g></g><path
       id="path172"
       style="fill:#a9d18e;fill-opacity:1;fill-rule:evenodd;stroke:none"
       d="m 254.76,138.24 420.84,0 0,33.36 -420.84,0 0,-33.36 z" /><g
       id="g174"><g
         clip-path="url(#clipPath178)"
         id="g176"><text
           id="text182"
           style="font-variant:normal;font-weight:bold;font-size:15.96000004px;font-family:Calibri;-inkscape-font-specification:Calibri-Bold;writing-mode:lr-tb;fill:#ffffff;fill-opacity:1;fill-rule:nonzero;stroke:none"
           transform="matrix(1,0,0,-1,446.86,149.47)"><tspan
             id="tspan184"
             y="0"
             x="0 8.5226402 16.32708 21.37044 28.8078">Kafka</tspan></text>
</g></g><path
       id="path186"
       style="fill:#e2f0d9;fill-opacity:1;fill-rule:evenodd;stroke:none"
       d="m 262.8,390.48 64.44,0 0,24.24 -64.44,0 0,-24.24 z" /><g
       id="g188"><g
         clip-path="url(#clipPath192)"
         id="g190"><text
           id="text196"
           style="font-variant:normal;font-weight:normal;font-size:14.03999996px;font-family:Calibri;-inkscape-font-specification:Calibri;writing-mode:lr-tb;fill:#000000;fill-opacity:1;fill-rule:nonzero;stroke:none"
           transform="matrix(1,0,0,-1,270.29,398.04)"><tspan
             id="tspan198"
             y="0"
             x="0 5.7564001 13.15548 16.4268 19.656 26.647921 32.502602 37.065601 44.46468">collector</tspan></text>
</g></g><path
       id="path200"
       style="fill:#44546a;fill-opacity:1;fill-rule:evenodd;stroke:none"
       d="m 199.08,383.25 33.3,0 0,8.19 16.38,-16.38 -16.38,-16.38 0,8.19 -33.3,0 0,16.38 z" /><g
       id="g202"><g
         clip-path="url(#clipPath206)"
         id="g204"><text
           id="text210"
           style="font-variant:normal;font-weight:normal;font-size:14.03999996px;font-family:Calibri;-inkscape-font-specification:Calibri;writing-mode:lr-tb;fill:#000000;fill-opacity:1;fill-rule:nonzero;stroke:none"
           transform="matrix(1,0,0,-1,193.8,346.56)"><tspan
             id="tspan212"
             y="0"
             x="0 7.4411998 14.84028 22.211281 26.760241 33.752159 38.652119">Router </tspan></text>
</g></g><g
       id="g214"><g
         clip-path="url(#clipPath218)"
         id="g216"><text
           id="text222"
           style="font-variant:normal;font-weight:normal;font-size:14.03999996px;font-family:Calibri;-inkscape-font-specification:Calibri;writing-mode:lr-tb;fill:#000000;fill-opacity:1;fill-rule:nonzero;stroke:none"
           transform="matrix(1,0,0,-1,180.58,329.76)"><tspan
             id="tspan224"
             y="0"
             x="0 7.4411998 14.84028 22.211281 29.526119 36.51804 42.372719 47.076118 50.305321 57.704399">Connection</tspan></text>
</g></g><path
       id="path226"
       style="fill:#e2f0d9;fill-opacity:1;fill-rule:evenodd;stroke:none"
       d="m 492.48,389.88 110.76,0 0,24.24 -110.76,0 0,-24.24 z" /><g
       id="g228"><g
         clip-path="url(#clipPath232)"
         id="g230"><text
           id="text236"
           style="font-variant:normal;font-weight:normal;font-size:14.03999996px;font-family:Calibri;-inkscape-font-specification:Calibri;writing-mode:lr-tb;fill:#000000;fill-opacity:1;fill-rule:nonzero;stroke:none"
           transform="matrix(1,0,0,-1,500.16,397.39)"><tspan
             id="tspan238"
             y="0"
             x="0 12.0042 18.364321 24.80868 34.299721 40.196522 45.615959 57.620159 64.3032 69.203163 72.432358 79.157516 87.792122">MySQL/MariaDB</tspan></text>
</g></g><g
       id="g240"><g
         clip-path="url(#clipPath244)"
         id="g242"><path
           id="path248"
           style="fill:#ed7d31;fill-opacity:1;fill-rule:evenodd;stroke:none"
           d="m 362.73,202.2 0,-12.42 8.19,0 -16.38,-12.42 -16.38,12.42 8.19,0 0,12.42 16.38,0 z" /></g></g><path
       id="path250"
       style="fill:#ed7d31;fill-opacity:1;fill-rule:evenodd;stroke:none"
       d="m 492.48,216.72 174.84,0 0,21.48 -174.84,0 0,-21.48 z" /><g
       id="g252"><g
         clip-path="url(#clipPath256)"
         id="g254"><text
           id="text260"
           style="font-variant:normal;font-weight:normal;font-size:12px;font-family:Calibri;-inkscape-font-specification:Calibri;writing-mode:lr-tb;fill:#ffffff;fill-opacity:1;fill-rule:nonzero;stroke:none"
           transform="matrix(1,0,0,-1,554.98,223.34)"><tspan
             id="tspan262"
             y="0"
             x="0 6.3600001 12.684 19.068001 23.76 30.096001 39.683998 45.66">Consumer</tspan></text>
</g></g><g
       id="g264"><g
         clip-path="url(#clipPath268)"
         id="g266"><path
           id="path272"
           style="fill:#ed7d31;fill-opacity:1;fill-rule:evenodd;stroke:none"
           d="m 571.71,178.92 0,12.42 -8.19,0 16.38,12.42 16.38,-12.42 -8.19,0 0,-12.42 -16.38,0 z" /></g></g><path
       id="path274"
       style="fill:#ed7d31;fill-opacity:1;fill-rule:evenodd;stroke:none"
       d="m 492.48,245.64 174.84,0 0,22.56 -174.84,0 0,-22.56 z" /><g
       id="g276"><g
         clip-path="url(#clipPath280)"
         id="g278"><text
           id="text284"
           style="font-variant:normal;font-weight:normal;font-size:12px;font-family:Calibri;-inkscape-font-specification:Calibri;writing-mode:lr-tb;fill:#ffffff;fill-opacity:1;fill-rule:nonzero;stroke:none"
           transform="matrix(1,0,0,-1,531.94,252.82)"><tspan
             id="tspan286"
             y="0"
             x="0 5.5079999 13.584 18.624001 21.336 26.52 30.48 36.228001 42.588001 47.147999 50.627998 56.952 61.175999 70.764 76.416 80.484001 83.244003 89.568001">SQL Transformation</tspan></text>
</g></g><path
       id="path288"
       style="fill:#ed7d31;fill-opacity:1;fill-rule:evenodd;stroke:none"
       d="m 492.48,275.28 174.84,0 0,23.88 -174.84,0 0,-23.88 z" /><g
       id="g290"><g
         clip-path="url(#clipPath294)"
         id="g292"><text
           id="text298"
           style="font-variant:normal;font-weight:normal;font-size:12px;font-family:Calibri;-inkscape-font-specification:Calibri;writing-mode:lr-tb;fill:#ffffff;fill-opacity:1;fill-rule:nonzero;stroke:none"
           transform="matrix(1,0,0,-1,543.58,283.08)"><tspan
             id="tspan300"
             y="0"
             x="0 7.428 13.908 16.656 23.016001 29.34 35.723999 42.071999 48.048 53.124001 57.18 59.939999 66.264">DB Connection</tspan></text>
</g></g><g
       id="g302"><g
         clip-path="url(#clipPath306)"
         id="g304"><path
           id="path310"
           style="fill:#ed7d31;fill-opacity:1;fill-rule:evenodd;stroke:none"
           d="m 570.27,310.92 0,12.42 -8.19,0 16.38,12.42 16.38,-12.42 -8.19,0 0,-12.42 -16.38,0 z" /></g></g><path
       id="path312"
       style="fill:#a9d18e;fill-opacity:1;fill-rule:evenodd;stroke:none"
       d="m 492.48,347.16 174.84,0 0,33.36 -174.84,0 0,-33.36 z" /><g
       id="g314"><g
         clip-path="url(#clipPath318)"
         id="g316"><text
           id="text322"
           style="font-variant:normal;font-weight:normal;font-size:14.03999996px;font-family:Calibri;-inkscape-font-specification:Calibri;writing-mode:lr-tb;fill:#ffffff;fill-opacity:1;fill-rule:nonzero;stroke:none"
           transform="matrix(1,0,0,-1,554.98,359.09)"><tspan
             id="tspan324"
             y="0"
             x="0 12.0042 18.729361 23.62932 26.858521 33.583679 42.218281">MariaDB</tspan></text>
</g></g><path
       id="path326"
       style="fill:#ed7d31;fill-opacity:1;fill-rule:evenodd;stroke:none"
       d="m 722.4,348.96 94.44,0 0,33.84 -94.44,0 0,-33.84 z" /><g
       id="g328"><g
         clip-path="url(#clipPath332)"
         id="g330"><text
           id="text336"
           style="font-variant:normal;font-weight:bold;font-size:12px;font-family:Calibri;-inkscape-font-specification:Calibri-Bold;writing-mode:lr-tb;fill:#ffffff;fill-opacity:1;fill-rule:nonzero;stroke:none"
           transform="matrix(1,0,0,-1,757.75,368.93)"><tspan
             id="tspan338"
             y="0"
             x="0 6.7199998 12.48 18">REST</tspan></text>
</g></g><g
       id="g340"><g
         clip-path="url(#clipPath344)"
         id="g342"><text
           id="text348"
           style="font-variant:normal;font-weight:bold;font-size:12px;font-family:Calibri;-inkscape-font-specification:Calibri-Bold;writing-mode:lr-tb;fill:#ffffff;fill-opacity:1;fill-rule:nonzero;stroke:none"
           transform="matrix(1,0,0,-1,761.23,354.53)"><tspan
             id="tspan350"
             y="0"
             x="0 7.3080001 13.692">API</tspan></text>
</g></g><path
       id="path352"
       style="fill:#ed7d31;fill-opacity:1;fill-rule:evenodd;stroke:none"
       d="m 711.36,355.59 -12.42,0 0,-8.19 -12.42,16.38 12.42,16.38 0,-8.19 12.42,0 0,-16.38 z" /><path
       id="path354"
       style="fill:#ed7d31;fill-opacity:1;fill-rule:evenodd;stroke:none"
       d="m 722.4,272.88 94.44,0 0,33.96 -94.44,0 0,-33.96 z" /><g
       id="g356"><g
         clip-path="url(#clipPath360)"
         id="g358"><text
           id="text364"
           style="font-variant:normal;font-weight:bold;font-size:12px;font-family:Calibri;-inkscape-font-specification:Calibri-Bold;writing-mode:lr-tb;fill:#ffffff;fill-opacity:1;fill-rule:nonzero;stroke:none"
           transform="matrix(1,0,0,-1,751.37,285.72)"><tspan
             id="tspan366"
             y="0"
             x="0 10.44 16.440001 22.908001 25.656 33.492001">Web UI</tspan></text>
</g></g><g
       id="g368"><g
         clip-path="url(#clipPath372)"
         id="g370"><path
           id="path376"
           style="fill:#ed7d31;fill-opacity:1;fill-rule:evenodd;stroke:none"
           d="m 761.43,316.08 0,12.42 -8.19,0 16.38,12.42 16.38,-12.42 -8.19,0 0,-12.42 -16.38,0 z" /></g></g><path
       id="path378"
       style="fill:none;stroke:#7f7f7f;stroke-width:0.95999998;stroke-linecap:butt;stroke-linejoin:miter;stroke-miterlimit:10;stroke-dasharray:none;stroke-opacity:1"
       d="m 151.92,68.64 718.8,0 0,414 -718.8,0 0,-414 z" /></g></svg>