<?xml version="1.0" encoding="UTF-8" standalone="no"?>
<svg
   xmlns:dc="http://purl.org/dc/elements/1.1/"
   xmlns:cc="http://creativecommons.org/ns#"
   xmlns:rdf="http://www.w3.org/1999/02/22-rdf-syntax-ns#"
   xmlns:svg="http://www.w3.org/2000/svg"
   xmlns="http://www.w3.org/2000/svg"
   viewBox="0 0 1200 675"
   height="675"
   width="1200"
   xml:space="preserve"
   version="1.1"
   id="svg2"><metadata
     id="metadata8"><rdf:RDF><cc:Work
         rdf:about=""><dc:format>image/svg+xml</dc:format><dc:type
           rdf:resource="http://purl.org/dc/dcmitype/StillImage" /></cc:Work></rdf:RDF></metadata><defs
     id="defs6"><clipPath
       id="clipPath16"
       clipPathUnits="userSpaceOnUse"><path
         style="clip-rule:evenodd"
         id="path18"
         d="m 0,1.2207e-4 960,0 0,539.99999793 -960,0 L 0,1.2207e-4 Z" /></clipPath><clipPath
       id="clipPath30"
       clipPathUnits="userSpaceOnUse"><path
         style="clip-rule:evenodd"
         id="path32"
         d="M 1.4305e-5,0 960.00001,0 l 0,540 -959.999995695,0 0,-540 z" /></clipPath><clipPath
       id="clipPath46"
       clipPathUnits="userSpaceOnUse"><path
         style="clip-rule:evenodd"
         id="path48"
         d="M 1.4305e-5,0 960.00001,0 l 0,540 -959.999995695,0 0,-540 z" /></clipPath><clipPath
       id="clipPath62"
       clipPathUnits="userSpaceOnUse"><path
         style="clip-rule:evenodd"
         id="path64"
         d="M 1.4305e-5,0 960.00001,0 l 0,540 -959.999995695,0 0,-540 z" /></clipPath><clipPath
       id="clipPath78"
       clipPathUnits="userSpaceOnUse"><path
         style="clip-rule:evenodd"
         id="path80"
         d="M 1.4305e-5,0 960.00001,0 l 0,540 -959.999995695,0 0,-540 z" /></clipPath><clipPath
       id="clipPath94"
       clipPathUnits="userSpaceOnUse"><path
         style="clip-rule:evenodd"
         id="path96"
         d="M 1.4305e-5,0 960.00001,0 l 0,540 -959.999995695,0 0,-540 z" /></clipPath><linearGradient
       id="linearGradient104"
       spreadMethod="pad"
       gradientUnits="userSpaceOnUse"
       y2="210.60001"
       x2="300.78"
       y1="274.67999"
       x1="300.78"><stop
         id="stop106"
         offset="0"
         style="stop-opacity:1;stop-color:#797979" /><stop
         id="stop108"
         offset="0.25"
         style="stop-opacity:1;stop-color:#8e8e8e" /><stop
         id="stop110"
         offset="0.5"
         style="stop-opacity:1;stop-color:#9b9b9b" /><stop
         id="stop112"
         offset="0.75"
         style="stop-opacity:1;stop-color:#8e8e8e" /><stop
         id="stop114"
         offset="1"
         style="stop-opacity:1;stop-color:#797979" /></linearGradient><clipPath
       id="clipPath124"
       clipPathUnits="userSpaceOnUse"><path
         style="clip-rule:evenodd"
         id="path126"
         d="M 1.4305e-5,0 960.00001,0 l 0,540 -959.999995695,0 0,-540 z" /></clipPath><clipPath
       id="clipPath136"
       clipPathUnits="userSpaceOnUse"><path
         style="clip-rule:evenodd"
         id="path138"
         d="M 1.4305e-5,0 960.00001,0 l 0,540 -959.999995695,0 0,-540 z" /></clipPath><linearGradient
       id="linearGradient146"
       spreadMethod="pad"
       gradientUnits="userSpaceOnUse"
       y2="210.60001"
       x2="388.20001"
       y1="274.67999"
       x1="388.20001"><stop
         id="stop148"
         offset="0"
         style="stop-opacity:1;stop-color:#797979" /><stop
         id="stop150"
         offset="0.25"
         style="stop-opacity:1;stop-color:#8e8e8e" /><stop
         id="stop152"
         offset="0.5"
         style="stop-opacity:1;stop-color:#9b9b9b" /><stop
         id="stop154"
         offset="0.75"
         style="stop-opacity:1;stop-color:#8e8e8e" /><stop
         id="stop156"
         offset="1"
         style="stop-opacity:1;stop-color:#797979" /></linearGradient><clipPath
       id="clipPath166"
       clipPathUnits="userSpaceOnUse"><path
         style="clip-rule:evenodd"
         id="path168"
         d="M 1.4305e-5,0 960.00001,0 l 0,540 -959.999995695,0 0,-540 z" /></clipPath><clipPath
       id="clipPath178"
       clipPathUnits="userSpaceOnUse"><path
         style="clip-rule:evenodd"
         id="path180"
         d="M 1.4305e-5,0 960.00001,0 l 0,540 -959.999995695,0 0,-540 z" /></clipPath><clipPath
       id="clipPath194"
       clipPathUnits="userSpaceOnUse"><path
         style="clip-rule:evenodd"
         id="path196"
         d="M 1.4305e-5,0 960.00001,0 l 0,540 -959.999995695,0 0,-540 z" /></clipPath><clipPath
       id="clipPath210"
       clipPathUnits="userSpaceOnUse"><path
         style="clip-rule:evenodd"
         id="path212"
         d="M 1.4305e-5,0 960.00001,0 l 0,540 -959.999995695,0 0,-540 z" /></clipPath><clipPath
       id="clipPath226"
       clipPathUnits="userSpaceOnUse"><path
         style="clip-rule:evenodd"
         id="path228"
         d="M 1.4305e-5,0 960.00001,0 l 0,540 -959.999995695,0 0,-540 z" /></clipPath><clipPath
       id="clipPath238"
       clipPathUnits="userSpaceOnUse"><path
         style="clip-rule:evenodd"
         id="path240"
         d="M 1.4305e-5,0 960.00001,0 l 0,540 -959.999995695,0 0,-540 z" /></clipPath><clipPath
       id="clipPath254"
       clipPathUnits="userSpaceOnUse"><path
         style="clip-rule:evenodd"
         id="path256"
         d="M 1.4305e-5,0 960.00001,0 l 0,540 -959.999995695,0 0,-540 z" /></clipPath><clipPath
       id="clipPath266"
       clipPathUnits="userSpaceOnUse"><path
         style="clip-rule:evenodd"
         id="path268"
         d="m 0,540 960,0 0,-539.99987793 -959.999969482,0" /></clipPath><clipPath
       id="clipPath276"
       clipPathUnits="userSpaceOnUse"><path
         style="clip-rule:evenodd"
         id="path278"
         d="m 0,540 960,0 0,-539.99987793 -959.999969482,0" /></clipPath><clipPath
       id="clipPath290"
       clipPathUnits="userSpaceOnUse"><path
         style="clip-rule:evenodd"
         id="path292"
         d="M 1.4305e-5,0 960.00001,0 l 0,540 -959.999995695,0 0,-540 z" /></clipPath><clipPath
       id="clipPath302"
       clipPathUnits="userSpaceOnUse"><path
         style="clip-rule:evenodd"
         id="path304"
         d="M -6.1035e-5,540 960,540 960,0 -6.1035e-5,6.1035e-5" /></clipPath><clipPath
       id="clipPath312"
       clipPathUnits="userSpaceOnUse"><path
         style="clip-rule:evenodd"
         id="path314"
         d="M -6.1035e-5,540 960,540 960,0 -6.1035e-5,6.1035e-5" /></clipPath><clipPath
       id="clipPath326"
       clipPathUnits="userSpaceOnUse"><path
         style="clip-rule:evenodd"
         id="path328"
         d="M 1.4305e-5,0 960.00001,0 l 0,540 -959.999995695,0 0,-540 z" /></clipPath><clipPath
       id="clipPath342"
       clipPathUnits="userSpaceOnUse"><path
         style="clip-rule:evenodd"
         id="path344"
         d="M 1.4305e-5,0 960.00001,0 l 0,540 -959.999995695,0 0,-540 z" /></clipPath><clipPath
       id="clipPath354"
       clipPathUnits="userSpaceOnUse"><path
         style="clip-rule:evenodd"
         id="path356"
         d="M -6.1035e-5,540 960,540 960,6.1035e-5 l -960.000061035,0" /></clipPath><clipPath
       id="clipPath364"
       clipPathUnits="userSpaceOnUse"><path
         style="clip-rule:evenodd"
         id="path366"
         d="M -6.1035e-5,540 960,540 960,6.1035e-5 l -960.000061035,0" /></clipPath><clipPath
       id="clipPath378"
       clipPathUnits="userSpaceOnUse"><path
         style="clip-rule:evenodd"
         id="path380"
         d="M 1.4305e-5,0 960.00001,0 l 0,540 -959.999995695,0 0,-540 z" /></clipPath><clipPath
       id="clipPath394"
       clipPathUnits="userSpaceOnUse"><path
         style="clip-rule:evenodd"
         id="path396"
         d="M 1.4305e-5,0 960.00001,0 l 0,540 -959.999995695,0 0,-540 z" /></clipPath><clipPath
       id="clipPath406"
       clipPathUnits="userSpaceOnUse"><path
         style="clip-rule:evenodd"
         id="path408"
         d="M 1.4305e-5,0 960.00001,0 l 0,540 -959.999995695,0 0,-540 z" /></clipPath><clipPath
       id="clipPath426"
       clipPathUnits="userSpaceOnUse"><path
         style="clip-rule:evenodd"
         id="path428"
         d="M 1.4305e-5,0 960.00001,0 l 0,540 -959.999995695,0 0,-540 z" /></clipPath><clipPath
       id="clipPath438"
       clipPathUnits="userSpaceOnUse"><path
         style="clip-rule:evenodd"
         id="path440"
         d="M -6.1035e-5,540 960,540 960,6.1035e-5 l -960.000061035,0" /></clipPath><clipPath
       id="clipPath448"
       clipPathUnits="userSpaceOnUse"><path
         style="clip-rule:evenodd"
         id="path450"
         d="M -6.1035e-5,540 960,540 960,6.1035e-5 l -960.000061035,0" /></clipPath><clipPath
       id="clipPath462"
       clipPathUnits="userSpaceOnUse"><path
         style="clip-rule:evenodd"
         id="path464"
         d="M 1.4305e-5,0 960.00001,0 l 0,540 -959.999995695,0 0,-540 z" /></clipPath><clipPath
       id="clipPath474"
       clipPathUnits="userSpaceOnUse"><path
         style="clip-rule:evenodd"
         id="path476"
         d="M 0,540 960,540 960,2.4414e-4 6.1035e-5,1.8311e-4" /></clipPath><clipPath
       id="clipPath484"
       clipPathUnits="userSpaceOnUse"><path
         style="clip-rule:evenodd"
         id="path486"
         d="M 0,540 960,540 960,2.4414e-4 6.1035e-5,1.8311e-4" /></clipPath><clipPath
       id="clipPath494"
       clipPathUnits="userSpaceOnUse"><path
         style="clip-rule:evenodd"
         id="path496"
         d="M 1.2207e-4,540 960,540 960,1.8311e-4 l -959.99981689,0" /></clipPath><clipPath
       id="clipPath504"
       clipPathUnits="userSpaceOnUse"><path
         style="clip-rule:evenodd"
         id="path506"
         d="M 1.2207e-4,540 960,540 960,1.8311e-4 l -959.99981689,0" /></clipPath></defs><g
     transform="matrix(1.25,0,0,-1.25,0,675)"
     id="g10"><g
       id="g12"><g
         clip-path="url(#clipPath16)"
         id="g14"><path
           id="path20"
           style="fill:#ffffff;fill-opacity:1;fill-rule:evenodd;stroke:none"
           d="m 0,6.1035e-5 960,0 0,539.999998965 -960,0 L 0,6.1035e-5 Z" /></g></g><path
       id="path22"
       style="fill:#ed7d31;fill-opacity:1;fill-rule:evenodd;stroke:none"
       d="m 257.16,336.24 174.84,0 0,23.64 -174.84,0 0,-23.64 z" /><path
       id="path24"
       style="fill:none;stroke:#ae5a21;stroke-width:0.95999998;stroke-linecap:butt;stroke-linejoin:miter;stroke-miterlimit:10;stroke-dasharray:none;stroke-opacity:1"
       d="m 257.16,336.24 174.84,0 0,23.64 -174.84,0 0,-23.64 z" /><g
       id="g26"><g
         clip-path="url(#clipPath30)"
         id="g28"><text
           id="text34"
           style="font-variant:normal;font-weight:normal;font-size:12.02400017px;font-family:Calibri;-inkscape-font-specification:Calibri;writing-mode:lr-tb;fill:#ffffff;fill-opacity:1;fill-rule:nonzero;stroke:none"
           transform="matrix(1,0,0,-1,314.62,343.99)"><tspan
             id="tspan36"
             y="0"
             x="0 5.639256 11.999952 18.21636 20.993904 26.043983 28.809504 33.354576 37.310471 43.298424 49.659119 55.647072">TCP Listener</tspan></text>
</g></g><path
       id="path38"
       style="fill:#ed7d31;fill-opacity:1;fill-rule:evenodd;stroke:none"
       d="m 257.16,309.36 174.84,0 0,21.36 -174.84,0 0,-21.36 z" /><path
       id="path40"
       style="fill:none;stroke:#ae5a21;stroke-width:0.95999998;stroke-linecap:butt;stroke-linejoin:miter;stroke-miterlimit:10;stroke-dasharray:none;stroke-opacity:1"
       d="m 257.16,309.36 174.84,0 0,21.36 -174.84,0 0,-21.36 z" /><g
       id="g42"><g
         clip-path="url(#clipPath46)"
         id="g44"><text
           id="text50"
           style="font-variant:normal;font-weight:normal;font-size:12.02400017px;font-family:Calibri;-inkscape-font-specification:Calibri;writing-mode:lr-tb;fill:#ffffff;fill-opacity:1;fill-rule:nonzero;stroke:none"
           transform="matrix(1,0,0,-1,298.18,315.96)"><tspan
             id="tspan52"
             y="0"
             x="0 6.3606958 12.697344 19.070065 25.418736 31.406689 36.49284 40.520882 43.2864 49.623047 56.007793 58.412594 64.26828 70.640999 74.717133 80.705086 86.464584">Connection Thread</tspan></text>
</g></g><path
       id="path54"
       style="fill:#ed7d31;fill-opacity:1;fill-rule:evenodd;stroke:none"
       d="m 257.16,281.52 174.84,0 0,23.04 -174.84,0 0,-23.04 z" /><path
       id="path56"
       style="fill:none;stroke:#ae5a21;stroke-width:0.95999998;stroke-linecap:butt;stroke-linejoin:miter;stroke-miterlimit:10;stroke-dasharray:none;stroke-opacity:1"
       d="m 257.16,281.52 174.84,0 0,23.04 -174.84,0 0,-23.04 z" /><g
       id="g58"><g
         clip-path="url(#clipPath62)"
         id="g60"><text
           id="text66"
           style="font-variant:normal;font-weight:normal;font-size:12px;font-family:Calibri;-inkscape-font-specification:Calibri;writing-mode:lr-tb;fill:#ffffff;fill-opacity:1;fill-rule:nonzero;stroke:none"
           transform="matrix(1,0,0,-1,311.02,288.91)"><tspan
             id="tspan68"
             y="0"
             x="0 3.0239999 9.3479996 15 19.068001 25.044001 29.736 34.428001 37.068001 43.548 49.896 53.495998 56.976002 62.952">Ingress Buffer</tspan></text>
</g></g><path
       id="path70"
       style="fill:#ed7d31;fill-opacity:1;fill-rule:evenodd;stroke:none"
       d="m 257.16,250.56 174.84,0 0,24 -174.84,0 0,-24 z" /><path
       id="path72"
       style="fill:none;stroke:#ae5a21;stroke-width:0.95999998;stroke-linecap:butt;stroke-linejoin:miter;stroke-miterlimit:10;stroke-dasharray:none;stroke-opacity:1"
       d="m 257.16,250.56 174.84,0 0,24 -174.84,0 0,-24 z" /><g
       id="g74"><g
         clip-path="url(#clipPath78)"
         id="g76"><text
           id="text82"
           style="font-variant:normal;font-weight:normal;font-size:12px;font-family:Calibri;-inkscape-font-specification:Calibri;writing-mode:lr-tb;fill:#ffffff;fill-opacity:1;fill-rule:nonzero;stroke:none"
           transform="matrix(1,0,0,-1,295.9,258.43)"><tspan
             id="tspan84"
             y="0"
             x="0 6 11.748 15.72 20.412001 26.388 30.576 33.240002 36.875999 43.32 53.627998 59.832001 62.616001 70.800003 73.512001 80.040001 87.575996 93.779999">Parser (BMP &amp; BGP)</tspan></text>
</g></g><path
       id="path86"
       style="fill:#ed7d31;fill-opacity:1;fill-rule:evenodd;stroke:none"
       d="m 257.16,190.2 174.84,0 0,19.08 -174.84,0 0,-19.08 z" /><path
       id="path88"
       style="fill:none;stroke:#ae5a21;stroke-width:0.95999998;stroke-linecap:butt;stroke-linejoin:miter;stroke-miterlimit:10;stroke-dasharray:none;stroke-opacity:1"
       d="m 257.16,190.2 174.84,0 0,19.08 -174.84,0 0,-19.08 z" /><g
       id="g90"><g
         clip-path="url(#clipPath94)"
         id="g92"><text
           id="text98"
           style="font-variant:normal;font-weight:normal;font-size:12px;font-family:Calibri;-inkscape-font-specification:Calibri;writing-mode:lr-tb;fill:#ffffff;fill-opacity:1;fill-rule:nonzero;stroke:none"
           transform="matrix(1,0,0,-1,324.46,195.6)"><tspan
             id="tspan100"
             y="0"
             x="0 6.204 10.2 16.524 22.908001 29.256001 34.296001">Produce</tspan></text>
</g></g><g
       id="g102"><path
         id="path116"
         style="fill:url(#linearGradient104);fill-opacity:1;fill-rule:evenodd;stroke:none"
         d="m 257.16,210.6 87.24,0 0,32.04 -87.24,0 0,-32.04 z" /></g><path
       id="path118"
       style="fill:none;stroke:#000000;stroke-width:0.47999999;stroke-linecap:butt;stroke-linejoin:miter;stroke-miterlimit:10;stroke-dasharray:none;stroke-opacity:1"
       d="m 257.16,210.6 87.24,0 0,32.04 -87.24,0 0,-32.04 z" /><g
       id="g120"><g
         clip-path="url(#clipPath124)"
         id="g122"><text
           id="text128"
           style="font-variant:normal;font-weight:normal;font-size:12px;font-family:Calibri;-inkscape-font-specification:Calibri;writing-mode:lr-tb;fill:#000000;fill-opacity:1;fill-rule:nonzero;stroke:none"
           transform="matrix(1,0,0,-1,288.96,228.79)"><tspan
             id="tspan130"
             y="0"
             x="0 6.5159998 12.96 23.639999">RAW </tspan></text>
</g></g><g
       id="g132"><g
         clip-path="url(#clipPath136)"
         id="g134"><text
           id="text140"
           style="font-variant:normal;font-weight:normal;font-size:10.56000042px;font-family:Calibri;-inkscape-font-specification:Calibri;writing-mode:lr-tb;fill:#000000;fill-opacity:1;fill-rule:nonzero;stroke:none"
           transform="matrix(1,0,0,-1,273.72,215.83)"><tspan
             id="tspan142"
             y="0"
             x="0 3.23136 10.05312 15.11136 18.596161 21.02496 25.79808 31.056959 33.116161 38.860802 45.587521 50.983681">(Native BGP)</tspan></text>
</g></g><g
       id="g144"><path
         id="path158"
         style="fill:url(#linearGradient146);fill-opacity:1;fill-rule:evenodd;stroke:none"
         d="m 344.4,210.6 87.6,0 0,32.04 -87.6,0 0,-32.04 z" /></g><path
       id="path160"
       style="fill:none;stroke:#000000;stroke-width:0.47999999;stroke-linecap:butt;stroke-linejoin:miter;stroke-miterlimit:10;stroke-dasharray:none;stroke-opacity:1"
       d="m 344.4,210.6 87.6,0 0,32.04 -87.6,0 0,-32.04 z" /><g
       id="g162"><g
         clip-path="url(#clipPath166)"
         id="g164"><text
           id="text170"
           style="font-variant:normal;font-weight:normal;font-size:12px;font-family:Calibri;-inkscape-font-specification:Calibri;writing-mode:lr-tb;fill:#000000;fill-opacity:1;fill-rule:nonzero;stroke:none"
           transform="matrix(1,0,0,-1,370.78,228.79)"><tspan
             id="tspan172"
             y="0"
             x="0 4.8000002 10.68 15.84 19.908001 26.256001 32.004002">Textual</tspan></text>
</g></g><g
       id="g174"><g
         clip-path="url(#clipPath178)"
         id="g176"><text
           id="text182"
           style="font-variant:normal;font-weight:normal;font-size:10.56000042px;font-family:Calibri;-inkscape-font-specification:Calibri;writing-mode:lr-tb;fill:#000000;fill-opacity:1;fill-rule:nonzero;stroke:none"
           transform="matrix(1,0,0,-1,363.7,215.83)"><tspan
             id="tspan184"
             y="0"
             x="0 3.23136 6.5999999 11.39424 18.38496 25.20672 29.282881 34.911362 39.71616 45.703678">(JSON/CSV)</tspan></text>
</g></g><path
       id="path186"
       style="fill:#a9d18e;fill-opacity:1;fill-rule:evenodd;stroke:none"
       d="m 244.68,111.24 420.84,0 0,33.36 -420.84,0 0,-33.36 z" /><path
       id="path188"
       style="fill:none;stroke:#507e32;stroke-width:0.95999998;stroke-linecap:butt;stroke-linejoin:miter;stroke-miterlimit:10;stroke-dasharray:none;stroke-opacity:1"
       d="m 244.68,111.24 420.84,0 0,33.36 -420.84,0 0,-33.36 z" /><g
       id="g190"><g
         clip-path="url(#clipPath194)"
         id="g192"><text
           id="text198"
           style="font-variant:normal;font-weight:bold;font-size:15.98400021px;font-family:Calibri;-inkscape-font-specification:Calibri-Bold;writing-mode:lr-tb;fill:#ffffff;fill-opacity:1;fill-rule:nonzero;stroke:none"
           transform="matrix(1,0,0,-1,436.73,122.47)"><tspan
             id="tspan200"
             y="0"
             x="0 8.5194721 16.319664 21.370607 28.803167">Kafka</tspan></text>
</g></g><path
       id="path202"
       style="fill:none;stroke:#999999;stroke-width:0.95999998;stroke-linecap:butt;stroke-linejoin:miter;stroke-miterlimit:10;stroke-dasharray:none;stroke-opacity:1"
       d="m 244.68,183.6 201.36,0 0,189.24 -201.36,0 0,-189.24 z" /><path
       id="path204"
       style="fill:#e2f0d9;fill-opacity:1;fill-rule:evenodd;stroke:none"
       d="m 252.72,363.48 64.44,0 0,24.24 -64.44,0 0,-24.24 z" /><g
       id="g206"><g
         clip-path="url(#clipPath210)"
         id="g208"><text
           id="text214"
           style="font-variant:normal;font-weight:normal;font-size:14.03999996px;font-family:Calibri;-inkscape-font-specification:Calibri;writing-mode:lr-tb;fill:#000000;fill-opacity:1;fill-rule:nonzero;stroke:none"
           transform="matrix(1,0,0,-1,259.92,371.04)"><tspan
             id="tspan216"
             y="0"
             x="0 5.7564001 13.15548 16.4268 19.656 26.647921 32.502602 37.065601 44.46468">collector</tspan></text>
</g></g><path
       id="path218"
       style="fill:#44546a;fill-opacity:1;fill-rule:evenodd;stroke:none"
       d="m 188.88,356.25 33.42,0 0,8.19 16.38,-16.38 -16.38,-16.38 0,8.19 -33.42,0 0,16.38 z" /><path
       id="path220"
       style="fill:none;stroke:#ae5a21;stroke-width:0.95999998;stroke-linecap:butt;stroke-linejoin:miter;stroke-miterlimit:10;stroke-dasharray:none;stroke-opacity:1"
       d="m 188.88,356.25 33.42,0 0,8.19 16.38,-16.38 -16.38,-16.38 0,8.19 -33.42,0 0,16.38 z" /><g
       id="g222"><g
         clip-path="url(#clipPath226)"
         id="g224"><text
           id="text230"
           style="font-variant:normal;font-weight:normal;font-size:14.03999996px;font-family:Calibri;-inkscape-font-specification:Calibri;writing-mode:lr-tb;fill:#000000;fill-opacity:1;fill-rule:nonzero;stroke:none"
           transform="matrix(1,0,0,-1,188.21,319.56)"><tspan
             id="tspan232"
             y="0"
             x="0 7.4411998 14.84028 22.211281 26.760241 33.752159 38.652119">Router </tspan></text>
</g></g><g
       id="g234"><g
         clip-path="url(#clipPath238)"
         id="g236"><text
           id="text242"
           style="font-variant:normal;font-weight:normal;font-size:14.03999996px;font-family:Calibri;-inkscape-font-specification:Calibri;writing-mode:lr-tb;fill:#000000;fill-opacity:1;fill-rule:nonzero;stroke:none"
           transform="matrix(1,0,0,-1,175.01,302.76)"><tspan
             id="tspan244"
             y="0"
             x="0 7.4411998 14.84028 22.211281 29.526119 36.51804 42.372719 47.076118 50.305321 57.704399">Connection</tspan></text>
</g></g><path
       id="path246"
       style="fill:none;stroke:#999999;stroke-width:0.95999998;stroke-linecap:butt;stroke-linejoin:miter;stroke-miterlimit:10;stroke-dasharray:none;stroke-opacity:1"
       d="m 474.36,183 191.16,0 0,189.24 -191.16,0 0,-189.24 z" /><path
       id="path248"
       style="fill:#e2f0d9;fill-opacity:1;fill-rule:evenodd;stroke:none"
       d="m 482.4,362.88 110.64,0 0,24.24 -110.64,0 0,-24.24 z" /><g
       id="g250"><g
         clip-path="url(#clipPath254)"
         id="g252"><text
           id="text258"
           style="font-variant:normal;font-weight:normal;font-size:14.03999996px;font-family:Calibri;-inkscape-font-specification:Calibri;writing-mode:lr-tb;fill:#000000;fill-opacity:1;fill-rule:nonzero;stroke:none"
           transform="matrix(1,0,0,-1,489.62,370.37)"><tspan
             id="tspan260"
             y="0"
             x="0 12.0042 18.364321 24.80868 34.299721 40.196522 45.615959 57.620159 64.3032 69.203163 72.432358 79.157516 87.792122">MySQL/MariaDB</tspan></text>
</g></g><g
       id="g262"><g
         clip-path="url(#clipPath266)"
         id="g264"><path
           id="path270"
           style="fill:#ed7d31;fill-opacity:1;fill-rule:evenodd;stroke:none"
           d="m 352.65,175.2 0,-12.42 8.19,0 -16.38,-12.42 -16.38,12.42 8.19,0 0,12.42 16.38,0 z" /></g></g><g
       id="g272"><g
         clip-path="url(#clipPath276)"
         id="g274"><path
           id="path280"
           style="fill:none;stroke:#ae5a21;stroke-width:0.95999998;stroke-linecap:butt;stroke-linejoin:miter;stroke-miterlimit:10;stroke-dasharray:none;stroke-opacity:1"
           d="m 352.65,175.2 0,-12.42 8.19,0 -16.38,-12.42 -16.38,12.42 8.19,0 0,12.42 16.38,0 z" /></g></g><path
       id="path282"
       style="fill:#ed7d31;fill-opacity:1;fill-rule:evenodd;stroke:none"
       d="m 482.4,189.72 174.72,0 0,21.48 -174.72,0 0,-21.48 z" /><path
       id="path284"
       style="fill:none;stroke:#ae5a21;stroke-width:0.95999998;stroke-linecap:butt;stroke-linejoin:miter;stroke-miterlimit:10;stroke-dasharray:none;stroke-opacity:1"
       d="m 482.4,189.72 174.72,0 0,21.48 -174.72,0 0,-21.48 z" /><g
       id="g286"><g
         clip-path="url(#clipPath290)"
         id="g288"><text
           id="text294"
           style="font-variant:normal;font-weight:normal;font-size:12px;font-family:Calibri;-inkscape-font-specification:Calibri;writing-mode:lr-tb;fill:#ffffff;fill-opacity:1;fill-rule:nonzero;stroke:none"
           transform="matrix(1,0,0,-1,544.85,196.32)"><tspan
             id="tspan296"
             y="0"
             x="0 6.3600001 12.684 19.068001 23.76 30.096001 39.683998 45.66">Consumer</tspan></text>
</g></g><g
       id="g298"><g
         clip-path="url(#clipPath302)"
         id="g300"><path
           id="path306"
           style="fill:#ed7d31;fill-opacity:1;fill-rule:evenodd;stroke:none"
           d="m 561.6,151.92 0,12.42 -8.16,0 16.32,12.42 16.32,-12.42 -8.16,0 0,-12.42 -16.32,0 z" /></g></g><g
       id="g308"><g
         clip-path="url(#clipPath312)"
         id="g310"><path
           id="path316"
           style="fill:none;stroke:#ae5a21;stroke-width:0.95999998;stroke-linecap:butt;stroke-linejoin:miter;stroke-miterlimit:10;stroke-dasharray:none;stroke-opacity:1"
           d="m 561.6,151.92 0,12.42 -8.16,0 16.32,12.42 16.32,-12.42 -8.16,0 0,-12.42 -16.32,0 z" /></g></g><path
       id="path318"
       style="fill:#ed7d31;fill-opacity:1;fill-rule:evenodd;stroke:none"
       d="m 482.4,218.64 174.72,0 0,22.56 -174.72,0 0,-22.56 z" /><path
       id="path320"
       style="fill:none;stroke:#ae5a21;stroke-width:0.95999998;stroke-linecap:butt;stroke-linejoin:miter;stroke-miterlimit:10;stroke-dasharray:none;stroke-opacity:1"
       d="m 482.4,218.64 174.72,0 0,22.56 -174.72,0 0,-22.56 z" /><g
       id="g322"><g
         clip-path="url(#clipPath326)"
         id="g324"><text
           id="text330"
           style="font-variant:normal;font-weight:normal;font-size:12px;font-family:Calibri;-inkscape-font-specification:Calibri;writing-mode:lr-tb;fill:#ffffff;fill-opacity:1;fill-rule:nonzero;stroke:none"
           transform="matrix(1,0,0,-1,521.81,225.82)"><tspan
             id="tspan332"
             y="0"
             x="0 5.5079999 13.584 18.624001 21.336 26.52 30.48 36.228001 42.588001 47.147999 50.627998 56.952 61.175999 70.764 76.416 80.484001 83.244003 89.568001">SQL Transformation</tspan></text>
</g></g><path
       id="path334"
       style="fill:#ed7d31;fill-opacity:1;fill-rule:evenodd;stroke:none"
       d="m 482.4,248.28 174.72,0 0,23.88 -174.72,0 0,-23.88 z" /><path
       id="path336"
       style="fill:none;stroke:#ae5a21;stroke-width:0.95999998;stroke-linecap:butt;stroke-linejoin:miter;stroke-miterlimit:10;stroke-dasharray:none;stroke-opacity:1"
       d="m 482.4,248.28 174.72,0 0,23.88 -174.72,0 0,-23.88 z" /><g
       id="g338"><g
         clip-path="url(#clipPath342)"
         id="g340"><text
           id="text346"
           style="font-variant:normal;font-weight:normal;font-size:12px;font-family:Calibri;-inkscape-font-specification:Calibri;writing-mode:lr-tb;fill:#ffffff;fill-opacity:1;fill-rule:nonzero;stroke:none"
           transform="matrix(1,0,0,-1,533.45,256.08)"><tspan
             id="tspan348"
             y="0"
             x="0 7.428 13.908 16.656 23.016001 29.34 35.723999 42.071999 48.048 53.124001 57.18 59.939999 66.264">DB Connection</tspan></text>
</g></g><g
       id="g350"><g
         clip-path="url(#clipPath354)"
         id="g352"><path
           id="path358"
           style="fill:#ed7d31;fill-opacity:1;fill-rule:evenodd;stroke:none"
           d="m 560.19,283.92 0,12.42 -8.19,0 16.38,12.42 16.38,-12.42 -8.19,0 0,-12.42 -16.38,0 z" /></g></g><g
       id="g360"><g
         clip-path="url(#clipPath364)"
         id="g362"><path
           id="path368"
           style="fill:none;stroke:#ae5a21;stroke-width:0.95999998;stroke-linecap:butt;stroke-linejoin:miter;stroke-miterlimit:10;stroke-dasharray:none;stroke-opacity:1"
           d="m 560.19,283.92 0,12.42 -8.19,0 16.38,12.42 16.38,-12.42 -8.19,0 0,-12.42 -16.38,0 z" /></g></g><path
       id="path370"
       style="fill:#a9d18e;fill-opacity:1;fill-rule:evenodd;stroke:none"
       d="m 482.4,320.16 174.72,0 0,33.36 -174.72,0 0,-33.36 z" /><path
       id="path372"
       style="fill:none;stroke:#507e32;stroke-width:0.95999998;stroke-linecap:butt;stroke-linejoin:miter;stroke-miterlimit:10;stroke-dasharray:none;stroke-opacity:1"
       d="m 482.4,320.16 174.72,0 0,33.36 -174.72,0 0,-33.36 z" /><g
       id="g374"><g
         clip-path="url(#clipPath378)"
         id="g376"><text
           id="text382"
           style="font-variant:normal;font-weight:normal;font-size:14.03999996px;font-family:Calibri;-inkscape-font-specification:Calibri;writing-mode:lr-tb;fill:#ffffff;fill-opacity:1;fill-rule:nonzero;stroke:none"
           transform="matrix(1,0,0,-1,544.85,332.09)"><tspan
             id="tspan384"
             y="0"
             x="0 12.0042 18.729361 23.62932 26.858521 33.583679 42.218281">MariaDB</tspan></text>
</g></g><path
       id="path386"
       style="fill:#ed7d31;fill-opacity:1;fill-rule:evenodd;stroke:none"
       d="m 712.2,321.96 94.56,0 0,33.84 -94.56,0 0,-33.84 z" /><path
       id="path388"
       style="fill:none;stroke:#ae5a21;stroke-width:0.95999998;stroke-linecap:butt;stroke-linejoin:miter;stroke-miterlimit:10;stroke-dasharray:none;stroke-opacity:1"
       d="m 712.2,321.96 94.56,0 0,33.84 -94.56,0 0,-33.84 z" /><g
       id="g390"><g
         clip-path="url(#clipPath394)"
         id="g392"><text
           id="text398"
           style="font-variant:normal;font-weight:bold;font-size:12px;font-family:Calibri;-inkscape-font-specification:Calibri-Bold;writing-mode:lr-tb;fill:#ffffff;fill-opacity:1;fill-rule:nonzero;stroke:none"
           transform="matrix(1,0,0,-1,747.62,341.93)"><tspan
             id="tspan400"
             y="0"
             x="0 6.7199998 12.48 18">REST</tspan></text>
</g></g><g
       id="g402"><g
         clip-path="url(#clipPath406)"
         id="g404"><text
           id="text410"
           style="font-variant:normal;font-weight:bold;font-size:12px;font-family:Calibri;-inkscape-font-specification:Calibri-Bold;writing-mode:lr-tb;fill:#ffffff;fill-opacity:1;fill-rule:nonzero;stroke:none"
           transform="matrix(1,0,0,-1,751.1,327.53)"><tspan
             id="tspan412"
             y="0"
             x="0 7.3080001 13.692">API</tspan></text>
</g></g><path
       id="path414"
       style="fill:#ed7d31;fill-opacity:1;fill-rule:evenodd;stroke:none"
       d="m 701.28,328.59 -12.42,0 0,-8.19 -12.42,16.38 12.42,16.38 0,-8.19 12.42,0 0,-16.38 z" /><path
       id="path416"
       style="fill:none;stroke:#ae5a21;stroke-width:0.95999998;stroke-linecap:butt;stroke-linejoin:miter;stroke-miterlimit:10;stroke-dasharray:none;stroke-opacity:1"
       d="m 701.28,328.59 -12.42,0 0,-8.19 -12.42,16.38 12.42,16.38 0,-8.19 12.42,0 0,-16.38 z" /><path
       id="path418"
       style="fill:#ed7d31;fill-opacity:1;fill-rule:evenodd;stroke:none"
       d="m 712.2,245.88 94.56,0 0,33.96 -94.56,0 0,-33.96 z" /><path
       id="path420"
       style="fill:none;stroke:#ae5a21;stroke-width:0.95999998;stroke-linecap:butt;stroke-linejoin:miter;stroke-miterlimit:10;stroke-dasharray:none;stroke-opacity:1"
       d="m 712.2,245.88 94.56,0 0,33.96 -94.56,0 0,-33.96 z" /><g
       id="g422"><g
         clip-path="url(#clipPath426)"
         id="g424"><text
           id="text430"
           style="font-variant:normal;font-weight:bold;font-size:12px;font-family:Calibri;-inkscape-font-specification:Calibri-Bold;writing-mode:lr-tb;fill:#ffffff;fill-opacity:1;fill-rule:nonzero;stroke:none"
           transform="matrix(1,0,0,-1,741.24,258.72)"><tspan
             id="tspan432"
             y="0"
             x="0 10.44 16.440001 22.908001 25.656 33.492001">Web UI</tspan></text>
</g></g><g
       id="g434"><g
         clip-path="url(#clipPath438)"
         id="g436"><path
           id="path442"
           style="fill:#ed7d31;fill-opacity:1;fill-rule:evenodd;stroke:none"
           d="m 751.35,289.08 0,12.42 -8.19,0 16.38,12.42 16.38,-12.42 -8.19,0 0,-12.42 -16.38,0 z" /></g></g><g
       id="g444"><g
         clip-path="url(#clipPath448)"
         id="g446"><path
           id="path452"
           style="fill:none;stroke:#ae5a21;stroke-width:0.95999998;stroke-linecap:butt;stroke-linejoin:miter;stroke-miterlimit:10;stroke-dasharray:none;stroke-opacity:1"
           d="m 751.35,289.08 0,12.42 -8.19,0 16.38,12.42 16.38,-12.42 -8.19,0 0,-12.42 -16.38,0 z" /></g></g><path
       id="path454"
       style="fill:#a9d18e;fill-opacity:1;fill-rule:evenodd;stroke:none"
       d="m 619.8,404.16 184.92,0 0,33.84 -184.92,0 0,-33.84 z" /><path
       id="path456"
       style="fill:none;stroke:#ae5a21;stroke-width:0.95999998;stroke-linecap:butt;stroke-linejoin:miter;stroke-miterlimit:10;stroke-dasharray:none;stroke-opacity:1"
       d="m 619.8,404.16 184.92,0 0,33.84 -184.92,0 0,-33.84 z" /><g
       id="g458"><g
         clip-path="url(#clipPath462)"
         id="g460"><text
           id="text466"
           style="font-variant:normal;font-weight:bold;font-size:14.03999996px;font-family:Calibri;-inkscape-font-specification:Calibri-Bold;writing-mode:lr-tb;fill:#ffffff;fill-opacity:1;fill-rule:nonzero;stroke:none"
           transform="matrix(1,0,0,-1,700.51,416.33)"><tspan
             id="tspan468"
             y="0"
             x="0 8.5200396 16.07132">App</tspan></text>
</g></g><g
       id="g470"><g
         clip-path="url(#clipPath474)"
         id="g472"><path
           id="path478"
           style="fill:#70ad47;fill-opacity:1;fill-rule:evenodd;stroke:none"
           d="m 643.65,394.2 0,-19.14 8.19,0 -16.38,-16.38 -16.38,16.38 8.19,0 0,19.14 16.38,0 z" /></g></g><g
       id="g480"><g
         clip-path="url(#clipPath484)"
         id="g482"><path
           id="path488"
           style="fill:none;stroke:#507e32;stroke-width:0.95999998;stroke-linecap:butt;stroke-linejoin:miter;stroke-miterlimit:10;stroke-dasharray:none;stroke-opacity:1"
           d="m 643.65,394.2 0,-19.14 8.19,0 -16.38,-16.38 -16.38,16.38 8.19,0 0,19.14 16.38,0 z" /></g></g><g
       id="g490"><g
         clip-path="url(#clipPath494)"
         id="g492"><path
           id="path498"
           style="fill:#70ad47;fill-opacity:1;fill-rule:evenodd;stroke:none"
           d="m 764.97,396.12 0,-12.42 8.19,0 -16.38,-12.42 -16.38,12.42 8.19,0 0,12.42 16.38,0 z" /></g></g><g
       id="g500"><g
         clip-path="url(#clipPath504)"
         id="g502"><path
           id="path508"
           style="fill:none;stroke:#507e32;stroke-width:0.95999998;stroke-linecap:butt;stroke-linejoin:miter;stroke-miterlimit:10;stroke-dasharray:none;stroke-opacity:1"
           d="m 764.97,396.12 0,-12.42 8.19,0 -16.38,-12.42 -16.38,12.42 8.19,0 0,12.42 16.38,0 z" /></g></g><path
       id="path510"
       style="fill:none;stroke:#7f7f7f;stroke-width:0.95999998;stroke-linecap:butt;stroke-linejoin:miter;stroke-miterlimit:10;stroke-dasharray:none;stroke-opacity:1"
       d="m 151.92,68.64 718.8,0 0,414 -718.8,0 0,-414 z" /></g></svg>