<svg width="36" height="12" viewBox="0 0 36 12" version="1.1" xmlns="http://www.w3.org/2000/svg" xmlns:xlink="http://www.w3.org/1999/xlink" xmlns:figma="http://www.figma.com/figma/ns">
<title>SNAS</title>
<desc>Created using Figma</desc>
<g id="Canvas" transform="translate(207 179)" figma:type="canvas">
<g id="SNAS" style="mix-blend-mode:normal;" figma:type="text">
<use xlink:href="#path0_fill" transform="translate(-207 -181)" fill="#EC7710" style="mix-blend-mode:normal;"/>
</g>
</g>
<defs>
<path id="path0_fill" d="M 4.15723 8.56348C 3.03158 8.23991 2.21126 7.84342 1.69629 7.37402C 1.18587 6.90007 0.930664 6.31673 0.930664 5.62402C 0.930664 4.84017 1.24284 4.19303 1.86719 3.68262C 2.49609 3.16764 3.31185 2.91016 4.31445 2.91016C 4.99805 2.91016 5.60645 3.04232 6.13965 3.30664C 6.67741 3.57096 7.09212 3.93555 7.38379 4.40039C 7.68001 4.86523 7.82812 5.37337 7.82812 5.9248L 6.50879 5.9248C 6.50879 5.32324 6.31738 4.85156 5.93457 4.50977C 5.55176 4.16341 5.01172 3.99023 4.31445 3.99023C 3.66732 3.99023 3.16146 4.13379 2.79688 4.4209C 2.43685 4.70345 2.25684 5.09766 2.25684 5.60352C 2.25684 6.00911 2.42773 6.35319 2.76953 6.63574C 3.11589 6.91374 3.7015 7.16895 4.52637 7.40137C 5.35579 7.63379 6.00293 7.89128 6.46777 8.17383C 6.93717 8.45182 7.28353 8.77767 7.50684 9.15137C 7.7347 9.52507 7.84863 9.96484 7.84863 10.4707C 7.84863 11.2773 7.53418 11.9245 6.90527 12.4121C 6.27637 12.8952 5.43555 13.1367 4.38281 13.1367C 3.69922 13.1367 3.0612 13.0068 2.46875 12.7471C 1.8763 12.4827 1.41829 12.1227 1.09473 11.667C 0.775716 11.2113 0.616211 10.694 0.616211 10.1152L 1.93555 10.1152C 1.93555 10.7168 2.15658 11.193 2.59863 11.5439C 3.04525 11.8903 3.63997 12.0635 4.38281 12.0635C 5.07552 12.0635 5.60645 11.9222 5.97559 11.6396C 6.34473 11.3571 6.5293 10.972 6.5293 10.4844C 6.5293 9.99674 6.3584 9.62077 6.0166 9.35645C 5.6748 9.08757 5.05501 8.82324 4.15723 8.56348ZM 17.1865 13L 15.8672 13L 10.8564 5.33008L 10.8564 13L 9.53711 13L 9.53711 3.04688L 10.8564 3.04688L 15.8809 10.751L 15.8809 3.04688L 17.1865 3.04688L 17.1865 13ZM 25.1367 10.4023L 20.9668 10.4023L 20.0303 13L 18.6768 13L 22.4775 3.04688L 23.626 3.04688L 27.4336 13L 26.0869 13L 25.1367 10.4023ZM 21.3633 9.32227L 24.7471 9.32227L 23.0518 4.66699L 21.3633 9.32227ZM 31.7061 8.56348C 30.5804 8.23991 29.7601 7.84342 29.2451 7.37402C 28.7347 6.90007 28.4795 6.31673 28.4795 5.62402C 28.4795 4.84017 28.7917 4.19303 29.416 3.68262C 30.0449 3.16764 30.8607 2.91016 31.8633 2.91016C 32.5469 2.91016 33.1553 3.04232 33.6885 3.30664C 34.2262 3.57096 34.641 3.93555 34.9326 4.40039C 35.2288 4.86523 35.377 5.37337 35.377 5.9248L 34.0576 5.9248C 34.0576 5.32324 33.8662 4.85156 33.4834 4.50977C 33.1006 4.16341 32.5605 3.99023 31.8633 3.99023C 31.2161 3.99023 30.7103 4.13379 30.3457 4.4209C 29.9857 4.70345 29.8057 5.09766 29.8057 5.60352C 29.8057 6.00911 29.9766 6.35319 30.3184 6.63574C 30.6647 6.91374 31.2503 7.16895 32.0752 7.40137C 32.9046 7.63379 33.5518 7.89128 34.0166 8.17383C 34.486 8.45182 34.8324 8.77767 35.0557 9.15137C 35.2835 9.52507 35.3975 9.96484 35.3975 10.4707C 35.3975 11.2773 35.083 11.9245 34.4541 12.4121C 33.8252 12.8952 32.9844 13.1367 31.9316 13.1367C 31.248 13.1367 30.61 13.0068 30.0176 12.7471C 29.4251 12.4827 28.9671 12.1227 28.6436 11.667C 28.3245 11.2113 28.165 10.694 28.165 10.1152L 29.4844 10.1152C 29.4844 10.7168 29.7054 11.193 30.1475 11.5439C 30.5941 11.8903 31.1888 12.0635 31.9316 12.0635C 32.6243 12.0635 33.1553 11.9222 33.5244 11.6396C 33.8936 11.3571 34.0781 10.972 34.0781 10.4844C 34.0781 9.99674 33.9072 9.62077 33.5654 9.35645C 33.2236 9.08757 32.6038 8.82324 31.7061 8.56348Z"/>
</defs>
</svg>
