<?xml version="1.0" encoding="utf-8"?>
<!-- Generator: Adobe Illustrator 20.1.0, SVG Export Plug-In . SVG Version: 6.00 Build 0)  -->
<svg version="1.1" id="Layer_1" xmlns="http://www.w3.org/2000/svg" xmlns:xlink="http://www.w3.org/1999/xlink" x="0px" y="0px"
	 viewBox="0 0 800 576" style="enable-background:new 0 0 800 576;" xml:space="preserve">
<style type="text/css">
	.st0{fill:#FF4401;}
	.st1{fill:#3F95D1;}
</style>
<title>SNAS_logo_OrangeBlue</title>
<path class="st0" d="M304,255.5v2h-4v-2c0-17.2-17.8-30.7-39.4-30.7s-39.4,13.5-39.4,30.7c0,30.5,87.1,30.5,86.9,65.3
	c0,18.4-21.2,34.6-47.5,34.6c-26.9,0-47.5-16-47.5-34.6v-2h4v2c0,17,19.8,30.7,43.6,30.7c23.2,0,43.5-13.9,43.5-30.7
	c0-31.1-86.7-30.7-86.9-65.3c0-18.8,19-34.6,43.4-34.6S304,236.7,304,255.5z"/>
<path class="st0" d="M260.7,359.8c-28.6,0-51.9-17.5-51.9-39v-6.4h12.7v6.4c0,14.3,17.9,26.3,39.2,26.3c20.9,0,39.2-12.3,39.2-26.3
	c0-12.1-19.7-19.5-38.8-26.6c-23.6-8.8-48-17.9-48.1-38.7c0-21.6,21.4-39.1,47.7-39.1s47.7,17.5,47.7,39v6.4h-12.7v-6.4
	c0-14.5-15.7-26.3-35-26.3s-35,11.8-35,26.3c0,11.7,19.6,19,38.5,26.1c23.9,8.9,48.6,18.2,48.4,39.3S288.8,359.8,260.7,359.8z"/>
<path class="st1" d="M122.8,291.3c-2.2,0-4-1.8-4-4c0-78,63.5-141.5,141.5-141.5c2.2,0,4,1.8,4,4s-1.8,4-4,4
	c-73.6,0-133.4,59.8-133.4,133.4C126.9,289.5,125.2,291.3,122.8,291.3C122.9,291.3,122.9,291.3,122.8,291.3z"/>
<path class="st1" d="M49,291.3c-2.2,0-4-1.8-4-4C45,168.6,141.6,72,260.3,72c2.2,0,4,1.8,4,4s-1.8,4-4,4
	c-114.2,0-207.2,93-207.2,207.2c0,2.2-1.7,4-3.9,4.1C49.1,291.3,49.1,291.3,49,291.3z"/>
<path class="st1" d="M260.8,430.6c-2.2,0-4-1.8-4-4c0-2.2,1.8-4,4-4c37,0,72.4-15.4,97.7-42.5c1.5-1.6,4.1-1.7,5.7-0.2
	s1.7,4.1,0.2,5.7l0,0C337.6,414.3,300.1,430.6,260.8,430.6z"/>
<path class="st1" d="M260.8,504.5c-2.2,0-4-1.8-4-4c0-2.2,1.8-4,4-4c79.4,0,150.6-44.2,185.8-115.4c1-2,3.4-2.8,5.4-1.8
	c2,1,2.8,3.4,1.8,5.4C417.3,458.5,343.3,504.5,260.8,504.5z"/>
<path class="st0" d="M747.4,255.5v2h-4v-2c0-17.2-17.8-30.7-39.4-30.7s-39.4,13.5-39.4,30.7c0,30.5,87.1,30.5,86.9,65.3
	c0,18.4-21.2,34.6-47.5,34.6c-26.9,0-47.5-16-47.5-34.6v-2h4v2c0,17,19.8,30.7,43.5,30.7c23.2,0,43.5-13.9,43.5-30.7
	c0-31.1-86.7-30.7-86.9-65.3c0-18.8,19-34.6,43.3-34.6S747.4,236.7,747.4,255.5z"/>
<path class="st0" d="M704,359.8c-28.6,0-51.9-17.5-51.9-39v-6.4h12.7v6.4c0,14.3,17.9,26.3,39.2,26.3c20.9,0,39.2-12.3,39.2-26.3
	c0-12.1-19.7-19.5-38.8-26.6c-23.6-8.8-48-17.9-48.1-38.7c0-21.6,21.4-39.1,47.7-39.1s47.7,17.5,47.7,39v6.4H739v-6.4
	c0-14.5-15.7-26.3-35-26.3s-35,11.8-35,26.3c0,11.7,19.6,19,38.5,26.1c23.9,8.9,48.6,18.2,48.4,39.3S732.2,359.8,704,359.8z"/>
<path class="st0" d="M365.8,353.5v2h-4V222.8c0-1.1,1-2,2.1-1.9c0.6,0,1.1,0.3,1.5,0.7l91.3,125.7l0.2-124.5v-2h4v2l-0.2,130.7
	c0,1.1-1,2-2.1,1.9c-0.6,0-1.1-0.3-1.5-0.7L365.8,229V353.5z"/>
<path class="st0" d="M365.8,359.8h-4c-2.4,0-4.4-2-4.4-4.4c0,0,0,0,0,0V222.8c0.1-3.5,3-6.4,6.5-6.3c2,0,3.8,1,5,2.6l83.3,114.8
	l0.2-113c0-2.4,2-4.4,4.4-4.4c0,0,0,0,0,0h4c2.4,0,4.4,2,4.4,4.4c0,0,0,0,0,0L465,353.5c-0.1,3.5-3,6.3-6.6,6.3c-1.9,0-3.8-1-5-2.5
	l-83.3-114.8v113C370.2,357.9,368.3,359.8,365.8,359.8C365.9,359.8,365.8,359.8,365.8,359.8z M460.6,352L460.6,352z M361.9,224.2
	L361.9,224.2z"/>
<path class="st0" d="M521.5,354.1l-0.3,1.2h-3.5l0.9-2.8l45.6-130.6c0.2-0.8,1.1-1.2,1.8-1c0.5,0.1,0.8,0.5,1,1l45.6,130.6l0.9,2.8
	h-3.5l-0.3-1.2l-44.2-126.5L521.5,354.1z"/>
<path class="st0" d="M613.6,360h-3.5c-2.1,0-4-1.4-4.6-3.5l-0.3-1.2l-39.6-113.4l-39.9,114.5c-0.6,2.1-2.4,3.5-4.6,3.5h-3.5
	c-2.6,0-4.7-2.1-4.7-4.7c0-0.5,0.1-1,0.2-1.5l0.9-2.8l45.6-130.7c1.1-3.2,4.6-5,7.9-3.9c1.8,0.6,3.3,2.1,3.9,3.9l46.5,133.4
	c0.8,2.5-0.5,5.2-3,6C614.6,359.9,614.1,359.9,613.6,360L613.6,360z M562.6,223.4L562.6,223.4z M568.7,223.4L568.7,223.4z"/>
</svg>
