<?xml version="1.0" encoding="utf-8"?>
<!-- Generator: Adobe Illustrator 20.1.0, SVG Export Plug-In . SVG Version: 6.00 Build 0)  -->
<svg version="1.1" id="Layer_1" xmlns="http://www.w3.org/2000/svg" xmlns:xlink="http://www.w3.org/1999/xlink" x="0px" y="0px"
	 viewBox="0 0 576 576" style="enable-background:new 0 0 576 576;" xml:space="preserve">
<style type="text/css">
	.st0{fill:#FF4401;}
	.st1{fill:#3F95D1;}
</style>
<title>S_logo_OrangeBlue</title>
<path class="st0" d="M326.2,252.7v1.9h-3.9v-1.9c0-17-17.5-30.2-38.8-30.2s-38.8,13.2-38.8,30.2c0,30,85.8,30,85.6,64.3
	c0,18.1-20.9,34.1-46.8,34.1c-26.5,0-46.8-15.8-46.8-34.1v-2h3.9v1.9c0,16.8,19.5,30.2,42.9,30.2c22.8,0,42.9-13.6,42.9-30.2
	c0-30.6-85.4-30.2-85.6-64.3c0-18.5,18.7-34.1,42.7-34.1S326.2,234.2,326.2,252.7z"/>
<path class="st0" d="M283.5,355.4c-28.2,0-51.1-17.2-51.1-38.4v-6.3h12.5v6.2c0,14,17.7,25.9,38.6,25.9c20.5,0,38.5-12.1,38.5-25.9
	c0-11.9-19.4-19.1-38.2-26.2c-23.2-8.7-47.3-17.6-47.4-38.1c0-21.2,21.1-38.5,47-38.5s47,17.2,47,38.4v6.3H318v-6.3
	c0-14.3-15.5-25.9-34.5-25.9S249,238.4,249,252.7c0,11.5,19.3,18.7,37.9,25.7c23.5,8.8,47.8,17.9,47.7,38.7S311.2,355.4,283.5,355.4
	z"/>
<path class="st1" d="M148.7,288c-2.2,0-4-1.8-4-4c0-76.8,62.5-139.3,139.3-139.3c2.2,0,4,1.8,4,4s-1.8,4-4,4
	c-72.4,0-131.4,58.9-131.4,131.4C152.6,286.2,150.9,288,148.7,288z"/>
<path class="st1" d="M76,288c-2.2,0-4-1.8-4-4c0-116.9,95.1-212,212-212c2.2,0,4,1.8,4,4s-1.8,4-4,4C171.5,80,80,171.5,80,284
	C80,286.2,78.2,288,76,288z"/>
<path class="st1" d="M427.3,288c2.2,0,4,1.8,4,4c0,76.8-62.5,139.3-139.3,139.3c-2.2,0-4-1.8-4-4s1.8-4,4-4
	c72.4,0,131.4-58.9,131.4-131.4C423.4,289.8,425.1,288,427.3,288z"/>
<path class="st1" d="M500,288c2.2,0,4,1.8,4,4c0,116.9-95.1,212-212,212c-2.2,0-4-1.8-4-4s1.8-4,4-4c112.5,0,204-91.5,204-204
	C496,289.8,497.8,288,500,288z"/>
</svg>
