<svg id="Layer_1" data-name="Layer 1" xmlns="http://www.w3.org/2000/svg" viewBox="0 0 576 576"><defs><style>.cls-1{fill:#414042;}.cls-2{fill:#bcbec0;}</style></defs><title>S_logo_GrayLight</title><path class="cls-1" d="M326.16,252.68v1.95h-3.9v-1.95c0-17-17.55-30.22-38.79-30.22s-38.8,13.25-38.8,30.22c0,30,85.78,30,85.58,64.33,0,18.13-20.85,34.12-46.78,34.12-26.52,0-46.79-15.79-46.79-34.12v-1.95h3.9V317c0,16.77,19.49,30.22,42.89,30.22,22.81,0,42.88-13.64,42.88-30.22,0-30.6-85.38-30.21-85.58-64.33,0-18.52,18.71-34.12,42.7-34.12S326.16,234.16,326.16,252.68Z"/><path class="cls-1" d="M283.48,355.44c-28.18,0-51.11-17.24-51.11-38.43v-6.26H244.9V317c0,14,17.66,25.9,38.57,25.9C304,342.9,322,330.8,322,317c0-11.9-19.42-19.15-38.2-26.17-23.23-8.68-47.26-17.65-47.37-38.14,0-21.22,21.09-38.46,47-38.46s47,17.24,47,38.43v6.26H318v-6.26c0-14.29-15.47-25.9-34.48-25.9S249,238.39,249,252.68c0,11.5,19.26,18.72,37.88,25.69,23.51,8.81,47.82,17.91,47.69,38.66S311.17,355.44,283.48,355.44Z"/><path class="cls-2" d="M148.67,288a4,4,0,0,1-4-4c0-76.83,62.51-139.33,139.33-139.33a4,4,0,1,1,0,8c-72.43,0-131.36,58.93-131.36,131.37A4,4,0,0,1,148.67,288Z"/><path class="cls-2" d="M76,288a4,4,0,0,1-4-4C72,167.11,167.11,72,284,72a4,4,0,1,1,0,8C171.5,80,80,171.5,80,284A4,4,0,0,1,76,288Z"/><path class="cls-2" d="M427.33,288a4,4,0,0,1,4,4c0,76.83-62.51,139.33-139.33,139.33a4,4,0,1,1,0-8c72.43,0,131.36-58.93,131.36-131.37A4,4,0,0,1,427.33,288Z"/><path class="cls-2" d="M500,288a4,4,0,0,1,4,4c0,116.91-95.11,212-212,212a4,4,0,1,1,0-8C404.5,496,496,404.5,496,292A4,4,0,0,1,500,288Z"/></svg>