<svg id="Layer_1" data-name="Layer 1" xmlns="http://www.w3.org/2000/svg" viewBox="0 0 32 32"><defs><style>.cls-1{fill:#414042;}.cls-2{fill:#bcbec0;}</style></defs><title>S_logo_GrayLight</title><path class="cls-1" d="M18.83,13.38v.14h-.29v-.14c0-1.26-1.3-2.24-2.87-2.24s-2.87,1-2.87,2.24c0,2.22,6.35,2.22,6.34,4.76,0,1.34-1.54,2.53-3.46,2.53S12.2,19.5,12.2,18.15V18h.29v.14c0,1.24,1.44,2.24,3.18,2.24s3.18-1,3.18-2.24c0-2.27-6.32-2.24-6.34-4.76,0-1.37,1.39-2.53,3.16-2.53S18.83,12,18.83,13.38Z"/><path class="cls-1" d="M15.67,21c-2.09,0-3.79-1.28-3.79-2.85v-.46h.93v.46c0,1,1.31,1.92,2.86,1.92s2.86-.9,2.86-1.92-1.44-1.42-2.83-1.94c-1.72-.64-3.5-1.31-3.51-2.82s1.56-2.85,3.48-2.85,3.48,1.28,3.48,2.85v.46h-.93v-.46c0-1.06-1.15-1.92-2.55-1.92s-2.55.86-2.55,1.92c0,.85,1.43,1.39,2.81,1.9,1.74.65,3.54,1.33,3.53,2.86S17.72,21,15.67,21Z"/><path class="cls-2" d="M5.68,16a.3.3,0,0,1-.3-.29A10.33,10.33,0,0,1,15.71,5.38a.29.29,0,1,1,0,.59A9.74,9.74,0,0,0,6,15.7.3.3,0,0,1,5.68,16Z"/><path class="cls-2" d="M.3,16A.3.3,0,0,1,0,15.7,15.72,15.72,0,0,1,15.71,0a.29.29,0,1,1,0,.59A15.13,15.13,0,0,0,.59,15.7.3.3,0,0,1,.3,16Z"/><path class="cls-2" d="M26.32,16a.3.3,0,0,1,.3.29A10.33,10.33,0,0,1,16.3,26.61a.29.29,0,1,1,0-.59A9.74,9.74,0,0,0,26,16.29.3.3,0,0,1,26.32,16Z"/><path class="cls-2" d="M31.7,16a.3.3,0,0,1,.3.29A15.72,15.72,0,0,1,16.3,32a.29.29,0,1,1,0-.59A15.13,15.13,0,0,0,31.41,16.29.3.3,0,0,1,31.7,16Z"/></svg>