<?xml version="1.0" encoding="utf-8"?>
<!-- Generator: Adobe Illustrator 20.1.0, SVG Export Plug-In . SVG Version: 6.00 Build 0)  -->
<svg version="1.1" id="Layer_1" xmlns="http://www.w3.org/2000/svg" xmlns:xlink="http://www.w3.org/1999/xlink" x="0px" y="0px"
	 viewBox="0 0 32 32" style="enable-background:new 0 0 32 32;" xml:space="preserve">
<style type="text/css">
	.st0{fill:#FF7302;}
	.st1{fill:#FF4401;}
	.st2{fill:#95D0E5;}
</style>
<title>S_logo_OrangeBlueLight</title>
<path class="st0" d="M18.8,13.4v0.1h-0.3v-0.1c0-1.3-1.3-2.2-2.9-2.2s-2.9,1-2.9,2.2c0,2.2,6.4,2.2,6.3,4.8c0,1.3-1.5,2.5-3.5,2.5
	s-3.5-1.2-3.5-2.5V18h0.3v0.1c0,1.2,1.4,2.2,3.2,2.2s3.2-1,3.2-2.2c0-2.3-6.3-2.2-6.3-4.8c0-1.4,1.4-2.5,3.2-2.5S18.8,12,18.8,13.4z
	"/>
<path class="st1" d="M15.7,21c-2.1,0-3.8-1.3-3.8-2.9v-0.5h0.9v0.5c0,1,1.3,1.9,2.9,1.9s2.9-0.9,2.9-1.9s-1.4-1.4-2.8-1.9
	c-1.7-0.6-3.5-1.3-3.5-2.8s1.6-2.9,3.5-2.9s3.5,1.3,3.5,2.9v0.5h-0.9v-0.5c0-1.1-1.1-1.9-2.6-1.9s-2.6,0.9-2.6,1.9
	c0,0.9,1.4,1.4,2.8,1.9c1.7,0.6,3.5,1.3,3.5,2.9S17.7,21,15.7,21z"/>
<path class="st2" d="M5.7,16c-0.2,0-0.3-0.1-0.3-0.3C5.4,10,10,5.4,15.7,5.4l0,0c0.2,0,0.3,0.1,0.3,0.3C16,5.8,15.9,6,15.7,6
	C10.3,6,6,10.3,6,15.7C6,15.9,5.9,16,5.7,16C5.7,16,5.7,16,5.7,16z"/>
<path class="st2" d="M0.3,16C0.1,16,0,15.9,0,15.7c0,0,0,0,0,0C0,7,7,0,15.7,0C15.9,0,16,0.1,16,0.3s-0.1,0.3-0.3,0.3
	C7.4,0.6,0.6,7.4,0.6,15.7C0.6,15.9,0.5,16,0.3,16z"/>
<path class="st2" d="M26.3,16c0.2,0,0.3,0.1,0.3,0.3c0,5.7-4.6,10.3-10.3,10.3c-0.2,0-0.3-0.1-0.3-0.3s0.1-0.3,0.3-0.3
	c5.4,0,9.7-4.4,9.7-9.7C26,16.1,26.1,16,26.3,16C26.3,16,26.3,16,26.3,16z"/>
<path class="st2" d="M31.7,16c0.2,0,0.3,0.1,0.3,0.3C32,25,25,32,16.3,32c-0.2,0-0.3-0.1-0.3-0.3s0.1-0.3,0.3-0.3
	c8.3,0,15.1-6.8,15.1-15.1C31.4,16.1,31.5,16,31.7,16z"/>
</svg>
