<?xml version="1.0" encoding="utf-8"?>
<!-- Generator: Adobe Illustrator 20.1.0, SVG Export Plug-In . SVG Version: 6.00 Build 0)  -->
<svg version="1.1" id="Layer_1" xmlns="http://www.w3.org/2000/svg" xmlns:xlink="http://www.w3.org/1999/xlink" x="0px" y="0px"
	 viewBox="0 0 300 300" style="enable-background:new 0 0 300 300;" xml:space="preserve">
<style type="text/css">
	.st0{fill:#FF4401;}
	.st1{fill:#95D0E5;}
</style>
<path class="st0" d="M85.6,176.7v0.7h-1.3v-0.7c0-5.7-5.9-10.1-13-10.1s-13,4.5-13,10.1c0,10.1,28.8,10.1,28.7,21.6
	c0,6.1-7,11.4-15.7,11.4c-8.9,0-15.7-5.3-15.7-11.4v-0.7h1.3v0.7c0,5.6,6.5,10.1,14.4,10.1c7.7,0,14.4-4.6,14.4-10.1
	c0-10.3-28.6-10.1-28.7-21.6c0-6.2,6.3-11.4,14.3-11.4S85.6,170.5,85.6,176.7z"/>
<path class="st0" d="M71.3,211.2c-9.4,0-17.1-5.8-17.1-12.9v-2.1h4.2v2.1c0,4.7,5.9,8.7,13,8.7c6.9,0,13-4.1,13-8.7
	c0-4-6.5-6.4-12.8-8.8c-7.8-2.9-15.9-5.9-15.9-12.8c0-7.1,7.1-12.9,15.8-12.9S87,169.6,87,176.7v2.1h-4.2v-2.1
	c0-4.8-5.2-8.7-11.6-8.7c-6.4,0-11.6,3.9-11.6,8.7c0,3.9,6.5,6.3,12.7,8.6c7.9,2.9,16.1,6,16,13C88.3,205.3,80.5,211.2,71.3,211.2z"
	/>
<path class="st1" d="M25.7,188.6c-0.7,0-1.3-0.6-1.3-1.3c0-25.8,21-46.7,46.7-46.7c0.7,0,1.3,0.6,1.3,1.3s-0.6,1.3-1.3,1.3
	c-24.3,0-44.1,19.8-44.1,44.1C27.1,188,26.5,188.6,25.7,188.6C25.7,188.6,25.7,188.6,25.7,188.6z"/>
<path class="st1" d="M1.3,188.6c-0.7,0-1.3-0.6-1.3-1.3c0-39.2,31.9-71.1,71.1-71.1c0.7,0,1.3,0.6,1.3,1.3s-0.6,1.3-1.3,1.3
	c-37.7,0-68.5,30.7-68.5,68.5C2.7,187.9,2.1,188.5,1.3,188.6C1.4,188.6,1.4,188.6,1.3,188.6z"/>
<path class="st1" d="M71.3,234.6c-0.7,0-1.3-0.6-1.3-1.3c0-0.7,0.6-1.3,1.3-1.3c12.2,0,23.9-5.1,32.3-14c0.5-0.5,1.4-0.6,1.9-0.1
	c0.5,0.5,0.6,1.4,0.1,1.9l0,0C96.7,229.2,84.3,234.6,71.3,234.6z"/>
<path class="st1" d="M71.3,259c-0.7,0-1.3-0.6-1.3-1.3c0-0.7,0.6-1.3,1.3-1.3c26.2,0,49.8-14.6,61.4-38.1c0.3-0.7,1.1-0.9,1.8-0.6
	c0.7,0.3,0.9,1.1,0.6,1.8C123,243.8,98.5,259,71.3,259z"/>
<path class="st0" d="M232,176.7v0.7h-1.3v-0.7c0-5.7-5.9-10.1-13-10.1s-13,4.5-13,10.1c0,10.1,28.8,10.1,28.7,21.6
	c0,6.1-7,11.4-15.7,11.4c-8.9,0-15.7-5.3-15.7-11.4v-0.7h1.3v0.7c0,5.6,6.5,10.1,14.4,10.1c7.7,0,14.4-4.6,14.4-10.1
	c0-10.3-28.6-10.1-28.7-21.6c0-6.2,6.3-11.4,14.3-11.4S232,170.5,232,176.7z"/>
<path class="st0" d="M217.7,211.2c-9.4,0-17.1-5.8-17.1-12.9v-2.1h4.2v2.1c0,4.7,5.9,8.7,13,8.7c6.9,0,13-4.1,13-8.7
	c0-4-6.5-6.4-12.8-8.8c-7.8-2.9-15.9-5.9-15.9-12.8c0-7.1,7.1-12.9,15.8-12.9s15.8,5.8,15.8,12.9v2.1h-4.2v-2.1
	c0-4.8-5.2-8.7-11.6-8.7s-11.6,3.9-11.6,8.7c0,3.9,6.5,6.3,12.7,8.6c7.9,2.9,16.1,6,16,13C234.8,205.3,227,211.2,217.7,211.2z"/>
<path class="st0" d="M106,209.1v0.7h-1.3v-43.8c0-0.4,0.3-0.7,0.7-0.6c0.2,0,0.4,0.1,0.5,0.2l30.2,41.5l0.1-41.1v-0.7h1.3v0.7
	l-0.1,43.2c0,0.4-0.3,0.7-0.7,0.6c-0.2,0-0.4-0.1-0.5-0.2L106,168V209.1z"/>
<path class="st0" d="M106,211.2h-1.3c-0.8,0-1.5-0.7-1.5-1.5l0,0v-43.8c0-1.2,1-2.1,2.1-2.1c0.7,0,1.3,0.3,1.7,0.9l27.5,37.9
	l0.1-37.3c0-0.8,0.7-1.5,1.5-1.5l0,0h1.3c0.8,0,1.5,0.7,1.5,1.5l0,0l-0.1,43.8c0,1.2-1,2.1-2.2,2.1c-0.6,0-1.3-0.3-1.7-0.8
	l-27.5-37.9v37.3C107.4,210.6,106.8,211.2,106,211.2C106,211.2,106,211.2,106,211.2z M137.3,208.6L137.3,208.6z M104.7,166.4
	L104.7,166.4z"/>
<path class="st0" d="M157.4,209.3l-0.1,0.4h-1.2l0.3-0.9l15.1-43.1c0.1-0.3,0.4-0.4,0.6-0.3c0.2,0,0.3,0.2,0.3,0.3l15.1,43.1
	l0.3,0.9h-1.2l-0.1-0.4L172,167.5L157.4,209.3z"/>
<path class="st0" d="M187.8,211.3h-1.2c-0.7,0-1.3-0.5-1.5-1.2l-0.1-0.4L172,172.3l-13.2,37.8c-0.2,0.7-0.8,1.2-1.5,1.2h-1.2
	c-0.9,0-1.6-0.7-1.6-1.6c0-0.2,0-0.3,0.1-0.5l0.3-0.9l15.1-43.2c0.4-1.1,1.5-1.7,2.6-1.3c0.6,0.2,1.1,0.7,1.3,1.3l15.4,44.1
	c0.3,0.8-0.2,1.7-1,2C188.2,211.2,188,211.2,187.8,211.3L187.8,211.3z M171,166.1L171,166.1z M173,166.1L173,166.1z"/>
<g>
	<g>
		<path class="st0" d="M258.4,185.4V185h1.4v0.4v24.2v0.4h-1.4v-0.4V185.4z"/>
		<rect x="256.9" y="184.1" class="st0" width="4.5" height="26.7"/>
	</g>
</g>
<g>
	<g>
		<g>
			<g>
				<path class="st0" d="M273.7,196.1c0-7.5,5.6-13.5,12.3-13.5s12.3,6,12.3,13.5c0,7.5-5.5,13.5-12.3,13.5
					C279.2,209.6,273.7,203.6,273.7,196.1z M274.5,196.1c0,7,5.2,12.7,11.5,12.7c6.3,0,11.5-5.7,11.5-12.7c0-7-5.1-12.7-11.5-12.7
					C279.6,183.4,274.5,189,274.5,196.1z"/>
				<path class="st0" d="M285.9,210.4c-7.2,0-13.1-6.4-13.1-14.3c0-7.9,5.9-14.3,13.1-14.3s13.1,6.4,13.1,14.3
					C299,204,293.2,210.4,285.9,210.4z M285.9,184.1c-5.9,0-10.6,5.4-10.6,11.9c0,6.6,4.8,11.9,10.6,11.9s10.6-5.4,10.6-11.9
					C296.6,189.5,291.8,184.1,285.9,184.1z"/>
			</g>
			<g>
				<path class="st0" d="M285.9,209.6c-6.8,0-12.4-6.1-12.4-13.6c0-7.5,5.6-13.6,12.4-13.6s12.4,6.1,12.4,13.6
					C298.3,203.6,292.8,209.6,285.9,209.6z M285.9,182.6c-6.7,0-12.2,6-12.2,13.4c0,7.4,5.5,13.4,12.2,13.4c6.7,0,12.2-6,12.2-13.4
					C298.1,188.6,292.7,182.6,285.9,182.6z M285.9,208.9c-6.4,0-11.5-5.7-11.5-12.8c0-7.1,5.2-12.8,11.5-12.8
					c6.4,0,11.5,5.7,11.5,12.8C297.5,203.1,292.3,208.9,285.9,208.9z M285.9,183.4c-6.3,0-11.4,5.7-11.4,12.7s5.1,12.7,11.4,12.7
					s11.4-5.7,11.4-12.7C297.3,189.1,292.2,183.4,285.9,183.4z"/>
				<path class="st0" d="M285.9,210.4c-7.3,0-13.2-6.4-13.2-14.4c0-7.9,5.9-14.4,13.2-14.4s13.2,6.4,13.2,14.4
					C299.1,204,293.2,210.4,285.9,210.4z M285.9,184.2c-5.8,0-10.6,5.3-10.6,11.9s4.7,11.9,10.6,11.9c5.8,0,10.6-5.3,10.6-11.9
					S291.8,184.2,285.9,184.2z"/>
			</g>
		</g>
		<g>
			<g>
				<path class="st0" d="M285.9,210.5c-7.3,0-13.2-6.5-13.2-14.4c0-7.9,5.9-14.4,13.2-14.4s13.2,6.4,13.2,14.4
					C299.1,204,293.2,210.5,285.9,210.5z M285.9,184.2c-5.8,0-10.6,5.3-10.6,11.8c0,6.5,4.7,11.8,10.6,11.8
					c5.8,0,10.5-5.3,10.5-11.8C296.5,189.5,291.8,184.2,285.9,184.2z"/>
				<path class="st0" d="M285.9,211.3c-7.7,0-14-6.8-14-15.2c0-8.4,6.3-15.2,14-15.2s14,6.8,14,15.2
					C300,204.4,293.7,211.3,285.9,211.3z M285.9,182.5c-6.8,0-12.4,6.1-12.4,13.6c0,7.5,5.6,13.6,12.4,13.6s12.4-6.1,12.4-13.6
					C298.3,188.6,292.8,182.5,285.9,182.5z M285.9,208.7c-6.3,0-11.4-5.7-11.4-12.7c0-7,5.1-12.7,11.4-12.7s11.4,5.7,11.4,12.7
					C297.3,203,292.2,208.7,285.9,208.7z M285.9,185c-5.4,0-9.7,5-9.7,11c0,6.1,4.4,11,9.7,11c5.4,0,9.7-5,9.7-11
					C295.6,190,291.3,185,285.9,185z"/>
			</g>
			<g>
				<path class="st0" d="M285.9,210.5c-7.3,0-13.3-6.5-13.3-14.5c0-8,5.9-14.5,13.3-14.5c7.3,0,13.2,6.5,13.2,14.5
					C299.2,204,293.3,210.5,285.9,210.5z M285.9,181.7c-7.2,0-13.1,6.4-13.1,14.3c0,7.9,5.9,14.3,13.1,14.3S299,204,299,196.1
					C299,188.2,293.2,181.7,285.9,181.7z M285.9,208c-5.8,0-10.6-5.4-10.6-11.9c0-6.6,4.8-11.9,10.6-11.9c5.8,0,10.6,5.4,10.6,11.9
					C296.6,202.6,291.8,208,285.9,208z M285.9,184.3c-5.8,0-10.5,5.3-10.5,11.8c0,6.5,4.7,11.8,10.5,11.8s10.5-5.3,10.5-11.8
					C296.4,189.6,291.7,184.3,285.9,184.3z"/>
				<path class="st0" d="M285.9,211.3c-7.8,0-14.1-6.8-14.1-15.3s6.3-15.3,14.1-15.3c7.8,0,14.1,6.8,14.1,15.3
					C300,204.5,293.7,211.3,285.9,211.3z M285.9,182.6c-6.8,0-12.3,6.1-12.3,13.5c0,7.5,5.5,13.5,12.3,13.5s12.3-6.1,12.3-13.5
					C298.2,188.6,292.7,182.6,285.9,182.6z M285.9,208.8c-6.3,0-11.5-5.7-11.5-12.7c0-7,5.2-12.7,11.5-12.7s11.5,5.7,11.5,12.7
					C297.4,203.1,292.3,208.8,285.9,208.8z M285.9,185.1c-5.3,0-9.6,4.9-9.6,11c0,6,4.3,11,9.6,11c5.3,0,9.6-4.9,9.6-11
					C295.6,190,291.2,185.1,285.9,185.1z"/>
			</g>
		</g>
	</g>
</g>
<circle class="st0" cx="245.9" cy="208.6" r="3.2"/>
<circle class="st0" cx="259.1" cy="178.1" r="3.1"/>
</svg>
