<?xml version="1.0" encoding="utf-8"?>
<!-- Generator: Adobe Illustrator 20.1.0, SVG Export Plug-In . SVG Version: 6.00 Build 0)  -->
<svg version="1.1" id="Layer_1" xmlns="http://www.w3.org/2000/svg" xmlns:xlink="http://www.w3.org/1999/xlink" x="0px" y="0px"
	 viewBox="0 0 300 300" style="enable-background:new 0 0 300 300;" xml:space="preserve">
<path d="M85.7,147.3v0.7h-1.3v-0.7c0-5.7-5.9-10.2-13-10.2c-7.1,0-13,4.5-13,10.2c0,10.1,28.8,10.1,28.7,21.6
	c0,6.1-7,11.5-15.7,11.5c-8.9,0-15.7-5.3-15.7-11.5v-0.7h1.3v0.7c0,5.6,6.5,10.1,14.4,10.1c7.7,0,14.4-4.6,14.4-10.1
	c0-10.3-28.7-10.1-28.7-21.6c0-6.2,6.3-11.5,14.3-11.5S85.7,141.1,85.7,147.3z"/>
<path d="M71.3,181.8c-9.5,0-17.2-5.8-17.2-12.9v-2.1h4.2v2.1c0,4.7,5.9,8.7,13,8.7c6.9,0,13-4.1,13-8.7c0-4-6.5-6.4-12.8-8.8
	c-7.8-2.9-15.9-5.9-15.9-12.8c0-7.1,7.1-12.9,15.8-12.9s15.8,5.8,15.8,12.9v2.1h-4.2v-2.1c0-4.8-5.2-8.7-11.6-8.7
	s-11.6,3.9-11.6,8.7c0,3.9,6.5,6.3,12.7,8.6c7.9,3,16.1,6,16,13C88.5,175.9,80.7,181.8,71.3,181.8z"/>
<path d="M25.8,159.2c-0.7,0-1.3-0.6-1.3-1.3c0-25.8,21-46.8,46.8-46.8c0.7,0,1.3,0.6,1.3,1.3s-0.6,1.3-1.3,1.3
	c-24.3,0-44.1,19.8-44.1,44.1C27.1,158.6,26.5,159.2,25.8,159.2C25.8,159.2,25.8,159.2,25.8,159.2z"/>
<path d="M1.3,159.2c-0.7,0-1.3-0.6-1.3-1.3c0-39.3,31.9-71.2,71.2-71.2c0.7,0,1.3,0.6,1.3,1.3c0,0.7-0.6,1.3-1.3,1.3
	c-37.8,0-68.5,30.8-68.5,68.5C2.7,158.6,2.1,159.2,1.3,159.2C1.4,159.2,1.3,159.2,1.3,159.2z"/>
<path d="M71.4,205.3c-0.7,0-1.3-0.6-1.3-1.3c0-0.7,0.6-1.3,1.3-1.3c12.3,0,24-5.1,32.3-14.1c0.5-0.5,1.4-0.6,1.9-0.1
	c0.5,0.5,0.6,1.4,0.1,1.9l0,0C96.8,199.9,84.4,205.3,71.4,205.3z"/>
<path d="M71.4,229.7c-0.7,0-1.3-0.6-1.3-1.3c0-0.7,0.6-1.3,1.3-1.3c26.3,0,49.8-14.6,61.5-38.2c0.3-0.7,1.1-0.9,1.8-0.6
	s0.9,1.1,0.6,1.8C123.2,214.5,98.7,229.7,71.4,229.7z"/>
<path d="M232.4,147.3v0.7H231v-0.7c0-5.7-5.9-10.2-13-10.2s-13,4.5-13,10.2c0,10.1,28.8,10.1,28.8,21.6c0,6.1-7,11.5-15.7,11.5
	c-8.9,0-15.7-5.3-15.7-11.5v-0.7h1.3v0.7c0,5.6,6.5,10.1,14.4,10.1c7.7,0,14.4-4.6,14.4-10.1c0-10.3-28.7-10.1-28.7-21.6
	c0-6.2,6.3-11.5,14.3-11.5C226.1,135.9,232.4,141.1,232.4,147.3z"/>
<path d="M218,181.8c-9.5,0-17.2-5.8-17.2-12.9v-2.1h4.2v2.1c0,4.7,5.9,8.7,13,8.7c6.9,0,13-4.1,13-8.7c0-4-6.5-6.4-12.8-8.8
	c-7.8-2.9-15.9-5.9-15.9-12.8c0-7.1,7.1-12.9,15.8-12.9c8.7,0,15.8,5.8,15.8,12.9v2.1h-4.2v-2.1c0-4.8-5.2-8.7-11.6-8.7
	s-11.6,3.9-11.6,8.7c0,3.9,6.5,6.3,12.7,8.6c7.9,3,16.1,6,16,13C235.1,175.9,227.3,181.8,218,181.8z"/>
<path d="M106.1,179.7v0.7h-1.3v-43.9c0-0.4,0.3-0.7,0.7-0.6c0.2,0,0.4,0.1,0.5,0.2l30.2,41.6l0.1-41.2v-0.7h1.3v0.7l-0.1,43.2
	c0,0.4-0.3,0.7-0.7,0.6c-0.2,0-0.4-0.1-0.5-0.2l-30.2-41.6V179.7z"/>
<path d="M106.1,181.8h-1.3c-0.8,0-1.4-0.6-1.4-1.4c0,0,0,0,0,0v-43.9c0-1.2,1-2.1,2.2-2.1c0.7,0,1.3,0.3,1.7,0.8l27.6,38l0.1-37.4
	c0-0.8,0.6-1.4,1.4-1.4c0,0,0,0,0,0h1.3c0.8,0,1.5,0.6,1.5,1.4c0,0,0,0,0,0l-0.1,43.9c0,1.2-1,2.1-2.2,2.1c-0.6,0-1.2-0.3-1.6-0.8
	l-27.5-38v37.4C107.6,181.2,106.9,181.8,106.1,181.8C106.1,181.8,106.1,181.8,106.1,181.8z M137.5,179.3L137.5,179.3z M104.8,137
	L104.8,137z"/>
<path d="M157.6,179.9l-0.1,0.4h-1.1l0.3-0.9l15.1-43.2c0.1-0.3,0.4-0.4,0.6-0.3c0.2,0,0.3,0.2,0.3,0.3l15.1,43.2l0.3,0.9H187
	l-0.1-0.4l-14.6-41.8L157.6,179.9z"/>
<path d="M188.1,181.9H187c-0.7,0-1.3-0.5-1.5-1.2l-0.1-0.4l-13.1-37.5L159,180.7c-0.2,0.7-0.8,1.2-1.5,1.2h-1.1
	c-0.9,0-1.6-0.7-1.6-1.6c0-0.2,0-0.3,0.1-0.5l0.3-0.9l15.1-43.2c0.4-1.1,1.5-1.7,2.6-1.3c0.6,0.2,1.1,0.7,1.3,1.3l15.4,44.1
	c0.3,0.8-0.2,1.7-1,2C188.4,181.9,188.3,181.9,188.1,181.9L188.1,181.9z M171.2,136.7L171.2,136.7z M173.2,136.7L173.2,136.7z"/>
<g>
	<g>
		<path d="M258.8,156v-0.4h1.4v0.4v24.3v0.4h-1.4v-0.4V156z"/>
		<rect x="257.2" y="154.7" width="4.5" height="26.7"/>
	</g>
</g>
<g>
	<g>
		<g>
			<g>
				<path d="M274,166.7c0-7.5,5.6-13.5,12.3-13.5s12.3,6,12.3,13.5c0,7.5-5.5,13.5-12.3,13.5C279.6,180.2,274,174.2,274,166.7z
					 M274.8,166.7c0,7,5.2,12.7,11.5,12.7c6.4,0,11.5-5.7,11.5-12.7c0-7-5.1-12.7-11.5-12.7C280,153.9,274.8,159.6,274.8,166.7z"/>
				<path d="M286.3,181c-7.2,0-13.1-6.4-13.1-14.3c0-7.9,5.9-14.3,13.1-14.3c7.2,0,13.1,6.4,13.1,14.3
					C299.4,174.6,293.6,181,286.3,181z M286.3,154.7c-5.9,0-10.7,5.4-10.7,11.9c0,6.6,4.8,11.9,10.7,11.9c5.9,0,10.7-5.4,10.7-11.9
					C297,160.1,292.2,154.7,286.3,154.7z"/>
			</g>
			<g>
				<path d="M286.3,180.3c-6.8,0-12.4-6.1-12.4-13.6c0-7.5,5.6-13.6,12.4-13.6c6.8,0,12.4,6.1,12.4,13.6
					C298.7,174.2,293.2,180.3,286.3,180.3z M286.3,153.2c-6.7,0-12.2,6.1-12.2,13.5s5.5,13.5,12.2,13.5c6.7,0,12.2-6.1,12.2-13.5
					C298.6,159.2,293.1,153.2,286.3,153.2z M286.3,179.5c-6.4,0-11.5-5.8-11.5-12.8c0-7.1,5.2-12.8,11.5-12.8
					c6.4,0,11.5,5.8,11.5,12.8C297.9,173.7,292.7,179.5,286.3,179.5z M286.3,154c-6.3,0-11.4,5.7-11.4,12.7c0,7,5.1,12.7,11.4,12.7
					c6.3,0,11.4-5.7,11.4-12.7S292.6,154,286.3,154z"/>
				<path d="M286.3,181.1c-7.3,0-13.2-6.5-13.2-14.4c0-7.9,5.9-14.4,13.2-14.4c7.3,0,13.2,6.5,13.2,14.4S293.6,181.1,286.3,181.1z
					 M286.3,154.8c-5.8,0-10.6,5.3-10.6,11.9c0,6.6,4.7,11.9,10.6,11.9c5.8,0,10.6-5.3,10.6-11.9
					C296.9,160.1,292.2,154.8,286.3,154.8z"/>
			</g>
		</g>
		<g>
			<g>
				<path d="M286.3,181.1c-7.3,0-13.2-6.5-13.2-14.4c0-7.9,5.9-14.4,13.2-14.4c7.3,0,13.2,6.5,13.2,14.4
					C299.5,174.6,293.6,181.1,286.3,181.1z M286.3,154.8c-5.8,0-10.6,5.3-10.6,11.8c0,6.6,4.7,11.8,10.6,11.8
					c5.8,0,10.6-5.3,10.6-11.8C296.9,160.1,292.2,154.8,286.3,154.8z"/>
				<path d="M286.3,181.9c-7.7,0-14-6.8-14-15.2c0-8.4,6.3-15.2,14-15.2c7.7,0,14,6.8,14,15.2C300.4,175.1,294.1,181.9,286.3,181.9z
					 M286.3,153.1c-6.8,0-12.4,6.1-12.4,13.6c0,7.5,5.6,13.6,12.4,13.6c6.8,0,12.4-6.1,12.4-13.6
					C298.7,159.2,293.2,153.1,286.3,153.1z M286.3,179.3c-6.3,0-11.4-5.7-11.4-12.7c0-7,5.1-12.7,11.4-12.7
					c6.3,0,11.4,5.7,11.4,12.7C297.7,173.7,292.6,179.3,286.3,179.3z M286.3,155.6c-5.4,0-9.8,5-9.8,11s4.4,11,9.8,11
					c5.4,0,9.7-5,9.7-11S291.7,155.6,286.3,155.6z"/>
			</g>
			<g>
				<path d="M286.3,181.2c-7.3,0-13.3-6.5-13.3-14.5c0-8,6-14.5,13.3-14.5c7.3,0,13.3,6.5,13.3,14.5
					C299.6,174.7,293.7,181.2,286.3,181.2z M286.3,152.3c-7.2,0-13.1,6.4-13.1,14.4c0,7.9,5.9,14.4,13.1,14.4
					c7.2,0,13.1-6.4,13.1-14.4C299.4,158.8,293.6,152.3,286.3,152.3z M286.3,178.6c-5.9,0-10.7-5.4-10.7-11.9s4.8-11.9,10.7-11.9
					c5.9,0,10.7,5.4,10.7,11.9C297,173.3,292.2,178.6,286.3,178.6z M286.3,154.9c-5.8,0-10.5,5.3-10.5,11.8
					c0,6.5,4.7,11.8,10.5,11.8c5.8,0,10.5-5.3,10.5-11.8C296.8,160.2,292.1,154.9,286.3,154.9z"/>
				<path d="M286.3,182c-7.8,0-14.1-6.8-14.1-15.3c0-8.4,6.3-15.3,14.1-15.3c7.8,0,14.1,6.8,14.1,15.3
					C300.4,175.1,294.1,182,286.3,182z M286.3,153.2c-6.8,0-12.3,6.1-12.3,13.5c0,7.5,5.5,13.5,12.3,13.5c6.8,0,12.3-6.1,12.3-13.5
					C298.6,159.2,293.1,153.2,286.3,153.2z M286.3,179.4c-6.3,0-11.5-5.7-11.5-12.7c0-7,5.2-12.7,11.5-12.7
					c6.3,0,11.5,5.7,11.5,12.7C297.8,173.7,292.7,179.4,286.3,179.4z M286.3,155.7c-5.3,0-9.7,4.9-9.7,11s4.3,11,9.7,11
					c5.3,0,9.7-4.9,9.7-11C296,160.6,291.6,155.7,286.3,155.7z"/>
			</g>
		</g>
	</g>
</g>
<circle cx="246.2" cy="179.3" r="3.2"/>
<circle cx="259.5" cy="148.7" r="3.1"/>
</svg>
