<?xml version="1.0" encoding="utf-8"?>
<!-- Generator: Adobe Illustrator 20.1.0, SVG Export Plug-In . SVG Version: 6.00 Build 0)  -->
<svg version="1.1" id="Layer_1" xmlns="http://www.w3.org/2000/svg" xmlns:xlink="http://www.w3.org/1999/xlink" x="0px" y="0px"
	 viewBox="0 0 300 300" style="enable-background:new 0 0 300 300;" xml:space="preserve">
<style type="text/css">
	.st0{fill:#FF4401;}
	.st1{fill:#FFB9A9;}
</style>
<path class="st0" d="M85.4,114.2v0.7h-1.3v-0.7c0-5.7-5.9-10.1-13-10.1c-7.1,0-13,4.5-13,10.1c0,10.1,28.7,10.1,28.7,21.5
	c0,6.1-7,11.4-15.7,11.4c-8.9,0-15.7-5.3-15.7-11.4V135h1.3v0.7c0,5.6,6.5,10.1,14.4,10.1c7.7,0,14.3-4.6,14.3-10.1
	c0-10.3-28.6-10.1-28.7-21.5c0-6.2,6.3-11.4,14.3-11.4S85.4,108,85.4,114.2z"/>
<path class="st0" d="M71.1,148.6c-9.4,0-17.1-5.8-17.1-12.9v-2.1h4.2v2.1c0,4.7,5.9,8.7,12.9,8.7c6.9,0,12.9-4.1,12.9-8.7
	c0-4-6.5-6.4-12.8-8.8c-7.8-2.9-15.8-5.9-15.9-12.8c0-7.1,7.1-12.9,15.7-12.9s15.7,5.8,15.7,12.9v2.1h-4.2v-2.1
	c0-4.8-5.2-8.7-11.5-8.7s-11.5,3.9-11.5,8.7c0,3.9,6.5,6.3,12.7,8.6c7.9,2.9,16,6,16,13S80.4,148.6,71.1,148.6z"/>
<path class="st1" d="M25.7,126c-0.7,0-1.3-0.6-1.3-1.3C24.3,98.9,45.3,78,71,78c0.7,0,1.3,0.6,1.3,1.3c0,0.7-0.6,1.3-1.3,1.3
	c-24.3,0-44,19.7-44,44C27,125.4,26.5,126,25.7,126C25.7,126,25.7,126,25.7,126z"/>
<path class="st1" d="M1.3,126c-0.7,0-1.3-0.6-1.3-1.3c0-39.2,31.9-71,71-71c0.7,0,1.3,0.6,1.3,1.3c0,0.7-0.6,1.3-1.3,1.3
	C33.3,56.3,2.7,87,2.7,124.6C2.7,125.4,2.1,125.9,1.3,126C1.4,126,1.4,126,1.3,126z"/>
<path class="st1" d="M71.2,171.9c-0.7,0-1.3-0.6-1.3-1.3s0.6-1.3,1.3-1.3c12.2,0,23.9-5.1,32.2-14c0.5-0.5,1.4-0.6,1.9-0.1
	c0.5,0.5,0.6,1.4,0.1,1.9l0,0C96.5,166.6,84.1,171.9,71.2,171.9z"/>
<path class="st1" d="M71.2,196.3c-0.7,0-1.3-0.6-1.3-1.3s0.6-1.3,1.3-1.3c26.2,0,49.7-14.6,61.3-38.1c0.3-0.7,1.1-0.9,1.8-0.6
	c0.7,0.3,0.9,1.1,0.6,1.8C122.8,181.1,98.4,196.3,71.2,196.3z"/>
<path class="st0" d="M231.7,114.2v0.7h-1.3v-0.7c0-5.7-5.9-10.1-13-10.1c-7.1,0-13,4.5-13,10.1c0,10.1,28.7,10.1,28.7,21.5
	c0,6.1-7,11.4-15.7,11.4c-8.9,0-15.7-5.3-15.7-11.4V135h1.3v0.7c0,5.6,6.5,10.1,14.3,10.1c7.7,0,14.3-4.6,14.3-10.1
	c0-10.3-28.6-10.1-28.7-21.5c0-6.2,6.3-11.4,14.3-11.4C225.3,102.8,231.7,108,231.7,114.2z"/>
<path class="st0" d="M217.4,148.6c-9.4,0-17.1-5.8-17.1-12.9v-2.1h4.2v2.1c0,4.7,5.9,8.7,12.9,8.7c6.9,0,12.9-4.1,12.9-8.7
	c0-4-6.5-6.4-12.8-8.8c-7.8-2.9-15.8-5.9-15.9-12.8c0-7.1,7.1-12.9,15.7-12.9s15.7,5.8,15.7,12.9v2.1h-4.2v-2.1
	c0-4.8-5.2-8.7-11.5-8.7s-11.5,3.9-11.5,8.7c0,3.9,6.5,6.3,12.7,8.6c7.9,2.9,16,6,16,13C234.4,142.7,226.7,148.6,217.4,148.6z"/>
<path class="st0" d="M105.8,146.5v0.7h-1.3v-43.8c0-0.4,0.3-0.7,0.7-0.6c0.2,0,0.4,0.1,0.5,0.2l30.1,41.5l0.1-41.1v-0.7h1.3v0.7
	l-0.1,43.1c0,0.4-0.3,0.7-0.7,0.6c-0.2,0-0.4-0.1-0.5-0.2l-30.1-41.5V146.5z"/>
<path class="st0" d="M105.8,148.6h-1.3c-0.8,0-1.5-0.7-1.5-1.5l0,0v-43.7c0-1.2,1-2.1,2.1-2.1c0.7,0,1.3,0.3,1.6,0.9l27.5,37.9
	l0.1-37.3c0-0.8,0.7-1.5,1.5-1.5l0,0h1.3c0.8,0,1.5,0.7,1.5,1.5l0,0l-0.1,43.7c0,1.2-1,2.1-2.2,2.1c-0.6,0-1.3-0.3-1.6-0.8
	l-27.5-37.9v37.3C107.3,147.9,106.6,148.6,105.8,148.6C105.8,148.6,105.8,148.6,105.8,148.6z M137.1,146L137.1,146z M104.5,103.8
	L104.5,103.8z"/>
<path class="st0" d="M157.2,146.7l-0.1,0.4h-1.2l0.3-0.9l15-43.1c0.1-0.3,0.4-0.4,0.6-0.3c0.2,0,0.3,0.2,0.3,0.3l15,43.1l0.3,0.9
	h-1.2l-0.1-0.4L171.7,105L157.2,146.7z"/>
<path class="st0" d="M187.5,148.6h-1.2c-0.7,0-1.3-0.5-1.5-1.2l-0.1-0.4l-13.1-37.4l-13.2,37.8c-0.2,0.7-0.8,1.2-1.5,1.2h-1.2
	c-0.9,0-1.6-0.7-1.6-1.6c0-0.2,0-0.3,0.1-0.5l0.3-0.9l15-43.1c0.4-1.1,1.5-1.6,2.6-1.3c0.6,0.2,1.1,0.7,1.3,1.3l15.3,44
	c0.3,0.8-0.2,1.7-1,2C187.9,148.6,187.7,148.6,187.5,148.6L187.5,148.6z M170.7,103.6L170.7,103.6z M172.7,103.6L172.7,103.6z"/>
<path class="st0" d="M231.7,114.2v0.7h-1.3v-0.7c0-5.7-5.9-10.1-13-10.1c-7.1,0-13,4.5-13,10.1c0,10.1,28.7,10.1,28.7,21.5
	c0,6.1-7,11.4-15.7,11.4c-8.9,0-15.7-5.3-15.7-11.4V135h1.3v0.7c0,5.6,6.5,10.1,14.3,10.1c7.7,0,14.3-4.6,14.3-10.1
	c0-10.3-28.6-10.1-28.7-21.5c0-6.2,6.3-11.4,14.3-11.4C225.3,102.8,231.7,108,231.7,114.2z"/>
<g>
	<g>
		<path class="st0" d="M258,122.8v-0.4h1.4v0.4V147v0.4H258V147V122.8z"/>
		<rect x="256.4" y="121.6" class="st0" width="4.5" height="26.7"/>
	</g>
</g>
<g>
	<g>
		<g>
			<g>
				<path class="st0" d="M273.2,133.5c0-7.5,5.6-13.5,12.3-13.5c6.7,0,12.3,6,12.3,13.5c0,7.5-5.5,13.5-12.3,13.5
					C278.8,147,273.2,141,273.2,133.5z M274,133.5c0,7,5.1,12.7,11.4,12.7c6.3,0,11.4-5.7,11.4-12.7c0-7-5.1-12.7-11.4-12.7
					C279.2,120.8,274,126.4,274,133.5z"/>
				<path class="st0" d="M285.5,147.8c-7.2,0-13.1-6.4-13.1-14.3c0-7.9,5.9-14.3,13.1-14.3c7.2,0,13.1,6.4,13.1,14.3
					C298.6,141.3,292.7,147.8,285.5,147.8z M285.5,121.6c-5.9,0-10.6,5.3-10.6,11.9s4.8,11.9,10.6,11.9c5.9,0,10.6-5.3,10.6-11.9
					S291.3,121.6,285.5,121.6z"/>
			</g>
			<g>
				<path class="st0" d="M285.5,147c-6.8,0-12.3-6.1-12.3-13.6c0-7.5,5.5-13.6,12.3-13.6c6.8,0,12.3,6.1,12.3,13.6
					C297.8,140.9,292.3,147,285.5,147z M285.5,120c-6.7,0-12.2,6-12.2,13.4c0,7.4,5.5,13.4,12.2,13.4c6.7,0,12.2-6,12.2-13.4
					C297.7,126.1,292.2,120,285.5,120z M285.5,146.2c-6.4,0-11.5-5.7-11.5-12.8c0-7,5.2-12.8,11.5-12.8c6.4,0,11.5,5.7,11.5,12.8
					C297,140.5,291.8,146.2,285.5,146.2z M285.5,120.8c-6.3,0-11.4,5.7-11.4,12.6c0,7,5.1,12.6,11.4,12.6c6.3,0,11.4-5.7,11.4-12.6
					C296.9,126.5,291.8,120.8,285.5,120.8z"/>
				<path class="st0" d="M285.5,147.8c-7.3,0-13.2-6.4-13.2-14.4c0-7.9,5.9-14.4,13.2-14.4c7.3,0,13.2,6.4,13.2,14.4
					C298.7,141.4,292.8,147.8,285.5,147.8z M285.5,121.6c-5.8,0-10.5,5.3-10.5,11.8c0,6.5,4.7,11.8,10.5,11.8
					c5.8,0,10.5-5.3,10.5-11.8C296,126.9,291.3,121.6,285.5,121.6z"/>
			</g>
		</g>
		<g>
			<g>
				<path class="st0" d="M285.5,147.8c-7.3,0-13.2-6.4-13.2-14.4s5.9-14.4,13.2-14.4s13.2,6.4,13.2,14.4S292.8,147.8,285.5,147.8z
					 M285.5,121.6c-5.8,0-10.5,5.3-10.5,11.8c0,6.5,4.7,11.8,10.5,11.8c5.8,0,10.5-5.3,10.5-11.8C296,126.9,291.3,121.6,285.5,121.6
					z"/>
				<path class="st0" d="M285.5,148.6c-7.7,0-14-6.8-14-15.2c0-8.4,6.3-15.2,14-15.2c7.7,0,14,6.8,14,15.2
					C299.5,141.8,293.2,148.6,285.5,148.6z M285.5,119.9c-6.8,0-12.3,6.1-12.3,13.6c0,7.5,5.5,13.6,12.3,13.6
					c6.8,0,12.3-6.1,12.3-13.6C297.8,126,292.3,119.9,285.5,119.9z M285.5,146.1c-6.3,0-11.4-5.7-11.4-12.6s5.1-12.6,11.4-12.6
					c6.3,0,11.4,5.7,11.4,12.6S291.8,146.1,285.5,146.1z M285.5,122.4c-5.4,0-9.7,4.9-9.7,11s4.4,11,9.7,11c5.4,0,9.7-4.9,9.7-11
					S290.8,122.4,285.5,122.4z"/>
			</g>
			<g>
				<path class="st0" d="M285.5,147.9c-7.3,0-13.2-6.5-13.2-14.5c0-8,5.9-14.5,13.2-14.5c7.3,0,13.2,6.5,13.2,14.5
					C298.7,141.4,292.8,147.9,285.5,147.9z M285.5,119.2c-7.2,0-13.1,6.4-13.1,14.3c0,7.9,5.9,14.3,13.1,14.3
					c7.2,0,13.1-6.4,13.1-14.3C298.6,125.6,292.7,119.2,285.5,119.2z M285.5,145.4c-5.9,0-10.6-5.3-10.6-11.9
					c0-6.6,4.8-11.9,10.6-11.9c5.9,0,10.6,5.3,10.6,11.9C296.1,140,291.3,145.4,285.5,145.4z M285.5,121.7
					c-5.8,0-10.5,5.3-10.5,11.7c0,6.5,4.7,11.7,10.5,11.7c5.8,0,10.5-5.3,10.5-11.7C296,127,291.3,121.7,285.5,121.7z"/>
				<path class="st0" d="M285.5,148.7c-7.8,0-14.1-6.8-14.1-15.3c0-8.4,6.3-15.3,14.1-15.3c7.8,0,14.1,6.8,14.1,15.3
					C299.6,141.9,293.2,148.7,285.5,148.7z M285.5,120c-6.8,0-12.3,6.1-12.3,13.5c0,7.4,5.5,13.5,12.3,13.5
					c6.8,0,12.3-6.1,12.3-13.5C297.8,126,292.3,120,285.5,120z M285.5,146.2c-6.3,0-11.4-5.7-11.4-12.7s5.1-12.7,11.4-12.7
					c6.3,0,11.4,5.7,11.4,12.7S291.8,146.2,285.5,146.2z M285.5,122.5c-5.3,0-9.6,4.9-9.6,10.9c0,6,4.3,10.9,9.6,10.9
					c5.3,0,9.6-4.9,9.6-10.9C295.1,127.4,290.8,122.5,285.5,122.5z"/>
			</g>
		</g>
	</g>
</g>
<circle class="st0" cx="245.5" cy="146" r="3.2"/>
<circle class="st0" cx="258.7" cy="115.6" r="3.1"/>
</svg>
