<?xml version="1.0" encoding="utf-8"?>
<!-- Generator: Adobe Illustrator 20.1.0, SVG Export Plug-In . SVG Version: 6.00 Build 0)  -->
<svg version="1.1" id="Layer_1" xmlns="http://www.w3.org/2000/svg" xmlns:xlink="http://www.w3.org/1999/xlink" x="0px" y="0px"
	 viewBox="0 0 300 300" style="enable-background:new 0 0 300 300;" xml:space="preserve">
<style type="text/css">
	.st0{fill:#414042;}
	.st1{fill:#BCBEC0;}
</style>
<path class="st0" d="M85.5,114.9v0.7h-1.3v-0.7c0-5.7-5.9-10.1-13-10.1s-13,4.4-13,10.1c0,10.1,28.8,10.1,28.7,21.6
	c0,6.1-7,11.4-15.7,11.4c-8.9,0-15.7-5.3-15.7-11.4v-0.7h1.3v0.7c0,5.6,6.5,10.1,14.4,10.1c7.6,0,14.4-4.6,14.4-10.1
	c0-10.3-28.6-10.1-28.7-21.6c0-6.2,6.3-11.4,14.3-11.4S85.5,108.6,85.5,114.9z"/>
<path class="st0" d="M71.2,149.3c-9.5,0-17.1-5.8-17.1-12.9v-2.1h4.2v2.1c0,4.7,5.9,8.7,12.9,8.7c6.9,0,12.9-4.1,12.9-8.7
	c0-4-6.5-6.4-12.8-8.8c-7.8-2.9-15.9-5.9-15.9-12.8c0-7.1,7.1-12.9,15.8-12.9c8.7,0,15.8,5.8,15.8,12.9v2.1h-4.2v-2.1
	c0-4.8-5.2-8.7-11.6-8.7c-6.4,0-11.6,3.9-11.6,8.7c0,3.9,6.5,6.3,12.7,8.6c7.9,3,16,6,16,13C88.3,143.4,80.5,149.3,71.2,149.3z"/>
<path class="st1" d="M25.7,126.7c-0.7,0-1.3-0.6-1.3-1.3c0-25.8,21-46.7,46.7-46.7c0.7,0,1.3,0.6,1.3,1.3s-0.6,1.3-1.3,1.3
	c-24.3,0-44.1,19.8-44.1,44.1C27.1,126.1,26.5,126.7,25.7,126.7C25.7,126.7,25.7,126.7,25.7,126.7z"/>
<path class="st1" d="M1.3,126.7c-0.7,0-1.3-0.6-1.3-1.3c0-39.2,31.9-71.1,71.1-71.1c0.7,0,1.3,0.6,1.3,1.3c0,0.7-0.6,1.3-1.3,1.3
	c-37.7,0-68.4,30.7-68.4,68.4C2.7,126.1,2.1,126.7,1.3,126.7C1.4,126.7,1.3,126.7,1.3,126.7z"/>
<path class="st1" d="M71.3,172.7c-0.7,0-1.3-0.6-1.3-1.3c0-0.7,0.6-1.3,1.3-1.3c12.2,0,23.9-5.1,32.3-14c0.5-0.5,1.3-0.6,1.9-0.1
	c0.5,0.5,0.6,1.3,0.1,1.9l0,0C96.6,167.3,84.2,172.7,71.3,172.7z"/>
<path class="st1" d="M71.3,197.1c-0.7,0-1.3-0.6-1.3-1.3s0.6-1.3,1.3-1.3c26.2,0,49.7-14.6,61.4-38.1c0.3-0.7,1.1-0.9,1.8-0.6
	c0.7,0.3,0.9,1.1,0.6,1.8C122.9,181.9,98.5,197.1,71.3,197.1z"/>
<path class="st0" d="M231.9,114.9v0.7h-1.3v-0.7c0-5.7-5.9-10.1-13-10.1c-7.1,0-13,4.4-13,10.1c0,10.1,28.8,10.1,28.7,21.6
	c0,6.1-7,11.4-15.7,11.4c-8.9,0-15.7-5.3-15.7-11.4v-0.7h1.3v0.7c0,5.6,6.5,10.1,14.4,10.1c7.7,0,14.4-4.6,14.4-10.1
	c0-10.3-28.6-10.1-28.7-21.6c0-6.2,6.3-11.4,14.3-11.4S231.9,108.6,231.9,114.9z"/>
<path class="st0" d="M217.6,149.3c-9.4,0-17.1-5.8-17.1-12.9v-2.1h4.2v2.1c0,4.7,5.9,8.7,12.9,8.7c6.9,0,12.9-4.1,12.9-8.7
	c0-4-6.5-6.4-12.8-8.8c-7.8-2.9-15.9-5.9-15.9-12.8c0-7.1,7.1-12.9,15.8-12.9c8.7,0,15.8,5.8,15.8,12.9v2.1h-4.2v-2.1
	c0-4.8-5.2-8.7-11.6-8.7s-11.6,3.9-11.6,8.7c0,3.9,6.5,6.3,12.7,8.6c7.9,3,16,6,16,13C234.7,143.4,226.9,149.3,217.6,149.3z"/>
<path class="st0" d="M105.9,147.2v0.7h-1.3v-43.8c0-0.4,0.3-0.7,0.7-0.6c0.2,0,0.4,0.1,0.5,0.2l30.1,41.5l0.1-41.1v-0.7h1.3v0.7
	l-0.1,43.1c0,0.4-0.3,0.7-0.7,0.6c-0.2,0-0.4-0.1-0.5-0.2l-30.1-41.5V147.2z"/>
<path class="st0" d="M105.9,149.3h-1.3c-0.8,0-1.4-0.6-1.4-1.4c0,0,0,0,0,0v-43.8c0-1.2,1-2.1,2.2-2.1c0.7,0,1.3,0.3,1.7,0.8
	l27.5,37.9l0.1-37.3c0-0.8,0.6-1.4,1.4-1.4c0,0,0,0,0,0h1.3c0.8,0,1.4,0.6,1.4,1.4c0,0,0,0,0,0l-0.1,43.8c0,1.2-1,2.1-2.2,2.1
	c-0.6,0-1.2-0.3-1.6-0.8l-27.5-37.9v37.3C107.4,148.7,106.8,149.3,105.9,149.3C106,149.3,106,149.3,105.9,149.3z M137.2,146.7
	L137.2,146.7z M104.6,104.5L104.6,104.5z"/>
<path class="st0" d="M157.3,147.4l-0.1,0.4h-1.1l0.3-0.9l15.1-43.1c0.1-0.3,0.4-0.4,0.6-0.3c0.2,0,0.3,0.2,0.3,0.3l15.1,43.1
	l0.3,0.9h-1.1l-0.1-0.4l-14.6-41.8L157.3,147.4z"/>
<path class="st0" d="M187.8,149.4h-1.1c-0.7,0-1.3-0.5-1.5-1.2l-0.1-0.4l-13.1-37.4l-13.2,37.8c-0.2,0.7-0.8,1.2-1.5,1.2h-1.1
	c-0.9,0-1.6-0.7-1.6-1.6c0-0.2,0-0.3,0.1-0.5l0.3-0.9l15.1-43.2c0.4-1.1,1.5-1.6,2.6-1.3c0.6,0.2,1.1,0.7,1.3,1.3l15.4,44.1
	c0.3,0.8-0.2,1.7-1,2C188.1,149.3,187.9,149.4,187.8,149.4L187.8,149.4z M170.9,104.3L170.9,104.3z M172.9,104.3L172.9,104.3z"/>
<g>
	<g>
		<path class="st0" d="M258.3,123.5v-0.4h1.4v0.4v24.2v0.4h-1.4v-0.4V123.5z"/>
		<rect x="256.7" y="122.3" class="st0" width="4.5" height="26.7"/>
	</g>
</g>
<g>
	<g>
		<g>
			<g>
				<path class="st0" d="M273.5,134.2c0-7.5,5.6-13.5,12.3-13.5c6.8,0,12.3,6,12.3,13.5c0,7.5-5.5,13.5-12.3,13.5
					C279.1,147.7,273.5,141.7,273.5,134.2z M274.4,134.2c0,7,5.2,12.7,11.5,12.7c6.3,0,11.5-5.7,11.5-12.7c0-7-5.1-12.7-11.5-12.7
					C279.5,121.5,274.4,127.1,274.4,134.2z"/>
				<path class="st0" d="M285.8,148.5c-7.2,0-13.1-6.4-13.1-14.3c0-7.9,5.9-14.3,13.1-14.3c7.2,0,13.1,6.4,13.1,14.3
					C298.9,142.1,293,148.5,285.8,148.5z M285.8,122.3c-5.9,0-10.6,5.3-10.6,11.9c0,6.6,4.8,11.9,10.6,11.9
					c5.9,0,10.6-5.3,10.6-11.9C296.4,127.6,291.7,122.3,285.8,122.3z"/>
			</g>
			<g>
				<path class="st0" d="M285.8,147.8c-6.8,0-12.4-6.1-12.4-13.6c0-7.5,5.5-13.6,12.4-13.6c6.8,0,12.4,6.1,12.4,13.6
					C298.2,141.7,292.6,147.8,285.8,147.8z M285.8,120.7c-6.7,0-12.2,6-12.2,13.4c0,7.4,5.5,13.4,12.2,13.4c6.7,0,12.2-6,12.2-13.4
					C298,126.8,292.5,120.7,285.8,120.7z M285.8,147c-6.4,0-11.5-5.7-11.5-12.8c0-7.1,5.2-12.8,11.5-12.8c6.4,0,11.5,5.7,11.5,12.8
					C297.4,141.2,292.2,147,285.8,147z M285.8,121.5c-6.3,0-11.4,5.7-11.4,12.6c0,7,5.1,12.6,11.4,12.6c6.3,0,11.4-5.7,11.4-12.6
					C297.2,127.2,292.1,121.5,285.8,121.5z"/>
				<path class="st0" d="M285.8,148.6c-7.3,0-13.2-6.5-13.2-14.4c0-7.9,5.9-14.4,13.2-14.4c7.3,0,13.2,6.5,13.2,14.4
					C299,142.1,293.1,148.6,285.8,148.6z M285.8,122.3c-5.8,0-10.6,5.3-10.6,11.8c0,6.5,4.7,11.8,10.6,11.8
					c5.8,0,10.6-5.3,10.6-11.8C296.4,127.6,291.6,122.3,285.8,122.3z"/>
			</g>
		</g>
		<g>
			<g>
				<path class="st0" d="M285.8,148.6c-7.3,0-13.2-6.5-13.2-14.4s5.9-14.4,13.2-14.4s13.2,6.5,13.2,14.4S293.1,148.6,285.8,148.6z
					 M285.8,122.3c-5.8,0-10.6,5.3-10.6,11.8c0,6.5,4.7,11.8,10.6,11.8c5.8,0,10.5-5.3,10.5-11.8
					C296.4,127.6,291.6,122.3,285.8,122.3z"/>
				<path class="st0" d="M285.8,149.4c-7.7,0-14-6.8-14-15.2c0-8.4,6.3-15.2,14-15.2c7.7,0,14,6.8,14,15.2
					C299.8,142.6,293.5,149.4,285.8,149.4z M285.8,120.6c-6.8,0-12.4,6.1-12.4,13.6c0,7.5,5.5,13.6,12.4,13.6
					c6.8,0,12.4-6.1,12.4-13.6C298.2,126.7,292.6,120.6,285.8,120.6z M285.8,146.8c-6.3,0-11.4-5.7-11.4-12.6
					c0-7,5.1-12.6,11.4-12.6c6.3,0,11.4,5.7,11.4,12.6C297.2,141.1,292.1,146.8,285.8,146.8z M285.8,123.1c-5.4,0-9.7,5-9.7,11
					c0,6.1,4.4,11,9.7,11c5.4,0,9.7-5,9.7-11C295.5,128.1,291.2,123.1,285.8,123.1z"/>
			</g>
			<g>
				<path class="st0" d="M285.8,148.6c-7.3,0-13.3-6.5-13.3-14.5c0-8,5.9-14.5,13.3-14.5c7.3,0,13.3,6.5,13.3,14.5
					C299.1,142.2,293.1,148.6,285.8,148.6z M285.8,119.9c-7.2,0-13.1,6.4-13.1,14.3c0,7.9,5.9,14.3,13.1,14.3
					c7.2,0,13.1-6.4,13.1-14.3C298.9,126.3,293,119.9,285.8,119.9z M285.8,146.1c-5.9,0-10.6-5.3-10.6-11.9
					c0-6.6,4.8-11.9,10.6-11.9c5.9,0,10.6,5.3,10.6,11.9C296.4,140.7,291.7,146.1,285.8,146.1z M285.8,122.4
					c-5.8,0-10.5,5.3-10.5,11.8c0,6.5,4.7,11.8,10.5,11.8c5.8,0,10.5-5.3,10.5-11.8C296.3,127.7,291.6,122.4,285.8,122.4z"/>
				<path class="st0" d="M285.8,149.4c-7.8,0-14.1-6.8-14.1-15.3c0-8.4,6.3-15.3,14.1-15.3c7.8,0,14.1,6.8,14.1,15.3
					C299.9,142.6,293.6,149.4,285.8,149.4z M285.8,120.7c-6.8,0-12.3,6.1-12.3,13.5c0,7.5,5.5,13.5,12.3,13.5
					c6.8,0,12.3-6.1,12.3-13.5C298.1,126.7,292.6,120.7,285.8,120.7z M285.8,146.9c-6.3,0-11.5-5.7-11.5-12.7
					c0-7,5.1-12.7,11.5-12.7c6.3,0,11.5,5.7,11.5,12.7C297.3,141.2,292.1,146.9,285.8,146.9z M285.8,123.2c-5.3,0-9.6,4.9-9.6,11
					c0,6,4.3,11,9.6,11c5.3,0,9.6-4.9,9.6-11C295.5,128.1,291.1,123.2,285.8,123.2z"/>
			</g>
		</g>
	</g>
</g>
<circle class="st0" cx="245.7" cy="146.7" r="3.2"/>
<circle class="st0" cx="259" cy="116.3" r="3.1"/>
</svg>
