<?xml version="1.0" encoding="utf-8"?>
<!-- Generator: Adobe Illustrator 20.1.0, SVG Export Plug-In . SVG Version: 6.00 Build 0)  -->
<svg version="1.1" id="Layer_1" xmlns="http://www.w3.org/2000/svg" xmlns:xlink="http://www.w3.org/1999/xlink" x="0px" y="0px"
	 viewBox="0 0 300 300" style="enable-background:new 0 0 300 300;" xml:space="preserve">
<style type="text/css">
	.st0{fill:#FF4401;}
	.st1{fill:#3F95D1;}
</style>
<path class="st0" d="M85.3,140.3v0.7H84v-0.7c0-5.7-5.9-10.1-13-10.1s-13,4.4-13,10.1c0,10,28.7,10,28.6,21.5
	c0,6.1-7,11.4-15.6,11.4c-8.9,0-15.6-5.3-15.6-11.4v-0.7h1.3v0.7c0,5.6,6.5,10.1,14.4,10.1c7.6,0,14.3-4.6,14.3-10.1
	c0-10.2-28.5-10.1-28.6-21.5c0-6.2,6.3-11.4,14.3-11.4S85.3,134.1,85.3,140.3z"/>
<path class="st0" d="M71,174.6c-9.4,0-17.1-5.8-17.1-12.8v-2.1h4.2v2.1c0,4.7,5.9,8.7,12.9,8.7c6.9,0,12.9-4,12.9-8.7
	c0-4-6.5-6.4-12.8-8.8c-7.8-2.9-15.8-5.9-15.8-12.7c0-7.1,7-12.9,15.7-12.9s15.7,5.8,15.7,12.8v2.1h-4.2v-2.1
	c0-4.8-5.2-8.7-11.5-8.7s-11.5,3.9-11.5,8.7c0,3.9,6.5,6.3,12.7,8.6c7.9,2.9,16,6,15.9,12.9C88,168.8,80.3,174.6,71,174.6z"/>
<path class="st1" d="M25.6,152.1c-0.7,0-1.3-0.6-1.3-1.3c0-25.7,20.9-46.6,46.6-46.6c0.7,0,1.3,0.6,1.3,1.3s-0.6,1.3-1.3,1.3
	c-24.2,0-43.9,19.7-43.9,43.9C27,151.5,26.4,152.1,25.6,152.1C25.6,152.1,25.6,152.1,25.6,152.1z"/>
<path class="st1" d="M1.3,152.1c-0.7,0-1.3-0.6-1.3-1.3c0-39.1,31.8-70.9,70.9-70.9c0.7,0,1.3,0.6,1.3,1.3s-0.6,1.3-1.3,1.3
	c-37.6,0-68.2,30.6-68.2,68.2C2.7,151.5,2.1,152.1,1.3,152.1C1.3,152.1,1.3,152.1,1.3,152.1z"/>
<path class="st1" d="M71.1,198c-0.7,0-1.3-0.6-1.3-1.3s0.6-1.3,1.3-1.3c12.2,0,23.8-5.1,32.2-14c0.5-0.5,1.3-0.6,1.9-0.1
	c0.5,0.5,0.6,1.3,0.1,1.9l0,0C96.3,192.6,84,198,71.1,198z"/>
<path class="st1" d="M71.1,222.3c-0.7,0-1.3-0.6-1.3-1.3c0-0.7,0.6-1.3,1.3-1.3c26.1,0,49.6-14.6,61.2-38c0.3-0.7,1.1-0.9,1.8-0.6
	c0.7,0.3,0.9,1.1,0.6,1.8C122.6,207.1,98.2,222.3,71.1,222.3z"/>
<path class="st0" d="M231.3,140.3v0.7h-1.3v-0.7c0-5.7-5.9-10.1-13-10.1s-13,4.4-13,10.1c0,10,28.7,10,28.6,21.5
	c0,6.1-7,11.4-15.6,11.4c-8.9,0-15.6-5.3-15.6-11.4v-0.7h1.3v0.7c0,5.6,6.5,10.1,14.3,10.1c7.6,0,14.3-4.6,14.3-10.1
	c0-10.2-28.5-10.1-28.6-21.5c0-6.2,6.3-11.4,14.3-11.4C224.9,128.9,231.3,134.1,231.3,140.3z"/>
<path class="st0" d="M217,174.6c-9.4,0-17.1-5.8-17.1-12.8v-2.1h4.2v2.1c0,4.7,5.9,8.7,12.9,8.7c6.9,0,12.9-4,12.9-8.7
	c0-4-6.5-6.4-12.8-8.8c-7.8-2.9-15.8-5.9-15.8-12.7c0-7.1,7-12.9,15.7-12.9s15.7,5.8,15.7,12.8v2.1h-4.2v-2.1
	c0-4.8-5.2-8.7-11.5-8.7s-11.5,3.9-11.5,8.7c0,3.9,6.5,6.3,12.7,8.6c7.9,2.9,16,6,15.9,12.9C234,168.8,226.3,174.6,217,174.6z"/>
<path class="st0" d="M105.6,172.6v0.7h-1.3v-43.7c0-0.4,0.3-0.7,0.7-0.6c0.2,0,0.4,0.1,0.5,0.2l30.1,41.4l0.1-41v-0.7h1.3v0.7
	l-0.1,43c0,0.4-0.3,0.7-0.7,0.6c-0.2,0-0.4-0.1-0.5-0.2l-30.1-41.4V172.6z"/>
<path class="st0" d="M105.6,174.6h-1.3c-0.8,0-1.4-0.7-1.4-1.4l0,0v-43.7c0-1.2,1-2.1,2.1-2.1c0.7,0,1.3,0.3,1.6,0.9l27.4,37.8
	l0.1-37.2c0-0.8,0.7-1.4,1.4-1.4l0,0h1.3c0.8,0,1.4,0.7,1.4,1.4l0,0l-0.1,43.7c0,1.2-1,2.1-2.2,2.1c-0.6,0-1.3-0.3-1.6-0.8L107,136
	v37.2C107.1,174,106.4,174.6,105.6,174.6C105.7,174.6,105.6,174.6,105.6,174.6z M136.8,172.1L136.8,172.1z M104.3,130L104.3,130z"/>
<path class="st0" d="M156.9,172.8l-0.1,0.4h-1.2l0.3-0.9l15-43c0.1-0.3,0.4-0.4,0.6-0.3c0.2,0,0.3,0.2,0.3,0.3l15,43l0.3,0.9H186
	l-0.1-0.4l-14.6-41.6L156.9,172.8z"/>
<path class="st0" d="M187.2,174.7h-1.2c-0.7,0-1.3-0.5-1.5-1.2l-0.1-0.4l-13-37.3l-13.1,37.7c-0.2,0.7-0.8,1.2-1.5,1.2h-1.2
	c-0.9,0-1.5-0.7-1.5-1.5c0-0.2,0-0.3,0.1-0.5l0.3-0.9l15-43c0.4-1.1,1.5-1.6,2.6-1.3c0.6,0.2,1.1,0.7,1.3,1.3l15.3,43.9
	c0.3,0.8-0.2,1.7-1,2C187.5,174.7,187.4,174.7,187.2,174.7L187.2,174.7z M170.4,129.7L170.4,129.7z M172.4,129.7L172.4,129.7z"/>
<g>
	<g>
		<path class="st0" d="M257.5,148.9v-0.4h1.4v0.4v24.1v0.4h-1.4v-0.4V148.9z"/>
		<rect x="256" y="147.7" class="st0" width="4.5" height="26.6"/>
	</g>
</g>
<g>
	<g>
		<g>
			<g>
				<path class="st0" d="M272.7,159.6c0-7.5,5.5-13.5,12.2-13.5c6.7,0,12.2,6,12.2,13.5c0,7.5-5.5,13.5-12.2,13.5
					C278.3,173,272.7,167,272.7,159.6z M273.5,159.6c0,7,5.1,12.7,11.4,12.7c6.3,0,11.4-5.7,11.4-12.7c0-7-5.1-12.7-11.4-12.7
					C278.7,146.9,273.5,152.5,273.5,159.6z"/>
				<path class="st0" d="M285,173.8c-7.2,0-13.1-6.4-13.1-14.3c0-7.9,5.9-14.3,13.1-14.3c7.2,0,13.1,6.4,13.1,14.3
					C298,167.4,292.2,173.8,285,173.8z M285,147.7c-5.8,0-10.6,5.3-10.6,11.9c0,6.6,4.8,11.9,10.6,11.9c5.8,0,10.6-5.3,10.6-11.9
					C295.6,153,290.8,147.7,285,147.7z"/>
			</g>
			<g>
				<path class="st0" d="M285,173.1c-6.8,0-12.3-6.1-12.3-13.5c0-7.5,5.5-13.5,12.3-13.5c6.8,0,12.3,6.1,12.3,13.5
					C297.3,167,291.8,173.1,285,173.1z M285,146.2c-6.7,0-12.2,6-12.2,13.4c0,7.4,5.5,13.4,12.2,13.4c6.7,0,12.2-6,12.2-13.4
					C297.1,152.2,291.7,146.2,285,146.2z M285,172.3c-6.3,0-11.5-5.7-11.5-12.8c0-7,5.2-12.8,11.5-12.8c6.3,0,11.5,5.7,11.5,12.8
					C296.5,166.6,291.3,172.3,285,172.3z M285,147c-6.3,0-11.3,5.7-11.3,12.6c0,6.9,5.1,12.6,11.3,12.6c6.3,0,11.3-5.7,11.3-12.6
					C296.3,152.6,291.2,147,285,147z"/>
				<path class="st0" d="M285,173.9c-7.2,0-13.1-6.4-13.1-14.3c0-7.9,5.9-14.3,13.1-14.3c7.2,0,13.1,6.4,13.1,14.3
					C298.1,167.5,292.2,173.9,285,173.9z M285,147.8c-5.8,0-10.5,5.3-10.5,11.8c0,6.5,4.7,11.8,10.5,11.8c5.8,0,10.5-5.3,10.5-11.8
					C295.5,153,290.8,147.8,285,147.8z"/>
			</g>
		</g>
		<g>
			<g>
				<path class="st0" d="M285,173.9c-7.2,0-13.1-6.4-13.1-14.3s5.9-14.3,13.1-14.3s13.1,6.4,13.1,14.3S292.2,173.9,285,173.9z
					 M285,147.8c-5.8,0-10.5,5.3-10.5,11.8s4.7,11.8,10.5,11.8c5.8,0,10.5-5.3,10.5-11.8S290.8,147.8,285,147.8z"/>
				<path class="st0" d="M285,174.7c-7.7,0-14-6.8-14-15.1c0-8.4,6.3-15.1,14-15.1c7.7,0,14,6.8,14,15.1
					C298.9,167.9,292.7,174.7,285,174.7z M285,146c-6.8,0-12.3,6.1-12.3,13.5c0,7.5,5.5,13.5,12.3,13.5c6.8,0,12.3-6.1,12.3-13.5
					C297.3,152.1,291.8,146,285,146z M285,172.2c-6.3,0-11.3-5.7-11.3-12.6c0-6.9,5.1-12.6,11.3-12.6c6.3,0,11.3,5.7,11.3,12.6
					C296.3,166.5,291.2,172.2,285,172.2z M285,148.6c-5.3,0-9.7,4.9-9.7,11c0,6.1,4.3,11,9.7,11c5.3,0,9.7-4.9,9.7-11
					C294.7,153.5,290.3,148.6,285,148.6z"/>
			</g>
			<g>
				<path class="st0" d="M285,174c-7.3,0-13.2-6.5-13.2-14.4c0-8,5.9-14.4,13.2-14.4c7.3,0,13.2,6.5,13.2,14.4
					C298.2,167.5,292.3,174,285,174z M285,145.3c-7.2,0-13.1,6.4-13.1,14.3c0,7.9,5.9,14.3,13.1,14.3c7.2,0,13.1-6.4,13.1-14.3
					C298,151.7,292.2,145.3,285,145.3z M285,171.4c-5.8,0-10.6-5.3-10.6-11.9c0-6.5,4.8-11.9,10.6-11.9c5.8,0,10.6,5.3,10.6,11.9
					C295.6,166.1,290.8,171.4,285,171.4z M285,147.8c-5.8,0-10.4,5.3-10.4,11.7s4.7,11.7,10.4,11.7c5.8,0,10.4-5.3,10.4-11.7
					S290.7,147.8,285,147.8z"/>
				<path class="st0" d="M285,174.8c-7.7,0-14-6.8-14-15.2c0-8.4,6.3-15.2,14-15.2c7.7,0,14,6.8,14,15.2
					C299,168,292.7,174.8,285,174.8z M285,146.1c-6.8,0-12.2,6-12.2,13.5c0,7.4,5.5,13.5,12.2,13.5c6.7,0,12.2-6,12.2-13.5
					C297.2,152.1,291.7,146.1,285,146.1z M285,172.2c-6.3,0-11.4-5.7-11.4-12.7c0-7,5.1-12.7,11.4-12.7c6.3,0,11.4,5.7,11.4,12.7
					C296.4,166.5,291.3,172.2,285,172.2z M285,148.6c-5.3,0-9.6,4.9-9.6,10.9c0,6,4.3,10.9,9.6,10.9c5.3,0,9.6-4.9,9.6-10.9
					C294.6,153.5,290.3,148.6,285,148.6z"/>
			</g>
		</g>
	</g>
</g>
<circle class="st0" cx="245" cy="172.1" r="3.2"/>
<circle class="st0" cx="258.2" cy="141.7" r="3.1"/>
</svg>
