<?xml version="1.0" encoding="utf-8"?>
<!-- Generator: Adobe Illustrator 20.1.0, SVG Export Plug-In . SVG Version: 6.00 Build 0)  -->
<svg version="1.1" id="Layer_1" xmlns="http://www.w3.org/2000/svg" xmlns:xlink="http://www.w3.org/1999/xlink" x="0px" y="0px"
	 viewBox="0 0 1080 1080" style="enable-background:new 0 0 1080 1080;" xml:space="preserve">
<style type="text/css">
	.st0{fill:#FFFFFF;}
</style>
<path class="st0" d="M308.1,479.3v2.4h-4.8v-2.4c0-20.5-21.2-36.5-46.9-36.5s-46.9,16-46.9,36.5c0,36.3,103.6,36.3,103.4,77.7
	c0,21.9-25.2,41.2-56.5,41.2c-32,0-56.5-19-56.5-41.2v-2.4h4.8v2.4c0,20.2,23.5,36.5,51.8,36.5c27.6,0,51.8-16.5,51.8-36.5
	c0-37-103.1-36.5-103.4-77.7c0-22.4,22.6-41.2,51.6-41.2S308.1,456.9,308.1,479.3z"/>
<path class="st0" d="M256.6,603.4c-34,0-61.7-20.8-61.7-46.4v-7.6H210v7.6c0,17,21.3,31.3,46.6,31.3c24.8,0,46.6-14.6,46.6-31.3
	c0-14.4-23.5-23.1-46.2-31.6c-28.1-10.5-57.1-21.3-57.2-46.1c0-25.6,25.5-46.5,56.8-46.5c31.3,0,56.8,20.8,56.8,46.4v7.6h-15.1v-7.6
	c0-17.2-18.7-31.3-41.6-31.3s-41.6,14-41.6,31.3c0,13.9,23.3,22.6,45.8,31c28.4,10.6,57.8,21.6,57.6,46.7
	C318.2,582.1,290,603.4,256.6,603.4z"/>
<path class="st0" d="M92.6,521.9c-2.6,0-4.8-2.1-4.8-4.8c0-92.8,75.5-168.3,168.3-168.3c2.7,0,4.8,2.2,4.8,4.8
	c0,2.7-2.2,4.8-4.8,4.8c-87.5,0-158.7,71.2-158.7,158.7c0,2.6-2.1,4.8-4.8,4.8C92.7,521.9,92.6,521.9,92.6,521.9z"/>
<path class="st0" d="M4.8,521.9c-2.6,0-4.8-2.1-4.8-4.8C0,375.9,114.9,261,256.1,261c2.7,0,4.8,2.2,4.8,4.8c0,2.7-2.2,4.8-4.8,4.8
	C120.2,270.6,9.6,381.3,9.6,517.1c0,2.6-2.1,4.8-4.7,4.8C4.9,521.9,4.8,521.9,4.8,521.9z"/>
<path class="st0" d="M256.7,687.6c-2.7,0-4.8-2.2-4.8-4.8c0-2.7,2.2-4.8,4.8-4.8c44.1-0.1,86.1-18.4,116.2-50.6
	c1.8-1.9,4.9-2.1,6.8-0.2c1.9,1.8,2.1,4.9,0.2,6.8l0,0C348,668.2,303.4,687.6,256.7,687.6z"/>
<path class="st0" d="M256.7,775.4c-2.7,0-4.8-2.2-4.8-4.8s2.2-4.8,4.8-4.8c94.5,0,179.2-52.6,221.1-137.2c1.2-2.4,4.1-3.4,6.4-2.2
	c2.4,1.2,3.4,4.1,2.2,6.4C442.9,720.8,354.9,775.4,256.7,775.4z"/>
<path class="st0" d="M835.5,479.3v2.4h-4.8v-2.4c0-20.5-21.2-36.5-46.9-36.5s-46.9,16-46.9,36.5c0,36.3,103.6,36.3,103.4,77.7
	c0,21.9-25.2,41.2-56.5,41.2c-32,0-56.5-19-56.5-41.2v-2.4h4.8v2.4c0,20.2,23.5,36.5,51.8,36.5c27.6,0,51.8-16.5,51.8-36.5
	c0-37-103.1-36.5-103.4-77.7c0-22.4,22.6-41.2,51.6-41.2S835.5,456.9,835.5,479.3z"/>
<path class="st0" d="M783.9,603.4c-34,0-61.7-20.8-61.7-46.4v-7.6h15.1v7.6c0,17,21.3,31.3,46.6,31.3c24.8,0,46.6-14.6,46.6-31.3
	c0-14.4-23.5-23.1-46.1-31.6c-28.1-10.5-57.1-21.3-57.2-46.1c0-25.6,25.5-46.5,56.8-46.5s56.8,20.8,56.8,46.4v7.6h-15.2v-7.6
	c0-17.2-18.7-31.3-41.6-31.3s-41.6,14-41.6,31.3c0,13.9,23.3,22.6,45.8,31c28.4,10.6,57.8,21.6,57.6,46.7
	C845.5,582.1,817.4,603.4,783.9,603.4z"/>
<path class="st0" d="M381.7,595.8v2.4h-4.8V440.4c0-1.3,1.1-2.3,2.4-2.3c0.7,0,1.3,0.3,1.8,0.9l108.6,149.5l0.2-148.1V438h4.8v2.4
	l-0.2,155.4c0,1.3-1.1,2.3-2.4,2.3c-0.7,0-1.3-0.3-1.8-0.9L381.7,447.7V595.8z"/>
<path class="st0" d="M381.7,603.4h-4.8c-2.9,0-5.2-2.3-5.2-5.2c0,0,0,0,0,0V440.4c0.1-4.2,3.5-7.6,7.8-7.5c2.4,0,4.6,1.2,6,3.1
	l99.1,136.5l0.2-134.4c0-2.9,2.3-5.2,5.2-5.2c0,0,0,0,0,0h4.8c2.9,0,5.2,2.3,5.2,5.2c0,0,0,0,0,0l-0.3,157.7
	c-0.1,4.2-3.6,7.5-7.8,7.4c-2.3-0.1-4.5-1.2-5.9-3l-99-136.5v134.4C386.9,601.1,384.6,603.4,381.7,603.4
	C381.7,603.4,381.7,603.4,381.7,603.4z M494.4,594.1L494.4,594.1z M377,442L377,442z"/>
<path class="st0" d="M566.8,596.5l-0.4,1.4h-4.1l1.1-3.3l54.2-155.4c0.3-0.9,1.3-1.5,2.2-1.2c0.6,0.2,1,0.6,1.2,1.2l54.2,155.4
	l1.1,3.3h-4.1l-0.4-1.4l-52.6-150.5L566.8,596.5z"/>
<path class="st0" d="M676.4,603.6h-4.1c-2.5,0-4.8-1.7-5.4-4.2l-0.4-1.4l-47.1-134.9l-47.5,136.3c-0.7,2.5-2.9,4.2-5.4,4.2h-4.1
	c-3.1,0-5.6-2.5-5.6-5.6c0-0.6,0.1-1.2,0.3-1.8l1.1-3.3l54.3-155.5c1.3-3.9,5.5-5.9,9.3-4.6c2.2,0.7,3.9,2.4,4.6,4.6l55.4,158.7
	c1,2.9-0.6,6.1-3.5,7.1C677.6,603.4,677,603.5,676.4,603.6L676.4,603.6z M615.7,441.1L615.7,441.1z M623,441.1L623,441.1z"/>
<g>
	<g>
		<path class="st0" d="M930.5,510.3V509h5.1v1.3v87.3v1.3h-5.1v-1.3V510.3z"/>
		<rect x="924.9" y="505.9" class="st0" width="16.3" height="96.1"/>
	</g>
</g>
<g>
	<g>
		<g>
			<g>
				<path class="st0" d="M985.4,548.9c0-27,20-48.7,44.3-48.7c24.3,0,44.3,21.6,44.3,48.7c0,27-19.9,48.7-44.3,48.7
					C1005.4,597.5,985.4,575.9,985.4,548.9z M988.3,548.9c0,25.3,18.6,45.8,41.3,45.8c22.8,0,41.3-20.5,41.3-45.8
					c0-25.3-18.4-45.8-41.3-45.8C1007,503.1,988.3,523.5,988.3,548.9z"/>
				<path class="st0" d="M1029.6,600.4c-26.1,0-47.2-23.1-47.2-51.5c0-28.4,21.2-51.5,47.2-51.5c26.1,0,47.2,23.1,47.2,51.5
					C1076.8,577.3,1055.6,600.4,1029.6,600.4z M1029.6,505.9c-21.2,0-38.3,19.3-38.3,42.9s17.1,42.9,38.3,42.9
					c21.2,0,38.3-19.3,38.3-42.9S1050.7,505.9,1029.6,505.9z"/>
			</g>
			<g>
				<path class="st0" d="M1029.6,597.8c-24.5,0-44.5-22-44.5-48.9c0-27,20-48.9,44.5-48.9s44.5,22,44.5,48.9
					C1074.1,575.9,1054.2,597.8,1029.6,597.8z M1029.6,500.5c-24.3,0-43.9,21.8-43.9,48.4c0,26.6,19.7,48.4,43.9,48.4
					c24.3,0,43.9-21.8,43.9-48.4C1073.6,522.1,1053.8,500.5,1029.6,500.5z M1029.6,594.9c-23,0-41.5-20.7-41.5-46
					c0-25.5,18.7-46,41.5-46c23,0,41.5,20.7,41.5,46C1071.2,574.2,1052.5,594.9,1029.6,594.9z M1029.6,503.3
					c-22.6,0-41,20.5-41,45.6c0,25.1,18.4,45.6,41,45.6c22.6,0,41-20.5,41-45.6C1070.6,523.8,1052.2,503.3,1029.6,503.3z"/>
				<path class="st0" d="M1029.6,600.6c-26.2,0-47.5-23.2-47.5-51.9c0-28.5,21.3-51.9,47.5-51.9c26.2,0,47.5,23.2,47.5,51.9
					S1055.7,600.6,1029.6,600.6z M1029.6,506.2c-20.9,0-38.1,19.2-38.1,42.7c0,23.6,17,42.7,38.1,42.7c20.9,0,38.1-19.2,38.1-42.7
					C1067.6,525.3,1050.6,506.2,1029.6,506.2z"/>
			</g>
		</g>
		<g>
			<g>
				<path class="st0" d="M1029.6,600.7c-26.2,0-47.5-23.3-47.5-51.9c0-28.5,21.3-51.9,47.5-51.9c26.2,0,47.5,23.2,47.5,51.9
					C1077.1,577.4,1055.7,600.7,1029.6,600.7z M1029.6,506.2c-20.9,0-38.1,19.2-38.1,42.6c0,23.6,17,42.6,38.1,42.6
					c20.9,0,37.9-19.2,37.9-42.6C1067.6,525.3,1050.6,506.2,1029.6,506.2z"/>
				<path class="st0" d="M1029.6,603.6c-27.8,0-50.4-24.5-50.4-54.7c0-30.2,22.6-54.7,50.4-54.7c27.8,0,50.4,24.5,50.4,54.7
					C1080.1,579,1057.4,603.6,1029.6,603.6z M1029.6,499.9c-24.5,0-44.5,22-44.5,49c0,27,20,49,44.5,49s44.5-22,44.5-49
					C1074.2,521.9,1054.2,499.9,1029.6,499.9z M1029.6,594.3c-22.6,0-41-20.5-41-45.6c0-25.1,18.4-45.6,41-45.6
					c22.6,0,40.9,20.5,40.9,45.6C1070.6,574,1052.2,594.3,1029.6,594.3z M1029.6,509.2c-19.3,0-35.1,17.8-35.1,39.7
					c0,21.9,15.7,39.7,35.1,39.7c19.3,0,35-17.8,35-39.7C1064.5,527,1049,509.2,1029.6,509.2z"/>
			</g>
			<g>
				<path class="st0" d="M1029.6,601c-26.3,0-47.8-23.4-47.8-52.1c0-28.8,21.4-52.1,47.8-52.1c26.3,0,47.7,23.4,47.7,52.1
					C1077.4,577.5,1056,601,1029.6,601z M1029.6,497.3c-26.1,0-47.2,23.1-47.2,51.6c0,28.4,21.2,51.6,47.2,51.6
					c26.1,0,47.2-23.1,47.2-51.6C1076.8,520.5,1055.6,497.3,1029.6,497.3z M1029.6,591.7c-21.1,0-38.3-19.3-38.3-42.9
					s17.1-42.9,38.3-42.9c21.1,0,38.3,19.3,38.3,42.9C1067.9,572.6,1050.7,591.7,1029.6,591.7z M1029.6,506.5
					c-20.8,0-37.7,19-37.7,42.3c0,23.3,16.9,42.3,37.7,42.3c20.8,0,37.7-19,37.7-42.3C1067.3,525.6,1050.4,506.5,1029.6,506.5z"/>
				<path class="st0" d="M1029.6,603.8c-28,0-50.8-24.6-50.8-55c0-30.3,22.7-55,50.8-55c28,0,50.7,24.6,50.7,55
					C1080.4,579.2,1057.6,603.8,1029.6,603.8z M1029.6,500.2c-24.4,0-44.3,21.9-44.3,48.7c0,26.9,19.9,48.7,44.3,48.7
					c24.4,0,44.3-21.9,44.3-48.7C1073.8,522,1053.9,500.2,1029.6,500.2z M1029.6,594.7c-22.7,0-41.3-20.6-41.3-45.8
					s18.6-45.8,41.3-45.8c22.7,0,41.3,20.6,41.3,45.8S1052.4,594.7,1029.6,594.7z M1029.6,509.4c-19.2,0-34.7,17.7-34.7,39.5
					s15.6,39.5,34.7,39.5s34.7-17.7,34.7-39.5C1064.4,527.1,1048.7,509.4,1029.6,509.4z"/>
			</g>
		</g>
	</g>
</g>
<circle class="st0" cx="885.3" cy="594.1" r="11.7"/>
<circle class="st0" cx="933" cy="484.3" r="11.3"/>
</svg>
