<?xml version="1.0" encoding="utf-8"?>
<!-- Generator: Adobe Illustrator 20.1.0, SVG Export Plug-In . SVG Version: 6.00 Build 0)  -->
<svg version="1.1" id="Layer_1" xmlns="http://www.w3.org/2000/svg" xmlns:xlink="http://www.w3.org/1999/xlink" x="0px" y="0px"
	 viewBox="0 0 1080 1080" style="enable-background:new 0 0 1080 1080;" xml:space="preserve">
<style type="text/css">
	.st0{fill:#FF4401;}
	.st1{fill:#FFB9A9;}
</style>
<path class="st0" d="M308,487v2.4h-4.8V487c0-20.5-21.2-36.5-46.9-36.5c-25.7,0-46.9,16.1-46.9,36.5c0,36.3,103.6,36.3,103.3,77.7
	c0,21.9-25.2,41.1-56.5,41.1c-32,0-56.5-19-56.5-41.1v-2.4h4.8v2.4c0,20.2,23.5,36.5,51.8,36.5c27.6,0,51.7-16.5,51.7-36.5
	c0-37-103.1-36.5-103.3-77.7c0-22.4,22.6-41.1,51.6-41.1S308,464.7,308,487z"/>
<path class="st0" d="M256.5,611.1c-34,0-61.7-20.8-61.7-46.4v-7.6h15.1v7.6c0,17,21.3,31.3,46.6,31.3c24.9,0,46.6-14.6,46.6-31.3
	c0-14.4-23.4-23.2-46.1-31.6c-28.1-10.5-57.1-21.3-57.2-46c0-25.7,25.4-46.5,56.7-46.5s56.7,20.8,56.7,46.4v7.6h-15.1v-7.6
	c0-17.2-18.7-31.3-41.6-31.3s-41.6,14-41.6,31.3c0,13.9,23.3,22.6,45.8,31c28.4,10.6,57.8,21.6,57.6,46.7S289.9,611.1,256.5,611.1z"
	/>
<path class="st1" d="M92.5,529.6c-2.6,0-4.8-2.1-4.8-4.8c0-92.8,75.5-168.3,168.3-168.3c2.6,0,4.8,2.1,4.8,4.8s-2.1,4.8-4.8,4.8
	c-87.5,0-158.6,71.1-158.6,158.6C97.4,527.5,95.4,529.6,92.5,529.6C92.6,529.6,92.6,529.6,92.5,529.6z"/>
<path class="st1" d="M4.8,529.6c-2.6,0-4.8-2.1-4.8-4.8c0-141.2,114.9-256,256-256c2.6,0,4.8,2.1,4.8,4.8s-2.1,4.8-4.8,4.8
	C120.2,278.3,9.6,388.9,9.6,524.7c0,2.6-2,4.8-4.6,4.9C4.9,529.6,4.9,529.6,4.8,529.6z"/>
<path class="st1" d="M256.6,695.3c-2.6,0-4.8-2.1-4.8-4.8s2.1-4.8,4.8-4.8c44,0,86.1-18.3,116.2-50.5c1.8-1.9,4.9-2,6.8-0.2
	c1.9,1.8,2,4.9,0.2,6.8l0,0C348,675.9,303.4,695.3,256.6,695.3z"/>
<path class="st1" d="M256.6,783.1c-2.6,0-4.8-2.1-4.8-4.8s2.1-4.8,4.8-4.8c94.4,0,179.1-52.6,221-137.2c1.2-2.4,4-3.3,6.4-2.1
	c2.4,1.2,3.3,4,2.1,6.4C442.7,728.4,354.7,783.1,256.6,783.1z"/>
<path class="st0" d="M835.3,487v2.4h-4.8V487c0-20.5-21.2-36.5-46.9-36.5c-25.7,0-46.9,16.1-46.9,36.5c0,36.3,103.6,36.3,103.3,77.7
	c0,21.9-25.2,41.1-56.5,41.1c-32,0-56.5-19-56.5-41.1v-2.4h4.8v2.4c0,20.2,23.5,36.5,51.7,36.5c27.6,0,51.7-16.5,51.7-36.5
	c0-37-103.1-36.5-103.3-77.7c0-22.4,22.6-41.1,51.5-41.1C812.5,445.9,835.3,464.7,835.3,487z"/>
<path class="st0" d="M783.7,611.1c-34,0-61.7-20.8-61.7-46.4v-7.6h15.1v7.6c0,17,21.3,31.3,46.6,31.3c24.9,0,46.6-14.6,46.6-31.3
	c0-14.4-23.4-23.2-46.1-31.6c-28.1-10.5-57.1-21.3-57.2-46c0-25.7,25.4-46.5,56.7-46.5c31.3,0,56.7,20.8,56.7,46.4v7.6h-15.1v-7.6
	c0-17.2-18.7-31.3-41.6-31.3c-23,0-41.6,14-41.6,31.3c0,13.9,23.3,22.6,45.8,31c28.4,10.6,57.8,21.6,57.6,46.7
	C845.2,589.8,817.2,611.1,783.7,611.1z"/>
<path class="st0" d="M381.5,603.6v2.4h-4.8V448.1c0-1.3,1.2-2.4,2.5-2.3c0.7,0,1.3,0.4,1.8,0.8l108.6,149.5l0.2-148.1v-2.4h4.8v2.4
	l-0.2,155.4c0,1.3-1.2,2.4-2.5,2.3c-0.7,0-1.3-0.4-1.8-0.8L381.5,455.5V603.6z"/>
<path class="st0" d="M381.5,611.1h-4.8c-2.9,0-5.2-2.4-5.2-5.2l0,0V448.1c0.1-4.2,3.6-7.6,7.7-7.5c2.4,0,4.5,1.2,5.9,3.1l99.1,136.5
	l0.2-134.4c0-2.9,2.4-5.2,5.2-5.2l0,0h4.8c2.9,0,5.2,2.4,5.2,5.2l0,0l-0.2,157.7c-0.1,4.2-3.6,7.5-7.8,7.5c-2.3,0-4.5-1.2-5.9-3
	l-99.1-136.5V606C386.7,608.8,384.5,611.1,381.5,611.1C381.6,611.1,381.5,611.1,381.5,611.1z M494.2,601.8L494.2,601.8z
	 M376.9,449.8L376.9,449.8z"/>
<path class="st0" d="M566.6,604.3l-0.4,1.4h-4.2l1.1-3.3l54.2-155.3c0.2-1,1.3-1.4,2.1-1.2c0.6,0.1,1,0.6,1.2,1.2L675,602.4l1.1,3.3
	h-4.2l-0.4-1.4L619,453.9L566.6,604.3z"/>
<path class="st0" d="M676.2,611.3H672c-2.5,0-4.8-1.7-5.5-4.2l-0.4-1.4l-47.1-134.9L571.6,607c-0.7,2.5-2.9,4.2-5.5,4.2H562
	c-3.1,0-5.6-2.5-5.6-5.6c0-0.6,0.1-1.2,0.2-1.8l1.1-3.3L612,445.1c1.3-3.8,5.5-5.9,9.4-4.6c2.1,0.7,3.9,2.5,4.6,4.6l55.3,158.6
	c1,3-0.6,6.2-3.6,7.1C677.4,611.2,676.8,611.2,676.2,611.3L676.2,611.3z M615.5,448.9L615.5,448.9z M622.8,448.9L622.8,448.9z"/>
<path class="st0" d="M835.3,487v2.4h-4.8V487c0-20.5-21.2-36.5-46.9-36.5c-25.7,0-46.9,16.1-46.9,36.5c0,36.3,103.6,36.3,103.3,77.7
	c0,21.9-25.2,41.1-56.5,41.1c-32,0-56.5-19-56.5-41.1v-2.4h4.8v2.4c0,20.2,23.5,36.5,51.7,36.5c27.6,0,51.7-16.5,51.7-36.5
	c0-37-103.1-36.5-103.3-77.7c0-22.4,22.6-41.1,51.5-41.1C812.5,445.9,835.3,464.7,835.3,487z"/>
<g>
	<g>
		<path class="st0" d="M930.2,518.1v-1.3h5.1v1.3v87.2v1.3h-5.1v-1.3V518.1z"/>
		<rect x="924.6" y="513.7" class="st0" width="16.3" height="96.1"/>
	</g>
</g>
<g>
	<g>
		<g>
			<g>
				<path class="st0" d="M985.1,556.6c0-27,20-48.7,44.2-48.7c24.3,0,44.2,21.6,44.2,48.7c0,27-19.9,48.7-44.2,48.7
					C1005.1,605.2,985.1,583.6,985.1,556.6z M988,556.6c0,25.3,18.6,45.8,41.3,45.8c22.8,0,41.3-20.5,41.3-45.8
					c0-25.3-18.4-45.8-41.3-45.8C1006.6,510.8,988,531.2,988,556.6z"/>
				<path class="st0" d="M1029.3,608.1c-26,0-47.2-23.1-47.2-51.5c0-28.4,21.2-51.5,47.2-51.5c26,0,47.2,23.1,47.2,51.5
					C1076.5,585,1055.3,608.1,1029.3,608.1z M1029.3,513.7c-21.1,0-38.3,19.2-38.3,42.9s17.2,42.9,38.3,42.9
					c21.1,0,38.3-19.2,38.3-42.9S1050.4,513.7,1029.3,513.7z"/>
			</g>
			<g>
				<path class="st0" d="M1029.3,605.5c-24.5,0-44.5-22-44.5-48.9c0-27,20-48.9,44.5-48.9c24.5,0,44.5,21.9,44.5,48.9
					C1073.8,583.6,1053.8,605.5,1029.3,605.5z M1029.3,508.2c-24.2,0-43.9,21.7-43.9,48.4c0,26.7,19.7,48.4,43.9,48.4
					c24.2,0,43.9-21.7,43.9-48.4C1073.2,529.9,1053.5,508.2,1029.3,508.2z M1029.3,602.6c-22.9,0-41.5-20.7-41.5-46.1
					c0-25.4,18.6-46.1,41.5-46.1c22.9,0,41.5,20.7,41.5,46.1C1070.8,582,1052.2,602.6,1029.3,602.6z M1029.3,511
					c-22.6,0-41,20.4-41,45.5s18.4,45.5,41,45.5c22.6,0,41-20.4,41-45.5S1051.9,511,1029.3,511z"/>
				<path class="st0" d="M1029.3,608.4c-26.2,0-47.5-23.2-47.5-51.8c0-28.6,21.3-51.8,47.5-51.8c26.2,0,47.5,23.2,47.5,51.8
					C1076.7,585.1,1055.4,608.4,1029.3,608.4z M1029.3,513.9c-21,0-38,19.1-38,42.6c0,23.5,17.1,42.6,38,42.6c21,0,38-19.1,38-42.6
					C1067.3,533.1,1050.2,513.9,1029.3,513.9z"/>
			</g>
		</g>
		<g>
			<g>
				<path class="st0" d="M1029.3,608.4c-26.2,0-47.5-23.3-47.5-51.8s21.3-51.8,47.5-51.8s47.5,23.2,47.5,51.8
					S1055.5,608.4,1029.3,608.4z M1029.3,513.9c-21,0-38,19.1-38,42.6s17,42.6,38,42.6c20.9,0,38-19.1,38-42.6
					S1050.2,513.9,1029.3,513.9z"/>
				<path class="st0" d="M1029.3,611.3c-27.8,0-50.4-24.5-50.4-54.7c0-30.2,22.6-54.7,50.4-54.7c27.8,0,50.4,24.5,50.4,54.7
					C1079.7,586.7,1057.1,611.3,1029.3,611.3z M1029.3,507.6c-24.5,0-44.5,22-44.5,48.9c0,27,20,48.9,44.5,48.9
					c24.5,0,44.5-22,44.5-48.9C1073.8,529.6,1053.8,507.6,1029.3,507.6z M1029.3,602.1c-22.6,0-41-20.4-41-45.5s18.4-45.5,41-45.5
					c22.6,0,41,20.4,41,45.5S1051.9,602.1,1029.3,602.1z M1029.3,516.8c-19.3,0-35,17.8-35,39.7s15.7,39.7,35,39.7
					c19.3,0,35-17.8,35-39.7S1048.6,516.8,1029.3,516.8z"/>
			</g>
			<g>
				<path class="st0" d="M1029.3,608.7c-26.3,0-47.7-23.4-47.7-52.1c0-28.7,21.4-52.1,47.7-52.1c26.3,0,47.7,23.4,47.7,52.1
					C1077,585.3,1055.6,608.7,1029.3,608.7z M1029.3,505c-26,0-47.2,23.1-47.2,51.6c0,28.4,21.2,51.6,47.2,51.6
					c26,0,47.2-23.1,47.2-51.6C1076.5,528.1,1055.3,505,1029.3,505z M1029.3,599.5c-21.1,0-38.3-19.2-38.3-42.9
					c0-23.7,17.2-42.9,38.3-42.9c21.1,0,38.3,19.2,38.3,42.9C1067.6,580.2,1050.4,599.5,1029.3,599.5z M1029.3,514.2
					c-20.8,0-37.7,19-37.7,42.4s16.9,42.4,37.7,42.4c20.8,0,37.7-19,37.7-42.4S1050.1,514.2,1029.3,514.2z"/>
				<path class="st0" d="M1029.3,611.6c-28,0-50.7-24.7-50.7-55c0-30.3,22.8-55,50.7-55c28,0,50.7,24.7,50.7,55
					C1080,586.9,1057.2,611.6,1029.3,611.6z M1029.3,507.9c-24.4,0-44.2,21.8-44.2,48.7c0,26.8,19.8,48.7,44.2,48.7
					c24.4,0,44.2-21.8,44.2-48.7C1073.5,529.7,1053.7,507.9,1029.3,507.9z M1029.3,602.4c-22.7,0-41.2-20.5-41.2-45.8
					s18.5-45.8,41.2-45.8c22.7,0,41.2,20.5,41.2,45.8S1052,602.4,1029.3,602.4z M1029.3,517.1c-19.2,0-34.7,17.7-34.7,39.5
					c0,21.8,15.6,39.5,34.7,39.5c19.2,0,34.7-17.7,34.7-39.5C1064,534.8,1048.4,517.1,1029.3,517.1z"/>
			</g>
		</g>
	</g>
</g>
<circle class="st0" cx="885" cy="601.8" r="11.7"/>
<circle class="st0" cx="932.7" cy="492.1" r="11.3"/>
</svg>
