<?xml version="1.0" encoding="utf-8"?>
<!-- Generator: Adobe Illustrator 20.1.0, SVG Export Plug-In . SVG Version: 6.00 Build 0)  -->
<svg version="1.1" id="Layer_1" xmlns="http://www.w3.org/2000/svg" xmlns:xlink="http://www.w3.org/1999/xlink" x="0px" y="0px"
	 viewBox="0 0 1080 1080" style="enable-background:new 0 0 1080 1080;" xml:space="preserve">
<style type="text/css">
	.st0{fill:#FF4401;}
	.st1{fill:#3F95D1;}
</style>
<path class="st0" d="M308.1,498.3v2.4h-4.8v-2.4c0-20.5-21.2-36.5-46.9-36.5s-46.9,16.1-46.9,36.5c0,36.3,103.6,36.3,103.4,77.7
	c0,21.9-25.2,41.2-56.5,41.2c-32,0-56.5-19-56.5-41.2v-2.4h4.8v2.4c0,20.2,23.6,36.5,51.9,36.5c27.6,0,51.7-16.5,51.7-36.5
	c0-37-103.1-36.5-103.4-77.7c0-22.4,22.6-41.2,51.6-41.2C285.6,457.2,308.1,476,308.1,498.3z"/>
<path class="st0" d="M256.6,622.4c-34,0-61.7-20.8-61.7-46.4v-7.6h15.1v7.6c0,17,21.3,31.3,46.6,31.3c24.9,0,46.6-14.6,46.6-31.3
	c0-14.4-23.4-23.2-46.2-31.6c-28.1-10.5-57.1-21.3-57.2-46c0-25.7,25.5-46.5,56.7-46.5s56.7,20.8,56.7,46.4v7.6h-15.1v-7.6
	c0-17.2-18.7-31.3-41.6-31.3s-41.6,14-41.6,31.3c0,13.9,23.3,22.6,45.8,31c28.4,10.6,57.8,21.6,57.6,46.7
	C318.1,601.1,290,622.4,256.6,622.4z"/>
<path class="st1" d="M92.5,540.9c-2.6,0-4.8-2.1-4.8-4.8c0-92.8,75.5-168.3,168.3-168.3c2.6,0,4.8,2.1,4.8,4.8
	c0,2.6-2.1,4.8-4.8,4.8c-87.5,0-158.7,71.1-158.7,158.7C97.4,538.8,95.4,540.9,92.5,540.9C92.7,540.9,92.7,540.9,92.5,540.9z"/>
<path class="st1" d="M4.8,540.9c-2.6,0-4.8-2.1-4.8-4.8C0,395,114.9,280.1,256.1,280.1c2.6,0,4.8,2.1,4.8,4.8s-2.1,4.8-4.8,4.8
	C120.3,289.6,9.6,400.2,9.6,536c0,2.6-2,4.8-4.6,4.9C4.9,540.9,4.9,540.9,4.8,540.9z"/>
<path class="st1" d="M256.7,706.6c-2.6,0-4.8-2.1-4.8-4.8c0-2.6,2.1-4.8,4.8-4.8c44,0,86.1-18.3,116.2-50.6c1.8-1.9,4.9-2,6.8-0.2
	c1.9,1.8,2,4.9,0.2,6.8l0,0C348,687.2,303.4,706.6,256.7,706.6z"/>
<path class="st1" d="M256.7,794.5c-2.6,0-4.8-2.1-4.8-4.8c0-2.6,2.1-4.8,4.8-4.8c94.4,0,179.1-52.6,221-137.3c1.2-2.4,4-3.3,6.4-2.1
	c2.4,1.2,3.3,4,2.1,6.4C442.8,739.8,354.8,794.5,256.7,794.5z"/>
<path class="st0" d="M835.5,498.3v2.4h-4.8v-2.4c0-20.5-21.2-36.5-46.9-36.5S737,477.9,737,498.3c0,36.3,103.6,36.3,103.4,77.7
	c0,21.9-25.2,41.2-56.5,41.2c-32,0-56.5-19-56.5-41.2v-2.4h4.8v2.4c0,20.2,23.6,36.5,51.7,36.5c27.6,0,51.7-16.5,51.7-36.5
	c0-37-103.1-36.5-103.4-77.7c0-22.4,22.6-41.2,51.5-41.2C812.6,457.2,835.5,476,835.5,498.3z"/>
<path class="st0" d="M783.8,622.4c-34,0-61.7-20.8-61.7-46.4v-7.6h15.1v7.6c0,17,21.3,31.3,46.6,31.3c24.9,0,46.6-14.6,46.6-31.3
	c0-14.4-23.4-23.2-46.2-31.6c-28.1-10.5-57.1-21.3-57.2-46c0-25.7,25.5-46.5,56.7-46.5c31.3,0,56.7,20.8,56.7,46.4v7.6h-15.1v-7.6
	c0-17.2-18.7-31.3-41.6-31.3s-41.6,14-41.6,31.3c0,13.9,23.3,22.6,45.8,31c28.4,10.6,57.8,21.6,57.6,46.7
	C845.3,601.1,817.4,622.4,783.8,622.4z"/>
<path class="st0" d="M381.6,614.9v2.4h-4.8V459.4c0-1.3,1.2-2.4,2.5-2.3c0.7,0,1.3,0.4,1.8,0.8l108.6,149.5l0.2-148.1v-2.4h4.8v2.4
	l-0.2,155.5c0,1.3-1.2,2.4-2.5,2.3c-0.7,0-1.3-0.4-1.8-0.8L381.6,466.8V614.9z"/>
<path class="st0" d="M381.6,622.4h-4.8c-2.9,0-5.2-2.4-5.2-5.2l0,0V459.4c0.1-4.2,3.6-7.6,7.7-7.5c2.4,0,4.5,1.2,5.9,3.1l99.1,136.5
	l0.2-134.4c0-2.9,2.4-5.2,5.2-5.2l0,0h4.8c2.9,0,5.2,2.4,5.2,5.2l0,0l-0.2,157.7c-0.1,4.2-3.6,7.5-7.9,7.5c-2.3,0-4.5-1.2-5.9-3
	l-99.1-136.5v134.4C386.8,620.1,384.5,622.4,381.6,622.4C381.7,622.4,381.6,622.4,381.6,622.4z M494.3,613.1L494.3,613.1z
	 M376.9,461.1L376.9,461.1z"/>
<path class="st0" d="M566.8,615.6l-0.4,1.4h-4.2l1.1-3.3l54.2-155.3c0.2-1,1.3-1.4,2.1-1.2c0.6,0.1,1,0.6,1.2,1.2l54.2,155.3
	l1.1,3.3H672l-0.4-1.4l-52.6-150.5L566.8,615.6z"/>
<path class="st0" d="M676.3,622.6h-4.2c-2.5,0-4.8-1.7-5.5-4.2l-0.4-1.4l-47.1-134.9l-47.5,136.2c-0.7,2.5-2.9,4.2-5.5,4.2h-4.2
	c-3.1,0-5.6-2.5-5.6-5.6c0-0.6,0.1-1.2,0.2-1.8l1.1-3.3l54.2-155.5c1.3-3.8,5.5-5.9,9.4-4.6c2.1,0.7,3.9,2.5,4.6,4.6L681.4,615
	c1,3-0.6,6.2-3.6,7.1C677.5,622.5,676.9,622.5,676.3,622.6L676.3,622.6z M615.7,460.1L615.7,460.1z M622.9,460.1L622.9,460.1z"/>
<g>
	<g>
		<path class="st0" d="M930.4,529.4v-1.3h5.1v1.3v87.2v1.3h-5.1v-1.3V529.4z"/>
		<rect x="924.8" y="525" class="st0" width="16.3" height="96.1"/>
	</g>
</g>
<g>
	<g>
		<g>
			<g>
				<path class="st0" d="M985.3,567.9c0-27.1,20-48.7,44.2-48.7c24.3,0,44.2,21.6,44.2,48.7c0,27.1-19.9,48.7-44.2,48.7
					C1005.3,616.6,985.3,594.9,985.3,567.9z M988.2,567.9c0,25.3,18.6,45.8,41.3,45.8c22.8,0,41.3-20.5,41.3-45.8
					c0-25.3-18.4-45.8-41.3-45.8C1006.8,522.1,988.2,542.5,988.2,567.9z"/>
				<path class="st0" d="M1029.5,619.4c-26,0-47.2-23.1-47.2-51.6c0-28.4,21.2-51.6,47.2-51.6c26,0,47.2,23.1,47.2,51.6
					C1076.7,596.3,1055.5,619.4,1029.5,619.4z M1029.5,525c-21.1,0-38.3,19.3-38.3,42.9c0,23.7,17.2,42.9,38.3,42.9
					c21.1,0,38.3-19.3,38.3-42.9C1067.8,544.2,1050.6,525,1029.5,525z"/>
			</g>
			<g>
				<path class="st0" d="M1029.5,616.8c-24.5,0-44.5-22-44.5-48.9c0-27,20-48.9,44.5-48.9c24.5,0,44.5,22,44.5,48.9
					C1074,594.9,1054,616.8,1029.5,616.8z M1029.5,519.5c-24.2,0-43.9,21.7-43.9,48.4c0,26.7,19.7,48.4,43.9,48.4
					c24.2,0,43.9-21.7,43.9-48.4C1073.4,541.2,1053.7,519.5,1029.5,519.5z M1029.5,614c-22.9,0-41.5-20.7-41.5-46.1
					c0-25.4,18.6-46.1,41.5-46.1c22.9,0,41.5,20.7,41.5,46.1C1071,593.3,1052.4,614,1029.5,614z M1029.5,522.3
					c-22.6,0-41,20.4-41,45.5c0,25.1,18.4,45.5,41,45.5c22.6,0,41-20.4,41-45.5C1070.5,542.8,1052.1,522.3,1029.5,522.3z"/>
				<path class="st0" d="M1029.5,619.7c-26.2,0-47.5-23.3-47.5-51.8c0-28.6,21.3-51.8,47.5-51.8c26.2,0,47.5,23.2,47.5,51.8
					C1077,596.5,1055.7,619.7,1029.5,619.7z M1029.5,525.2c-21,0-38,19.1-38,42.6c0,23.5,17.1,42.6,38,42.6c21,0,38-19.1,38-42.6
					C1067.5,544.4,1050.5,525.2,1029.5,525.2z"/>
			</g>
		</g>
		<g>
			<g>
				<path class="st0" d="M1029.5,619.7c-26.2,0-47.5-23.3-47.5-51.8s21.3-51.8,47.5-51.8c26.2,0,47.5,23.3,47.5,51.8
					S1055.7,619.7,1029.5,619.7z M1029.5,525.2c-21,0-38,19.1-38,42.6s17,42.6,38,42.6c21,0,38-19.1,38-42.6
					S1050.5,525.2,1029.5,525.2z"/>
				<path class="st0" d="M1029.5,622.6c-27.8,0-50.5-24.6-50.5-54.7c0-30.2,22.6-54.7,50.5-54.7c27.8,0,50.4,24.5,50.4,54.7
					C1080,598.1,1057.3,622.6,1029.5,622.6z M1029.5,518.9c-24.5,0-44.5,22-44.5,48.9c0,27,20,49,44.5,49c24.5,0,44.5-22,44.5-49
					C1074,540.9,1054,518.9,1029.5,518.9z M1029.5,613.4c-22.6,0-41-20.4-41-45.5c0-25.1,18.4-45.5,41-45.5c22.6,0,41,20.4,41,45.5
					C1070.5,593,1052.1,613.4,1029.5,613.4z M1029.5,528.1c-19.3,0-35,17.8-35,39.7c0,21.9,15.7,39.7,35,39.7
					c19.3,0,35-17.8,35-39.7C1064.5,546,1048.8,528.1,1029.5,528.1z"/>
			</g>
			<g>
				<path class="st0" d="M1029.5,620c-26.3,0-47.8-23.4-47.8-52.1c0-28.7,21.4-52.1,47.8-52.1c26.3,0,47.8,23.4,47.8,52.1
					C1077.3,596.6,1055.8,620,1029.5,620z M1029.5,516.3c-26,0-47.2,23.1-47.2,51.6c0,28.4,21.2,51.6,47.2,51.6
					c26,0,47.2-23.1,47.2-51.6C1076.7,539.4,1055.5,516.3,1029.5,516.3z M1029.5,610.8c-21.1,0-38.3-19.2-38.3-42.9
					c0-23.7,17.2-42.9,38.3-42.9c21.1,0,38.3,19.2,38.3,42.9C1067.8,591.5,1050.6,610.8,1029.5,610.8z M1029.5,525.5
					c-20.8,0-37.7,19-37.7,42.4c0,23.4,16.9,42.4,37.7,42.4c20.8,0,37.7-19,37.7-42.4C1067.2,544.5,1050.3,525.5,1029.5,525.5z"/>
				<path class="st0" d="M1029.5,622.9c-28,0-50.7-24.7-50.7-55c0-30.3,22.8-55,50.7-55c28,0,50.7,24.7,50.7,55
					C1080.2,598.2,1057.5,622.9,1029.5,622.9z M1029.5,519.2c-24.4,0-44.2,21.8-44.2,48.7c0,26.8,19.8,48.7,44.2,48.7
					c24.4,0,44.2-21.8,44.2-48.7C1073.7,541,1053.9,519.2,1029.5,519.2z M1029.5,613.7c-22.7,0-41.3-20.5-41.3-45.8
					c0-25.3,18.5-45.8,41.3-45.8c22.7,0,41.3,20.5,41.3,45.8C1070.8,593.1,1052.3,613.7,1029.5,613.7z M1029.5,528.4
					c-19.2,0-34.8,17.7-34.8,39.5c0,21.8,15.6,39.5,34.8,39.5c19.2,0,34.7-17.7,34.7-39.5C1064.3,546.1,1048.7,528.4,1029.5,528.4z"
					/>
			</g>
		</g>
	</g>
</g>
<circle class="st0" cx="885.2" cy="613.1" r="11.7"/>
<circle class="st0" cx="932.9" cy="503.4" r="11.3"/>
</svg>
