<?xml version="1.0" encoding="utf-8"?>
<!-- Generator: Adobe Illustrator 20.1.0, SVG Export Plug-In . SVG Version: 6.00 Build 0)  -->
<svg version="1.1" id="Layer_1" xmlns="http://www.w3.org/2000/svg" xmlns:xlink="http://www.w3.org/1999/xlink" x="0px" y="0px"
	 viewBox="0 0 1080 1080" style="enable-background:new 0 0 1080 1080;" xml:space="preserve">
<style type="text/css">
	.st0{fill:#414042;}
	.st1{fill:#BCBEC0;}
</style>
<path class="st0" d="M308,500.6v2.4h-4.8v-2.4c0-20.5-21.2-36.5-46.8-36.5s-46.8,16-46.8,36.5c0,36.3,103.6,36.3,103.3,77.7
	c0,21.9-25.2,41.2-56.5,41.2c-32,0-56.5-19-56.5-41.2v-2.4h4.8v2.4c0,20.2,23.5,36.5,51.8,36.5c27.5,0,51.8-16.5,51.8-36.5
	c0-37-103.1-36.5-103.3-77.7c0-22.4,22.6-41.2,51.6-41.2C285.4,459.4,308,478.2,308,500.6z"/>
<path class="st0" d="M256.5,624.7c-34,0-61.7-20.8-61.7-46.4v-7.6h15.1v7.6c0,17,21.3,31.3,46.6,31.3c24.8,0,46.6-14.6,46.6-31.3
	c0-14.4-23.4-23.1-46.1-31.6c-28-10.5-57.1-21.3-57.2-46.1c0-25.6,25.5-46.4,56.8-46.4s56.8,20.8,56.8,46.4v7.6h-15.1v-7.6
	c0-17.2-18.7-31.3-41.6-31.3c-22.9,0-41.6,14-41.6,31.3c0,13.9,23.3,22.6,45.7,31c28.4,10.6,57.7,21.6,57.6,46.7
	C318,603.4,289.9,624.7,256.5,624.7z"/>
<path class="st1" d="M92.6,543.2c-2.6,0-4.8-2.1-4.8-4.8c0-92.7,75.5-168.2,168.2-168.2c2.7,0,4.8,2.2,4.8,4.8s-2.2,4.8-4.8,4.8
	c-87.5,0-158.6,71.2-158.6,158.6c0,2.6-2.1,4.8-4.8,4.8C92.6,543.2,92.6,543.2,92.6,543.2z"/>
<path class="st1" d="M4.8,543.2c-2.6,0-4.8-2.1-4.8-4.8c0-141.2,114.8-256,256-256c2.7,0,4.8,2.2,4.8,4.8c0,2.7-2.2,4.8-4.8,4.8
	C120.2,292.1,9.6,402.6,9.6,538.4c0,2.6-2.1,4.8-4.7,4.8C4.9,543.2,4.8,543.2,4.8,543.2z"/>
<path class="st1" d="M256.6,708.9c-2.7,0-4.8-2.2-4.8-4.8s2.2-4.8,4.8-4.8c44-0.1,86.1-18.4,116.1-50.5c1.8-1.9,4.9-2.1,6.8-0.2
	s2.1,4.9,0.2,6.8l0,0C347.9,689.4,303.3,708.8,256.6,708.9z"/>
<path class="st1" d="M256.6,796.6c-2.7,0-4.8-2.2-4.8-4.8s2.2-4.8,4.8-4.8c94.4,0,179.1-52.6,221-137.2c1.2-2.4,4.1-3.4,6.4-2.2
	c2.4,1.2,3.4,4.1,2.2,6.4C442.7,742,354.7,796.6,256.6,796.6z"/>
<path class="st0" d="M835.2,500.6v2.4h-4.8v-2.4c0-20.5-21.2-36.5-46.8-36.5c-25.7,0-46.8,16-46.8,36.5
	c0,36.3,103.6,36.3,103.3,77.7c0,21.9-25.2,41.2-56.5,41.2c-32,0-56.5-19-56.5-41.2v-2.4h4.8v2.4c0,20.2,23.5,36.5,51.8,36.5
	c27.5,0,51.8-16.5,51.8-36.5c0-37-103.1-36.5-103.3-77.7c0-22.4,22.6-41.2,51.5-41.2S835.2,478.2,835.2,500.6z"/>
<path class="st0" d="M783.6,624.7c-34,0-61.7-20.8-61.7-46.4v-7.6H737v7.6c0,17,21.3,31.3,46.6,31.3c24.8,0,46.6-14.6,46.6-31.3
	c0-14.4-23.4-23.1-46.1-31.6c-28-10.5-57.1-21.3-57.2-46.1c0-25.6,25.5-46.4,56.8-46.4s56.8,20.8,56.8,46.4v7.6h-15.1v-7.6
	c0-17.2-18.7-31.3-41.6-31.3c-22.9,0-41.6,14-41.6,31.3c0,13.9,23.3,22.6,45.7,31c28.4,10.6,57.7,21.6,57.6,46.7
	C845.2,603.4,817,624.7,783.6,624.7z"/>
<path class="st0" d="M381.5,617.1v2.4h-4.8V461.7c0-1.3,1.1-2.3,2.4-2.3c0.7,0,1.3,0.3,1.8,0.9l108.5,149.5l0.2-148.1v-2.4h4.8v2.4
	l-0.2,155.4c0,1.3-1.1,2.3-2.4,2.3c-0.7,0-1.3-0.3-1.8-0.9L381.5,469.1V617.1z"/>
<path class="st0" d="M381.5,624.7h-4.8c-2.9,0-5.2-2.3-5.2-5.2c0,0,0,0,0,0V461.7c0.1-4.2,3.5-7.6,7.8-7.5c2.4,0,4.6,1.2,6,3.1
	l99.1,136.5l0.2-134.4c0-2.9,2.3-5.2,5.2-5.2c0,0,0,0,0,0h4.8c2.9,0,5.2,2.3,5.2,5.2c0,0,0,0,0,0l-0.3,157.7
	c-0.1,4.2-3.6,7.5-7.8,7.4c-2.3-0.1-4.5-1.2-5.9-3l-99-136.5v134.4C386.7,622.3,384.4,624.7,381.5,624.7
	C381.5,624.7,381.5,624.7,381.5,624.7z M494.2,615.4L494.2,615.4z M376.8,463.4L376.8,463.4z"/>
<path class="st0" d="M566.6,617.8l-0.4,1.4h-4.1l1.1-3.3l54.2-155.3c0.3-0.9,1.3-1.5,2.2-1.2c0.6,0.2,1,0.6,1.2,1.2L675,615.9
	l1.1,3.3H672l-0.4-1.4l-52.5-150.4L566.6,617.8z"/>
<path class="st0" d="M676.1,624.9H672c-2.5,0-4.8-1.7-5.4-4.2l-0.4-1.4l-47.1-134.8l-47.5,136.2c-0.7,2.5-2.9,4.2-5.4,4.2h-4.1
	c-3.1,0-5.6-2.5-5.6-5.6c0-0.6,0.1-1.2,0.3-1.8l1.1-3.3l54.2-155.4c1.3-3.9,5.5-5.9,9.3-4.6c2.2,0.7,3.9,2.4,4.6,4.6l55.3,158.7
	c1,2.9-0.6,6.1-3.5,7.1C677.3,624.7,676.7,624.8,676.1,624.9L676.1,624.9z M615.5,462.5L615.5,462.5z M622.7,462.5L622.7,462.5z"/>
<g>
	<g>
		<path class="st0" d="M930.1,531.7v-1.3h5.1v1.3v87.2v1.3h-5.1v-1.3V531.7z"/>
		<rect x="924.5" y="527.2" class="st0" width="16.3" height="96.1"/>
	</g>
</g>
<g>
	<g>
		<g>
			<g>
				<path class="st0" d="M985,570.1c0-27,20-48.7,44.2-48.7c24.3,0,44.2,21.6,44.2,48.7c0,27-19.9,48.7-44.2,48.7
					C1005,618.8,985,597.2,985,570.1z M987.9,570.1c0,25.3,18.6,45.8,41.3,45.8c22.8,0,41.2-20.5,41.2-45.8
					c0-25.3-18.4-45.8-41.2-45.8C1006.5,524.4,987.9,544.8,987.9,570.1z"/>
				<path class="st0" d="M1029.2,621.7c-26,0-47.2-23.1-47.2-51.5c0-28.4,21.2-51.5,47.2-51.5c26,0,47.2,23.1,47.2,51.5
					C1076.3,598.6,1055.2,621.7,1029.2,621.7z M1029.2,527.2c-21.1,0-38.3,19.2-38.3,42.9s17.2,42.9,38.3,42.9
					c21.1,0,38.3-19.2,38.3-42.9S1050.3,527.2,1029.2,527.2z"/>
			</g>
			<g>
				<path class="st0" d="M1029.2,619.1c-24.5,0-44.5-21.9-44.5-48.9c0-27,20-48.9,44.5-48.9c24.5,0,44.5,21.9,44.5,48.9
					C1073.6,597.1,1053.7,619.1,1029.2,619.1z M1029.2,521.8c-24.2,0-43.9,21.7-43.9,48.4c0,26.7,19.7,48.4,43.9,48.4
					c24.2,0,43.9-21.7,43.9-48.4C1073.1,543.5,1053.4,521.8,1029.2,521.8z M1029.2,616.2c-22.9,0-41.5-20.7-41.5-46.1
					c0-25.4,18.6-46.1,41.5-46.1c22.9,0,41.5,20.7,41.5,46.1C1070.7,595.5,1052.1,616.2,1029.2,616.2z M1029.2,524.6
					c-22.6,0-41,20.4-41,45.5c0,25.1,18.4,45.5,41,45.5c22.6,0,41-20.4,41-45.5C1070.1,545.1,1051.7,524.6,1029.2,524.6z"/>
				<path class="st0" d="M1029.2,622c-26.2,0-47.5-23.2-47.5-51.8c0-28.6,21.3-51.8,47.5-51.8c26.2,0,47.4,23.2,47.4,51.8
					C1076.6,598.7,1055.3,622,1029.2,622z M1029.2,527.5c-21,0-38,19.1-38,42.6s17,42.6,38,42.6c21,0,38-19.1,38-42.6
					S1050.1,527.5,1029.2,527.5z"/>
			</g>
		</g>
		<g>
			<g>
				<path class="st0" d="M1029.2,622c-26.2,0-47.5-23.2-47.5-51.8c0-28.6,21.3-51.8,47.5-51.8c26.2,0,47.5,23.2,47.5,51.8
					C1076.6,598.7,1055.3,622,1029.2,622z M1029.2,527.5c-21,0-38,19.1-38,42.6s17,42.6,38,42.6c20.9,0,38-19.1,38-42.6
					S1050.1,527.5,1029.2,527.5z"/>
				<path class="st0" d="M1029.2,624.9c-27.8,0-50.4-24.5-50.4-54.7c0-30.2,22.6-54.7,50.4-54.7c27.8,0,50.4,24.5,50.4,54.7
					C1079.6,600.3,1057,624.9,1029.2,624.9z M1029.2,521.2c-24.5,0-44.5,22-44.5,48.9c0,27,20,48.9,44.5,48.9
					c24.5,0,44.5-22,44.5-48.9C1073.6,543.2,1053.7,521.2,1029.2,521.2z M1029.2,615.7c-22.6,0-41-20.4-41-45.5s18.4-45.5,41-45.5
					c22.6,0,41,20.4,41,45.5S1051.7,615.7,1029.2,615.7z M1029.2,530.4c-19.3,0-35,17.8-35,39.7s15.7,39.7,35,39.7
					c19.3,0,35-17.8,35-39.7S1048.5,530.4,1029.2,530.4z"/>
			</g>
			<g>
				<path class="st0" d="M1029.2,622.2c-26.3,0-47.7-23.4-47.7-52.1c0-28.7,21.4-52.1,47.7-52.1c26.3,0,47.7,23.4,47.7,52.1
					C1076.9,598.9,1055.5,622.2,1029.2,622.2z M1029.2,518.6c-26,0-47.2,23.1-47.2,51.5c0,28.4,21.2,51.6,47.2,51.6
					c26,0,47.2-23.1,47.2-51.6C1076.3,541.7,1055.2,518.6,1029.2,518.6z M1029.2,613c-21.1,0-38.3-19.2-38.3-42.9
					c0-23.7,17.2-42.9,38.3-42.9c21.1,0,38.3,19.2,38.3,42.9C1067.4,593.8,1050.3,613,1029.2,613z M1029.2,527.8
					c-20.8,0-37.7,19-37.7,42.4s16.9,42.4,37.7,42.4c20.8,0,37.7-19,37.7-42.4S1049.9,527.8,1029.2,527.8z"/>
				<path class="st0" d="M1029.2,625.1c-28,0-50.7-24.7-50.7-55c0-30.3,22.8-55,50.7-55c28,0,50.7,24.7,50.7,55
					C1079.9,600.5,1057.1,625.1,1029.2,625.1z M1029.2,521.5c-24.4,0-44.2,21.8-44.2,48.7c0,26.8,19.8,48.7,44.2,48.7
					c24.4,0,44.2-21.8,44.2-48.7C1073.4,543.3,1053.5,521.5,1029.2,521.5z M1029.2,615.9c-22.7,0-41.2-20.5-41.2-45.8
					s18.5-45.8,41.2-45.8c22.7,0,41.2,20.5,41.2,45.8S1051.9,615.9,1029.2,615.9z M1029.2,530.7c-19.2,0-34.7,17.7-34.7,39.5
					s15.6,39.5,34.7,39.5c19.2,0,34.7-17.7,34.7-39.5S1048.3,530.7,1029.2,530.7z"/>
			</g>
		</g>
	</g>
</g>
<circle class="st0" cx="884.9" cy="615.4" r="11.7"/>
<circle class="st0" cx="932.6" cy="505.6" r="11.3"/>
</svg>
