<?xml version="1.0" encoding="utf-8"?>
<!-- Generator: Adobe Illustrator 20.1.0, SVG Export Plug-In . SVG Version: 6.00 Build 0)  -->
<svg version="1.1" id="Layer_1" xmlns="http://www.w3.org/2000/svg" xmlns:xlink="http://www.w3.org/1999/xlink" x="0px" y="0px"
	 viewBox="0 0 1080 1080" style="enable-background:new 0 0 1080 1080;" xml:space="preserve">
<path d="M308.1,486.2v2.4h-4.8v-2.4c0-20.5-21.2-36.5-46.9-36.5c-25.7,0-46.9,16-46.9,36.5c0,36.3,103.6,36.3,103.4,77.7
	c0,21.9-25.2,41.2-56.5,41.2c-32,0-56.5-19-56.5-41.2v-2.4h4.8v2.4c0,20.2,23.5,36.5,51.8,36.5c27.5,0,51.8-16.5,51.8-36.5
	c0-37-103.1-36.5-103.4-77.7c0-22.4,22.6-41.2,51.6-41.2S308.1,463.8,308.1,486.2z"/>
<path d="M256.6,610.4c-34,0-61.7-20.8-61.7-46.4v-7.6H210v7.6c0,17,21.3,31.3,46.6,31.3c24.8,0,46.6-14.6,46.6-31.3
	c0-14.4-23.5-23.1-46.2-31.6c-28.1-10.5-57.1-21.3-57.2-46.1c0-25.6,25.5-46.5,56.8-46.5s56.8,20.8,56.8,46.4v7.6h-15.1v-7.6
	c0-17.2-18.7-31.3-41.6-31.3s-41.6,14-41.6,31.3c0,13.9,23.3,22.6,45.8,31c28.4,10.6,57.8,21.6,57.6,46.7
	C318.2,589,290,610.4,256.6,610.4z"/>
<path d="M92.6,528.9c-2.6,0-4.8-2.1-4.8-4.8c0-92.8,75.5-168.3,168.3-168.3c2.7,0,4.8,2.2,4.8,4.8s-2.2,4.8-4.8,4.8
	c-87.5,0-158.7,71.2-158.7,158.7c0,2.6-2.1,4.8-4.8,4.8C92.7,528.9,92.6,528.9,92.6,528.9z"/>
<path d="M4.8,528.9c-2.6,0-4.8-2.1-4.8-4.8C0,382.9,114.9,268,256.1,268c2.7,0,4.8,2.2,4.8,4.8c0,2.7-2.2,4.8-4.8,4.8
	C120.2,277.6,9.6,388.2,9.6,524.1c0,2.6-2.1,4.8-4.7,4.8C4.9,528.9,4.8,528.9,4.8,528.9z"/>
<path d="M256.7,694.6c-2.7,0-4.8-2.2-4.8-4.8c0-2.7,2.2-4.8,4.8-4.8c44.1-0.1,86.1-18.4,116.2-50.6c1.8-1.9,4.9-2.1,6.8-0.2
	c1.9,1.8,2.1,4.9,0.2,6.8l0,0C348,675.1,303.4,694.5,256.7,694.6z"/>
<path d="M256.7,782.4c-2.7,0-4.8-2.2-4.8-4.8c0-2.7,2.2-4.8,4.8-4.8c94.5,0,179.2-52.6,221.1-137.2c1.2-2.4,4.1-3.4,6.4-2.2
	c2.4,1.2,3.4,4.1,2.2,6.4C442.9,727.8,354.9,782.4,256.7,782.4z"/>
<path d="M835.5,486.2v2.4h-4.8v-2.4c0-20.5-21.2-36.5-46.9-36.5c-25.7,0-46.9,16-46.9,36.5c0,36.3,103.6,36.3,103.4,77.7
	c0,21.9-25.2,41.2-56.5,41.2c-32,0-56.5-19-56.5-41.2v-2.4h4.8v2.4c0,20.2,23.5,36.5,51.8,36.5c27.6,0,51.8-16.5,51.8-36.5
	c0-37-103.1-36.5-103.4-77.7c0-22.4,22.6-41.2,51.6-41.2C812.9,445,835.5,463.8,835.5,486.2z"/>
<path d="M783.9,610.4c-34,0-61.7-20.8-61.7-46.4v-7.6h15.1v7.6c0,17,21.3,31.3,46.6,31.3c24.8,0,46.6-14.6,46.6-31.3
	c0-14.4-23.5-23.1-46.1-31.6c-28.1-10.5-57.1-21.3-57.2-46.1c0-25.6,25.5-46.5,56.8-46.5c31.3,0,56.8,20.8,56.8,46.4v7.6h-15.2v-7.6
	c0-17.2-18.7-31.3-41.6-31.3c-22.9,0-41.6,14-41.6,31.3c0,13.9,23.3,22.6,45.8,31c28.4,10.6,57.8,21.6,57.6,46.7
	C845.5,589,817.4,610.4,783.9,610.4z"/>
<path d="M381.7,602.8v2.4h-4.8V447.3c0-1.3,1.1-2.3,2.4-2.3c0.7,0,1.3,0.3,1.8,0.9l108.6,149.5l0.2-148.1V445h4.8v2.4l-0.2,155.4
	c0,1.3-1.1,2.3-2.4,2.3c-0.7,0-1.3-0.3-1.8-0.9L381.7,454.7V602.8z"/>
<path d="M381.7,610.4h-4.8c-2.9,0-5.2-2.3-5.2-5.2c0,0,0,0,0,0V447.3c0.1-4.2,3.5-7.6,7.8-7.5c2.4,0,4.6,1.2,6,3.1l99.1,136.5
	l0.2-134.4c0-2.9,2.3-5.2,5.2-5.2c0,0,0,0,0,0h4.8c2.9,0,5.2,2.3,5.2,5.2c0,0,0,0,0,0l-0.3,157.7c-0.1,4.2-3.6,7.5-7.8,7.4
	c-2.3-0.1-4.5-1.2-5.9-3l-99-136.5v134.4C386.9,608,384.6,610.3,381.7,610.4C381.7,610.4,381.7,610.4,381.7,610.4z M494.4,601
	L494.4,601z M377,449L377,449z"/>
<path d="M566.8,603.5l-0.4,1.4h-4.1l1.1-3.3l54.2-155.4c0.3-0.9,1.3-1.5,2.2-1.2c0.6,0.2,1,0.6,1.2,1.2l54.2,155.4l1.1,3.3h-4.1
	l-0.4-1.4L619.3,453L566.8,603.5z"/>
<path d="M676.4,610.6h-4.1c-2.5,0-4.8-1.7-5.4-4.2l-0.4-1.4l-47.1-134.9l-47.5,136.3c-0.7,2.5-2.9,4.2-5.4,4.2h-4.1
	c-3.1,0-5.6-2.5-5.6-5.6c0-0.6,0.1-1.2,0.3-1.8l1.1-3.3l54.3-155.5c1.3-3.9,5.5-5.9,9.3-4.6c2.2,0.7,3.9,2.4,4.6,4.6l55.4,158.7
	c1,2.9-0.6,6.1-3.5,7.1C677.6,610.4,677,610.5,676.4,610.6L676.4,610.6z M615.7,448.1L615.7,448.1z M623,448.1L623,448.1z"/>
<g>
	<g>
		<path d="M930.5,517.3V516h5.1v1.3v87.3v1.3h-5.1v-1.3V517.3z"/>
		<rect x="924.9" y="512.9" width="16.3" height="96.1"/>
	</g>
</g>
<g>
	<g>
		<g>
			<g>
				<path d="M985.4,555.8c0-27,20-48.7,44.3-48.7s44.3,21.6,44.3,48.7s-19.9,48.7-44.3,48.7C1005.4,604.5,985.4,582.8,985.4,555.8z
					 M988.3,555.8c0,25.3,18.6,45.8,41.3,45.8c22.8,0,41.3-20.5,41.3-45.8c0-25.3-18.4-45.8-41.3-45.8
					C1007,510,988.3,530.5,988.3,555.8z"/>
				<path d="M1029.6,607.3c-26.1,0-47.2-23.1-47.2-51.5c0-28.4,21.2-51.5,47.2-51.5s47.2,23.1,47.2,51.5
					C1076.8,584.3,1055.6,607.3,1029.6,607.3z M1029.6,512.9c-21.2,0-38.3,19.3-38.3,42.9c0,23.7,17.1,42.9,38.3,42.9
					s38.3-19.3,38.3-42.9C1067.9,532.2,1050.7,512.9,1029.6,512.9z"/>
			</g>
			<g>
				<path d="M1029.6,604.7c-24.5,0-44.5-22-44.5-48.9c0-27,20-48.9,44.5-48.9c24.5,0,44.5,22,44.5,48.9
					C1074,582.8,1054.2,604.7,1029.6,604.7z M1029.6,507.4c-24.3,0-43.9,21.8-43.9,48.4c0,26.6,19.7,48.4,43.9,48.4
					c24.3,0,43.9-21.8,43.9-48.4C1073.6,529.1,1053.8,507.4,1029.6,507.4z M1029.6,601.9c-23,0-41.5-20.7-41.5-46
					c0-25.5,18.7-46,41.5-46c23,0,41.5,20.7,41.5,46C1071.2,581.2,1052.5,601.9,1029.6,601.9z M1029.6,510.3
					c-22.6,0-41,20.5-41,45.6s18.4,45.6,41,45.6s41-20.5,41-45.6C1070.6,530.7,1052.2,510.3,1029.6,510.3z"/>
				<path d="M1029.6,607.6c-26.2,0-47.5-23.2-47.5-51.9c0-28.5,21.3-51.9,47.5-51.9s47.5,23.2,47.5,51.9S1055.7,607.6,1029.6,607.6z
					 M1029.6,513.1c-20.9,0-38.1,19.2-38.1,42.7s17,42.7,38.1,42.7c20.9,0,38.1-19.2,38.1-42.7S1050.6,513.1,1029.6,513.1z"/>
			</g>
		</g>
		<g>
			<g>
				<path d="M1029.6,607.7c-26.2,0-47.5-23.3-47.5-51.9s21.3-51.9,47.5-51.9s47.5,23.2,47.5,51.9
					C1077.1,584.4,1055.7,607.7,1029.6,607.7z M1029.6,513.1c-20.9,0-38.1,19.2-38.1,42.6c0,23.6,17,42.6,38.1,42.6
					c20.9,0,37.9-19.2,37.9-42.6C1067.6,532.3,1050.6,513.1,1029.6,513.1z"/>
				<path d="M1029.6,610.6c-27.8,0-50.4-24.5-50.4-54.7s22.6-54.7,50.4-54.7s50.4,24.5,50.4,54.7
					C1080.1,585.9,1057.4,610.6,1029.6,610.6z M1029.6,506.8c-24.5,0-44.5,22-44.5,49c0,27,20,49,44.5,49c24.5,0,44.5-22,44.5-49
					C1074.2,528.8,1054.2,506.8,1029.6,506.8z M1029.6,601.3c-22.6,0-41-20.5-41-45.6s18.4-45.6,41-45.6s40.9,20.5,40.9,45.6
					C1070.6,580.9,1052.2,601.3,1029.6,601.3z M1029.6,516.1c-19.3,0-35.1,17.8-35.1,39.7s15.7,39.7,35.1,39.7
					c19.3,0,35-17.8,35-39.7S1048.9,516.1,1029.6,516.1z"/>
			</g>
			<g>
				<path d="M1029.6,607.9c-26.3,0-47.8-23.4-47.8-52.1c0-28.8,21.4-52.1,47.8-52.1c26.3,0,47.7,23.4,47.7,52.1
					C1077.4,584.5,1056,607.9,1029.6,607.9z M1029.6,504.2c-26.1,0-47.2,23.1-47.2,51.6c0,28.4,21.2,51.6,47.2,51.6
					s47.2-23.1,47.2-51.6C1076.8,527.4,1055.6,504.2,1029.6,504.2z M1029.6,598.7c-21.1,0-38.3-19.3-38.3-42.9
					c0-23.7,17.1-42.9,38.3-42.9c21.1,0,38.3,19.3,38.3,42.9C1067.9,579.5,1050.7,598.7,1029.6,598.7z M1029.6,513.5
					c-20.8,0-37.7,19-37.7,42.3s16.9,42.3,37.7,42.3c20.8,0,37.7-19,37.7-42.3S1050.4,513.5,1029.6,513.5z"/>
				<path d="M1029.6,610.8c-28,0-50.8-24.6-50.8-55s22.7-55,50.8-55c28,0,50.7,24.6,50.7,55C1080.3,586.2,1057.6,610.8,1029.6,610.8
					z M1029.6,507.2c-24.4,0-44.3,21.9-44.3,48.7c0,26.9,19.9,48.7,44.3,48.7s44.3-21.9,44.3-48.7
					C1073.8,529,1053.9,507.2,1029.6,507.2z M1029.6,601.6c-22.7,0-41.3-20.6-41.3-45.8s18.6-45.8,41.3-45.8
					c22.7,0,41.3,20.6,41.3,45.8S1052.4,601.6,1029.6,601.6z M1029.6,516.3c-19.2,0-34.7,17.7-34.7,39.5c0,21.8,15.6,39.5,34.7,39.5
					c19.2,0,34.7-17.7,34.7-39.5C1064.4,534.1,1048.7,516.3,1029.6,516.3z"/>
			</g>
		</g>
	</g>
</g>
<circle cx="885.3" cy="601" r="11.7"/>
<circle cx="933" cy="491.2" r="11.3"/>
</svg>
