<?xml version="1.0" encoding="utf-8"?>
<!-- Generator: Adobe Illustrator 20.1.0, SVG Export Plug-In . SVG Version: 6.00 Build 0)  -->
<svg version="1.1" id="Layer_1" xmlns="http://www.w3.org/2000/svg" xmlns:xlink="http://www.w3.org/1999/xlink" x="0px" y="0px"
	 viewBox="0 0 800 800" style="enable-background:new 0 0 800 800;" xml:space="preserve">
<style type="text/css">
	.st0{fill:#414042;}
	.st1{fill:#BCBEC0;}
</style>
<path class="st0" d="M228.1,344.8v1.8h-3.5v-1.8c0-15.2-15.7-27-34.7-27s-34.7,11.9-34.7,27c0,26.9,76.7,26.9,76.5,57.5
	c0,16.2-18.7,30.5-41.8,30.5c-23.7,0-41.9-14.1-41.9-30.5v-1.8h3.5v1.8c0,15,17.4,27,38.4,27c20.4,0,38.4-12.2,38.4-27
	c0-27.4-76.4-27-76.5-57.5c0-16.6,16.7-30.5,38.2-30.5S228.1,328.2,228.1,344.8z"/>
<path class="st0" d="M190,436.7c-25.2,0-45.7-15.4-45.7-34.4v-5.6h11.2v5.6c0,12.6,15.8,23.2,34.5,23.2c18.4,0,34.5-10.8,34.5-23.2
	c0-10.6-17.4-17.1-34.2-23.4c-20.8-7.8-42.3-15.8-42.4-34.1c0-19,18.9-34.4,42.1-34.4s42,15.4,42,34.4v5.6h-11.2v-5.6
	c0-12.8-13.8-23.2-30.8-23.2s-30.8,10.4-30.8,23.2c0,10.3,17.2,16.7,33.9,23c21,7.9,42.8,16,42.7,34.6S214.8,436.7,190,436.7z"/>
<path class="st1" d="M68.6,376.4c-1.9,0-3.5-1.6-3.5-3.5c0-68.7,55.9-124.6,124.6-124.6c2,0,3.6,1.6,3.6,3.6s-1.6,3.6-3.6,3.6
	c-64.8,0-117.5,52.7-117.5,117.5C72.2,374.8,70.6,376.4,68.6,376.4C68.6,376.4,68.6,376.4,68.6,376.4z"/>
<path class="st1" d="M3.5,376.4c-1.9,0-3.5-1.6-3.5-3.5c0-104.6,85.1-189.7,189.7-189.7c2,0,3.6,1.6,3.6,3.6s-1.6,3.6-3.6,3.6
	C89,190.3,7.1,272.2,7.1,372.8c0,1.9-1.5,3.5-3.5,3.6C3.6,376.4,3.6,376.4,3.5,376.4z"/>
<path class="st1" d="M190.1,499.1c-2,0-3.6-1.6-3.6-3.6c0-2,1.6-3.6,3.6-3.6c32.6,0,63.8-13.6,86-37.4c1.3-1.4,3.6-1.5,5-0.2
	c1.4,1.3,1.5,3.6,0.2,5l0,0C257.7,484.7,224.7,499,190.1,499.1z"/>
<path class="st1" d="M190.1,564.1c-2,0-3.6-1.6-3.6-3.6c0-2,1.6-3.6,3.6-3.6c70,0,132.7-38.9,163.7-101.6c0.9-1.8,3-2.5,4.8-1.6
	c1.8,0.9,2.5,3,1.6,4.8C328,523.6,262.8,564.1,190.1,564.1z"/>
<path class="st0" d="M618.7,344.8v1.8h-3.5v-1.8c0-15.2-15.7-27-34.7-27s-34.7,11.9-34.7,27c0,26.9,76.7,26.9,76.6,57.5
	c0,16.2-18.7,30.5-41.9,30.5c-23.7,0-41.8-14.1-41.8-30.5v-1.8h3.5v1.8c0,15,17.4,27,38.4,27c20.4,0,38.4-12.2,38.4-27
	c0-27.4-76.4-27-76.5-57.5c0-16.6,16.7-30.5,38.2-30.5S618.7,328.2,618.7,344.8z"/>
<path class="st0" d="M580.5,436.7c-25.2,0-45.7-15.4-45.7-34.4v-5.6H546v5.6c0,12.6,15.8,23.2,34.5,23.2c18.4,0,34.5-10.8,34.5-23.2
	c0-10.6-17.4-17.1-34.2-23.4c-20.8-7.8-42.3-15.8-42.4-34.1c0-19,18.9-34.4,42-34.4s42.1,15.4,42.1,34.4v5.6h-11.2v-5.6
	c0-12.8-13.8-23.2-30.8-23.2c-17,0-30.8,10.4-30.8,23.2c0,10.3,17.2,16.7,33.9,23c21,7.9,42.8,16,42.7,34.6S605.3,436.7,580.5,436.7
	z"/>
<path class="st0" d="M282.6,431.1v1.8h-3.5V316c0-1,0.8-1.7,1.8-1.7c0.5,0,1,0.3,1.3,0.7l80.4,110.7l0.2-109.7v-1.8h3.5v1.8
	l-0.2,115.1c0,1-0.8,1.7-1.8,1.7c-0.5,0-1-0.3-1.3-0.7l-80.4-110.7V431.1z"/>
<path class="st0" d="M282.6,436.7h-3.5c-2.1,0-3.9-1.7-3.9-3.9c0,0,0,0,0,0V316c0.1-3.1,2.6-5.6,5.7-5.5c1.7,0,3.4,0.9,4.4,2.3
	l73.4,101.1l0.1-99.5c0-2.1,1.7-3.9,3.9-3.9c0,0,0,0,0,0h3.5c2.1,0,3.9,1.7,3.9,3.8c0,0,0,0,0,0L370,431.1c-0.1,3.1-2.7,5.6-5.8,5.5
	c-1.7,0-3.3-0.9-4.4-2.2l-73.3-101.1v99.5C286.5,435,284.8,436.7,282.6,436.7C282.6,436.7,282.6,436.7,282.6,436.7z M366.1,429.8
	L366.1,429.8z M279.1,317.2L279.1,317.2z"/>
<path class="st0" d="M419.7,431.6l-0.3,1h-3l0.8-2.4l40.2-115.1c0.2-0.7,0.9-1.1,1.6-0.9c0.4,0.1,0.7,0.5,0.9,0.9L500,430.2l0.8,2.4
	h-3l-0.3-1l-38.9-111.4L419.7,431.6z"/>
<path class="st0" d="M500.9,436.8h-3c-1.9,0-3.5-1.3-4-3.1l-0.3-1l-34.9-99.9l-35.2,100.9c-0.5,1.8-2.1,3.1-4,3.1h-3
	c-2.3,0-4.2-1.9-4.2-4.2c0-0.4,0.1-0.9,0.2-1.3l0.8-2.4l40.2-115.1c1-2.9,4.1-4.4,6.9-3.4c1.6,0.5,2.9,1.8,3.4,3.4l41,117.5
	c0.7,2.2-0.4,4.5-2.6,5.3C501.8,436.7,501.3,436.8,500.9,436.8L500.9,436.8z M456,316.5L456,316.5z M461.3,316.5L461.3,316.5z"/>
<g>
	<g>
		<path class="st0" d="M689,367.8v-1h3.8v1v64.6v1H689v-1V367.8z"/>
		<rect x="684.9" y="364.5" class="st0" width="12.1" height="71.2"/>
	</g>
</g>
<g>
	<g>
		<g>
			<g>
				<path class="st0" d="M729.7,396.3c0-20,14.8-36,32.7-36c18,0,32.7,16,32.7,36c0,20-14.7,36-32.7,36
					C744.5,432.3,729.7,416.3,729.7,396.3z M731.9,396.3c0,18.8,13.8,33.9,30.6,33.9c16.9,0,30.6-15.2,30.6-33.9
					c0-18.8-13.6-33.9-30.6-33.9C745.6,362.4,731.9,377.5,731.9,396.3z"/>
				<path class="st0" d="M762.4,434.5c-19.3,0-34.9-17.1-34.9-38.2c0-21.1,15.7-38.2,34.9-38.2c19.3,0,34.9,17.1,34.9,38.2
					C797.4,417.4,781.7,434.5,762.4,434.5z M762.4,364.5c-15.6,0-28.4,14.3-28.4,31.8s12.7,31.8,28.4,31.8
					c15.6,0,28.4-14.3,28.4-31.8S778.1,364.5,762.4,364.5z"/>
			</g>
			<g>
				<path class="st0" d="M762.4,432.5c-18.2,0-33-16.3-33-36.2c0-20,14.8-36.2,33-36.2c18.2,0,32.9,16.3,32.9,36.2
					C795.4,416.3,780.6,432.5,762.4,432.5z M762.4,360.5c-17.9,0-32.5,16.1-32.5,35.8c0,19.8,14.6,35.8,32.5,35.8
					c17.9,0,32.5-16.1,32.5-35.8C795,376.5,780.4,360.5,762.4,360.5z M762.4,430.4c-17,0-30.8-15.3-30.8-34.1
					c0-18.8,13.8-34.1,30.8-34.1c17,0,30.8,15.3,30.8,34.1C793.2,415.1,779.4,430.4,762.4,430.4z M762.4,362.6
					c-16.7,0-30.4,15.1-30.4,33.7c0,18.6,13.6,33.7,30.4,33.7c16.7,0,30.4-15.1,30.4-33.7C792.8,377.7,779.2,362.6,762.4,362.6z"/>
				<path class="st0" d="M762.4,434.7c-19.4,0-35.2-17.2-35.2-38.4c0-21.2,15.8-38.4,35.2-38.4c19.4,0,35.1,17.2,35.1,38.4
					C797.6,417.5,781.8,434.7,762.4,434.7z M762.4,364.7c-15.5,0-28.2,14.2-28.2,31.6s12.6,31.6,28.2,31.6
					c15.5,0,28.1-14.2,28.1-31.6S778,364.7,762.4,364.7z"/>
			</g>
		</g>
		<g>
			<g>
				<path class="st0" d="M762.4,434.7c-19.4,0-35.2-17.2-35.2-38.4c0-21.2,15.8-38.4,35.2-38.4s35.2,17.2,35.2,38.4
					C797.6,417.5,781.8,434.7,762.4,434.7z M762.4,364.7c-15.5,0-28.1,14.2-28.1,31.6s12.6,31.6,28.1,31.6
					c15.5,0,28.1-14.2,28.1-31.6S777.9,364.7,762.4,364.7z"/>
				<path class="st0" d="M762.4,436.8c-20.6,0-37.4-18.2-37.4-40.5c0-22.3,16.8-40.5,37.4-40.5c20.6,0,37.4,18.2,37.4,40.5
					C799.8,418.6,783,436.8,762.4,436.8z M762.4,360c-18.2,0-33,16.3-33,36.3c0,20,14.8,36.3,33,36.3c18.2,0,33-16.3,33-36.3
					C795.4,376.3,780.6,360,762.4,360z M762.4,430c-16.7,0-30.3-15.1-30.3-33.7s13.6-33.7,30.3-33.7c16.7,0,30.3,15.1,30.3,33.7
					S779.2,430,762.4,430z M762.4,366.9c-14.3,0-25.9,13.2-25.9,29.4c0,16.2,11.6,29.4,25.9,29.4c14.3,0,25.9-13.2,25.9-29.4
					C788.4,380.1,776.7,366.9,762.4,366.9z"/>
			</g>
			<g>
				<path class="st0" d="M762.4,434.9c-19.5,0-35.4-17.3-35.4-38.6c0-21.3,15.9-38.6,35.4-38.6c19.5,0,35.4,17.3,35.4,38.6
					C797.8,417.6,781.9,434.9,762.4,434.9z M762.4,358.1c-19.3,0-35,17.1-35,38.2c0,21.1,15.7,38.2,35,38.2c19.3,0,35-17.1,35-38.2
					C797.4,375.2,781.7,358.1,762.4,358.1z M762.4,428.1c-15.6,0-28.4-14.3-28.4-31.8c0-17.5,12.7-31.8,28.4-31.8
					c15.6,0,28.3,14.3,28.3,31.8C790.8,413.8,778.1,428.1,762.4,428.1z M762.4,364.9c-15.4,0-27.9,14.1-27.9,31.4
					s12.5,31.4,27.9,31.4c15.4,0,27.9-14.1,27.9-31.4S777.8,364.9,762.4,364.9z"/>
				<path class="st0" d="M762.4,437c-20.7,0-37.6-18.3-37.6-40.7c0-22.5,16.9-40.7,37.6-40.7c20.7,0,37.6,18.3,37.6,40.7
					C800,418.8,783.1,437,762.4,437z M762.4,360.2c-18.1,0-32.8,16.2-32.8,36c0,19.9,14.7,36.1,32.8,36.1
					c18.1,0,32.7-16.2,32.7-36.1C795.2,376.4,780.5,360.2,762.4,360.2z M762.4,430.2c-16.8,0-30.6-15.2-30.6-33.9
					c0-18.7,13.7-33.9,30.6-33.9c16.8,0,30.5,15.2,30.5,33.9C793,415,779.3,430.2,762.4,430.2z M762.4,367.1
					c-14.2,0-25.7,13.1-25.7,29.2c0,16.1,11.5,29.2,25.7,29.2c14.2,0,25.7-13.1,25.7-29.2C788.2,380.2,776.6,367.1,762.4,367.1z"/>
			</g>
		</g>
	</g>
</g>
<circle class="st0" cx="655.5" cy="429.8" r="8.6"/>
<circle class="st0" cx="690.9" cy="348.5" r="8.4"/>
</svg>
