<?xml version="1.0" encoding="utf-8"?>
<!-- Generator: Adobe Illustrator 20.1.0, SVG Export Plug-In . SVG Version: 6.00 Build 0)  -->
<svg version="1.1" id="Layer_1" xmlns="http://www.w3.org/2000/svg" xmlns:xlink="http://www.w3.org/1999/xlink" x="0px" y="0px"
	 viewBox="0 0 800 800" style="enable-background:new 0 0 800 800;" xml:space="preserve">
<style type="text/css">
	.st0{fill:#FF4401;}
	.st1{fill:#FFB9A9;}
</style>
<path class="st0" d="M228.1,347.4v1.8h-3.5v-1.8c0-15.2-15.7-27-34.7-27s-34.7,11.9-34.7,27c0,26.9,76.7,26.9,76.5,57.5
	c0,16.2-18.7,30.5-41.8,30.5c-23.7,0-41.8-14.1-41.8-30.5v-1.8h3.5v1.8c0,15,17.4,27,38.4,27c20.4,0,38.3-12.2,38.3-27
	c0-27.4-76.4-27-76.5-57.5c0-16.6,16.7-30.5,38.2-30.5S228.1,330.9,228.1,347.4z"/>
<path class="st0" d="M190,439.3c-25.2,0-45.7-15.4-45.7-34.4v-5.6h11.2v5.6c0,12.6,15.8,23.2,34.5,23.2c18.4,0,34.5-10.8,34.5-23.2
	c0-10.7-17.4-17.2-34.2-23.4c-20.8-7.8-42.3-15.8-42.4-34.1c0-19,18.9-34.4,42-34.4s42,15.4,42,34.4v5.6h-11.2v-5.6
	c0-12.8-13.8-23.2-30.8-23.2s-30.8,10.4-30.8,23.2c0,10.3,17.3,16.7,33.9,23c21.1,7.8,42.8,16,42.6,34.6
	C235.5,423.5,214.8,439.3,190,439.3z"/>
<path class="st1" d="M68.5,379c-1.9,0-3.5-1.6-3.5-3.5c0-68.7,55.9-124.6,124.6-124.6c1.9,0,3.5,1.6,3.5,3.5s-1.6,3.5-3.5,3.5
	c-64.8,0-117.5,52.7-117.5,117.5C72.1,377.4,70.6,379,68.5,379C68.6,379,68.6,379,68.5,379z"/>
<path class="st1" d="M3.5,379c-1.9,0-3.5-1.6-3.5-3.5c0-104.6,85.1-189.7,189.7-189.7c1.9,0,3.5,1.6,3.5,3.5s-1.6,3.5-3.5,3.5
	C89.1,192.8,7.1,274.8,7.1,375.4c0,1.9-1.5,3.5-3.4,3.6C3.6,379,3.6,379,3.5,379z"/>
<path class="st1" d="M190.1,501.7c-1.9,0-3.5-1.6-3.5-3.5c0-1.9,1.6-3.5,3.5-3.5c32.6,0,63.8-13.6,86.1-37.4c1.3-1.4,3.6-1.5,5-0.2
	c1.4,1.3,1.5,3.6,0.2,5l0,0C257.7,487.3,224.7,501.7,190.1,501.7z"/>
<path class="st1" d="M190.1,566.8c-1.9,0-3.5-1.6-3.5-3.5c0-1.9,1.6-3.5,3.5-3.5c69.9,0,132.7-38.9,163.7-101.7
	c0.9-1.8,3-2.5,4.8-1.6c1.8,0.9,2.5,3,1.6,4.8C328,526.2,262.8,566.8,190.1,566.8z"/>
<path class="st0" d="M618.7,347.4v1.8h-3.5v-1.8c0-15.2-15.7-27-34.7-27s-34.7,11.9-34.7,27c0,26.9,76.7,26.9,76.5,57.5
	c0,16.2-18.7,30.5-41.8,30.5c-23.7,0-41.8-14.1-41.8-30.5v-1.8h3.5v1.8c0,15,17.4,27,38.3,27c20.4,0,38.3-12.2,38.3-27
	c0-27.4-76.4-27-76.5-57.5c0-16.6,16.7-30.5,38.1-30.5C601.8,316.9,618.7,330.9,618.7,347.4z"/>
<path class="st0" d="M580.5,439.3c-25.2,0-45.7-15.4-45.7-34.4v-5.6H546v5.6c0,12.6,15.8,23.2,34.5,23.2c18.4,0,34.5-10.8,34.5-23.2
	c0-10.7-17.4-17.2-34.2-23.4c-20.8-7.8-42.3-15.8-42.4-34.1c0-19,18.9-34.4,42-34.4s42,15.4,42,34.4v5.6h-11.2v-5.6
	c0-12.8-13.8-23.2-30.8-23.2s-30.8,10.4-30.8,23.2c0,10.3,17.3,16.7,33.9,23c21.1,7.8,42.8,16,42.6,34.6
	C626,423.5,605.3,439.3,580.5,439.3z"/>
<path class="st0" d="M282.6,433.8v1.8h-3.5V318.6c0-1,0.9-1.8,1.8-1.7c0.5,0,1,0.3,1.3,0.6l80.4,110.7l0.2-109.7v-1.8h3.5v1.8
	l-0.2,115.1c0,1-0.9,1.8-1.8,1.7c-0.5,0-1-0.3-1.3-0.6l-80.4-110.7V433.8z"/>
<path class="st0" d="M282.6,439.3h-3.5c-2.1,0-3.9-1.8-3.9-3.9l0,0V318.6c0.1-3.1,2.6-5.6,5.7-5.5c1.8,0,3.3,0.9,4.4,2.3l73.4,101.1
	l0.2-99.5c0-2.1,1.8-3.9,3.9-3.9l0,0h3.5c2.1,0,3.9,1.8,3.9,3.9l0,0L370,433.8c-0.1,3.1-2.6,5.5-5.8,5.5c-1.7,0-3.3-0.9-4.4-2.2
	L286.4,336v99.5C286.5,437.6,284.8,439.3,282.6,439.3C282.7,439.3,282.6,439.3,282.6,439.3z M366.1,432.4L366.1,432.4z M279.1,319.9
	L279.1,319.9z"/>
<path class="st0" d="M419.7,434.3l-0.3,1.1h-3.1l0.8-2.5l40.2-115c0.2-0.7,1-1.1,1.6-0.9c0.4,0.1,0.7,0.4,0.9,0.9l40.2,115l0.8,2.5
	h-3.1l-0.3-1.1l-38.9-111.4L419.7,434.3z"/>
<path class="st0" d="M500.9,439.5h-3.1c-1.8,0-3.5-1.2-4.1-3.1l-0.3-1.1l-34.9-99.9l-35.1,100.9c-0.5,1.8-2.1,3.1-4.1,3.1h-3.1
	c-2.3,0-4.1-1.8-4.1-4.1c0-0.4,0.1-0.9,0.2-1.3l0.8-2.5l40.2-115.1c1-2.8,4.1-4.4,7-3.4c1.6,0.5,2.9,1.8,3.4,3.4l41,117.5
	c0.7,2.2-0.4,4.6-2.6,5.3C501.7,439.4,501.3,439.4,500.9,439.5L500.9,439.5z M455.9,319.2L455.9,319.2z M461.3,319.2L461.3,319.2z"
	/>
<path class="st0" d="M618.7,347.4v1.8h-3.5v-1.8c0-15.2-15.7-27-34.7-27s-34.7,11.9-34.7,27c0,26.9,76.7,26.9,76.5,57.5
	c0,16.2-18.7,30.5-41.8,30.5c-23.7,0-41.8-14.1-41.8-30.5v-1.8h3.5v1.8c0,15,17.4,27,38.3,27c20.4,0,38.3-12.2,38.3-27
	c0-27.4-76.4-27-76.5-57.5c0-16.6,16.7-30.5,38.1-30.5C601.8,316.9,618.7,330.9,618.7,347.4z"/>
<g>
	<g>
		<path class="st0" d="M689,370.4v-1h3.8v1V435v1H689v-1V370.4z"/>
		<rect x="684.9" y="367.2" class="st0" width="12.1" height="71.2"/>
	</g>
</g>
<g>
	<g>
		<g>
			<g>
				<path class="st0" d="M729.7,398.9c0-20,14.8-36,32.7-36c18,0,32.7,16,32.7,36c0,20-14.7,36-32.7,36
					C744.5,435,729.7,419,729.7,398.9z M731.9,398.9c0,18.8,13.8,33.9,30.6,33.9c16.9,0,30.6-15.2,30.6-33.9
					c0-18.8-13.6-33.9-30.6-33.9C745.6,365,731.9,380.2,731.9,398.9z"/>
				<path class="st0" d="M762.4,437.1c-19.3,0-34.9-17.1-34.9-38.2c0-21.1,15.7-38.2,34.9-38.2c19.3,0,34.9,17.1,34.9,38.2
					C797.4,420,781.7,437.1,762.4,437.1z M762.4,367.2c-15.6,0-28.4,14.3-28.4,31.8s12.7,31.8,28.4,31.8c15.6,0,28.4-14.3,28.4-31.8
					S778.1,367.2,762.4,367.2z"/>
			</g>
			<g>
				<path class="st0" d="M762.4,435.2c-18.2,0-33-16.3-33-36.2c0-20,14.8-36.2,33-36.2c18.2,0,32.9,16.3,32.9,36.2
					C795.4,418.9,780.6,435.2,762.4,435.2z M762.4,363.1c-17.9,0-32.5,16.1-32.5,35.8c0,19.8,14.6,35.8,32.5,35.8
					c17.9,0,32.5-16.1,32.5-35.8C795,379.2,780.4,363.1,762.4,363.1z M762.4,433.1c-17,0-30.8-15.3-30.8-34.1
					c0-18.8,13.8-34.1,30.8-34.1c17,0,30.8,15.3,30.8,34.1C793.2,417.8,779.4,433.1,762.4,433.1z M762.4,365.2
					c-16.7,0-30.4,15.1-30.4,33.7c0,18.6,13.6,33.7,30.4,33.7c16.7,0,30.4-15.1,30.4-33.7C792.8,380.3,779.2,365.2,762.4,365.2z"/>
				<path class="st0" d="M762.4,437.3c-19.4,0-35.2-17.2-35.2-38.4c0-21.2,15.8-38.4,35.2-38.4c19.4,0,35.1,17.2,35.1,38.4
					C797.6,420.1,781.8,437.3,762.4,437.3z M762.4,367.4c-15.5,0-28.2,14.2-28.2,31.6s12.6,31.6,28.2,31.6
					c15.5,0,28.1-14.2,28.1-31.6S778,367.4,762.4,367.4z"/>
			</g>
		</g>
		<g>
			<g>
				<path class="st0" d="M762.4,437.3c-19.4,0-35.2-17.2-35.2-38.4c0-21.2,15.8-38.4,35.2-38.4s35.2,17.2,35.2,38.4
					C797.6,420.1,781.8,437.3,762.4,437.3z M762.4,367.4c-15.5,0-28.1,14.2-28.1,31.6s12.6,31.6,28.1,31.6
					c15.5,0,28.1-14.2,28.1-31.6S777.9,367.4,762.4,367.4z"/>
				<path class="st0" d="M762.4,439.5c-20.6,0-37.4-18.2-37.4-40.5c0-22.3,16.8-40.5,37.4-40.5c20.6,0,37.4,18.2,37.4,40.5
					C799.8,421.3,783,439.5,762.4,439.5z M762.4,362.7c-18.2,0-33,16.3-33,36.3c0,20,14.8,36.3,33,36.3c18.2,0,33-16.3,33-36.3
					C795.4,378.9,780.6,362.7,762.4,362.7z M762.4,432.7c-16.7,0-30.3-15.1-30.3-33.7s13.6-33.7,30.3-33.7
					c16.7,0,30.3,15.1,30.3,33.7S779.2,432.7,762.4,432.7z M762.4,369.5c-14.3,0-25.9,13.2-25.9,29.4c0,16.2,11.6,29.4,25.9,29.4
					c14.3,0,25.9-13.2,25.9-29.4C788.4,382.7,776.7,369.5,762.4,369.5z"/>
			</g>
			<g>
				<path class="st0" d="M762.4,437.5c-19.5,0-35.4-17.3-35.4-38.6c0-21.3,15.9-38.6,35.4-38.6c19.5,0,35.4,17.3,35.4,38.6
					C797.8,420.2,781.9,437.5,762.4,437.5z M762.4,360.7c-19.3,0-35,17.1-35,38.2c0,21.1,15.7,38.2,35,38.2c19.3,0,35-17.1,35-38.2
					C797.4,377.9,781.7,360.7,762.4,360.7z M762.4,430.7c-15.6,0-28.4-14.3-28.4-31.8c0-17.5,12.7-31.8,28.4-31.8
					c15.6,0,28.3,14.3,28.3,31.8C790.8,416.5,778.1,430.7,762.4,430.7z M762.4,367.6c-15.4,0-27.9,14.1-27.9,31.4
					s12.5,31.4,27.9,31.4c15.4,0,27.9-14.1,27.9-31.4S777.8,367.6,762.4,367.6z"/>
				<path class="st0" d="M762.4,439.7c-20.7,0-37.6-18.3-37.6-40.7c0-22.5,16.9-40.7,37.6-40.7c20.7,0,37.6,18.3,37.6,40.7
					C800,421.4,783.1,439.7,762.4,439.7z M762.4,362.9c-18.1,0-32.8,16.2-32.8,36c0,19.9,14.7,36.1,32.8,36.1
					c18.1,0,32.7-16.2,32.7-36.1C795.2,379.1,780.5,362.9,762.4,362.9z M762.4,432.9c-16.8,0-30.6-15.2-30.6-33.9
					c0-18.7,13.7-33.9,30.6-33.9c16.8,0,30.5,15.2,30.5,33.9C793,417.6,779.3,432.9,762.4,432.9z M762.4,369.7
					c-14.2,0-25.7,13.1-25.7,29.2s11.5,29.2,25.7,29.2c14.2,0,25.7-13.1,25.7-29.2S776.6,369.7,762.4,369.7z"/>
			</g>
		</g>
	</g>
</g>
<circle class="st0" cx="655.5" cy="432.4" r="8.6"/>
<circle class="st0" cx="690.9" cy="351.1" r="8.4"/>
</svg>
