<?xml version="1.0" encoding="utf-8"?>
<!-- Generator: Adobe Illustrator 20.1.0, SVG Export Plug-In . SVG Version: 6.00 Build 0)  -->
<svg version="1.1" id="Layer_1" xmlns="http://www.w3.org/2000/svg" xmlns:xlink="http://www.w3.org/1999/xlink" x="0px" y="0px"
	 viewBox="0 0 800 800" style="enable-background:new 0 0 800 800;" xml:space="preserve">
<style type="text/css">
	.st0{fill:#FF4401;}
	.st1{fill:#3F95D1;}
</style>
<path class="st0" d="M229.3,371.7v1.8h-3.5v-1.8c0-15.1-15.7-27-34.7-27s-34.7,11.9-34.7,27c0,26.8,76.6,26.8,76.4,57.4
	c0,16.2-18.6,30.4-41.8,30.4c-23.7,0-41.8-14.1-41.8-30.4v-1.8h3.5v1.8c0,15,17.4,27,38.3,27c20.4,0,38.3-12.2,38.3-27
	c0-27.4-76.3-27-76.4-57.4c0-16.5,16.7-30.4,38.2-30.4S229.3,355.2,229.3,371.7z"/>
<path class="st0" d="M191.2,463.5c-25.2,0-45.6-15.4-45.6-34.3v-5.6h11.2v5.6c0,12.6,15.7,23.1,34.5,23.1
	c18.4,0,34.5-10.8,34.5-23.1c0-10.6-17.3-17.2-34.1-23.4c-20.8-7.7-42.2-15.7-42.3-34c0-19,18.8-34.4,42-34.4s42,15.4,42,34.3v5.6
	H222v-5.6c0-12.8-13.8-23.1-30.8-23.1s-30.8,10.4-30.8,23.1c0,10.3,17.2,16.7,33.9,23c21,7.8,42.7,16,42.6,34.6
	S215.9,463.5,191.2,463.5z"/>
<path class="st1" d="M69.9,403.2c-1.9,0-3.5-1.6-3.5-3.5c0-68.6,55.8-124.5,124.5-124.5c1.9,0,3.5,1.6,3.5,3.5s-1.6,3.5-3.5,3.5
	c-64.7,0-117.3,52.6-117.3,117.3C73.6,401.7,72.1,403.2,69.9,403.2C70,403.2,70,403.2,69.9,403.2z"/>
<path class="st1" d="M5,403.2c-1.9,0-3.5-1.6-3.5-3.5c0-104.4,85-189.4,189.4-189.4c1.9,0,3.5,1.6,3.5,3.5c0,1.9-1.6,3.5-3.5,3.5
	C90.4,217.4,8.6,299.2,8.6,399.6c0,1.9-1.5,3.5-3.4,3.6C5.1,403.2,5.1,403.2,5,403.2z"/>
<path class="st1" d="M191.3,525.7c-1.9,0-3.5-1.6-3.5-3.5c0-1.9,1.6-3.5,3.5-3.5c32.5,0,63.7-13.5,85.9-37.4c1.3-1.4,3.6-1.5,5-0.2
	c1.4,1.3,1.5,3.6,0.2,5l0,0C258.9,511.4,225.9,525.7,191.3,525.7z"/>
<path class="st1" d="M191.3,590.7c-1.9,0-3.5-1.6-3.5-3.5c0-1.9,1.6-3.5,3.5-3.5c69.8,0,132.5-38.9,163.4-101.5
	c0.9-1.8,3-2.5,4.7-1.6c1.8,0.9,2.5,3,1.6,4.7C329,550.3,263.9,590.7,191.3,590.7z"/>
<path class="st0" d="M619.3,371.7v1.8h-3.5v-1.8c0-15.1-15.7-27-34.7-27s-34.7,11.9-34.7,27c0,26.8,76.6,26.8,76.4,57.4
	c0,16.2-18.6,30.4-41.8,30.4c-23.7,0-41.8-14.1-41.8-30.4v-1.8h3.5v1.8c0,15,17.4,27,38.3,27c20.4,0,38.3-12.2,38.3-27
	c0-27.4-76.3-27-76.4-57.4c0-16.5,16.7-30.4,38.1-30.4S619.3,355.2,619.3,371.7z"/>
<path class="st0" d="M581.1,463.5c-25.2,0-45.6-15.4-45.6-34.3v-5.6h11.2v5.6c0,12.6,15.7,23.1,34.5,23.1
	c18.4,0,34.5-10.8,34.5-23.1c0-10.6-17.3-17.2-34.1-23.4c-20.8-7.7-42.2-15.7-42.3-34c0-19,18.8-34.4,42-34.4
	c23.1,0,42,15.4,42,34.3v5.6h-11.2v-5.6c0-12.8-13.8-23.1-30.8-23.1s-30.8,10.4-30.8,23.1c0,10.3,17.2,16.7,33.9,23
	c21,7.8,42.7,16,42.6,34.6S605.9,463.5,581.1,463.5z"/>
<path class="st0" d="M283.7,457.9v1.8h-3.5V343c0-1,0.9-1.8,1.8-1.7c0.5,0,1,0.3,1.3,0.6l80.3,110.6l0.2-109.5v-1.8h3.5v1.8
	l-0.2,115c0,1-0.9,1.8-1.8,1.7c-0.5,0-1-0.3-1.3-0.6l-80.3-110.6V457.9z"/>
<path class="st0" d="M283.7,463.5h-3.5c-2.1,0-3.9-1.8-3.9-3.9l0,0V343c0.1-3.1,2.6-5.6,5.7-5.5c1.8,0,3.3,0.9,4.4,2.3l73.3,101
	l0.2-99.4c0-2.1,1.8-3.9,3.9-3.9l0,0h3.5c2.1,0,3.9,1.8,3.9,3.9l0,0l-0.2,116.6c-0.1,3.1-2.6,5.5-5.8,5.5c-1.7,0-3.3-0.9-4.4-2.2
	l-73.3-101v99.4C287.5,461.8,285.9,463.5,283.7,463.5C283.8,463.5,283.7,463.5,283.7,463.5z M367,456.6L367,456.6z M280.2,344.2
	L280.2,344.2z"/>
<path class="st0" d="M420.6,458.5l-0.3,1.1h-3.1l0.8-2.5l40.1-114.9c0.2-0.7,1-1.1,1.6-0.9c0.4,0.1,0.7,0.4,0.9,0.9l40.1,114.9
	l0.8,2.5h-3.1l-0.3-1.1l-38.9-111.3L420.6,458.5z"/>
<path class="st0" d="M501.6,463.7h-3.1c-1.8,0-3.5-1.2-4-3.1l-0.3-1.1l-34.8-99.7l-35.1,100.7c-0.5,1.8-2.1,3.1-4,3.1h-3.1
	c-2.3,0-4.1-1.8-4.1-4.1c0-0.4,0.1-0.9,0.2-1.3l0.8-2.5l40.1-115c1-2.8,4-4.4,6.9-3.4c1.6,0.5,2.9,1.8,3.4,3.4L505.4,458
	c0.7,2.2-0.4,4.6-2.6,5.3C502.5,463.6,502,463.6,501.6,463.7L501.6,463.7z M456.8,343.5L456.8,343.5z M462.1,343.5L462.1,343.5z"/>
<g>
	<g>
		<path class="st0" d="M689.5,394.7v-1h3.7v1v64.5v1h-3.7v-1V394.7z"/>
		<rect x="685.3" y="391.4" class="st0" width="12" height="71.1"/>
	</g>
</g>
<g>
	<g>
		<g>
			<g>
				<path class="st0" d="M730.1,423.2c0-20,14.8-36,32.7-36c18,0,32.7,16,32.7,36c0,20-14.7,36-32.7,36
					C744.9,459.2,730.1,443.2,730.1,423.2z M732.3,423.2c0,18.7,13.7,33.9,30.5,33.9c16.9,0,30.5-15.1,30.5-33.9
					c0-18.7-13.6-33.9-30.5-33.9C746,389.3,732.3,404.4,732.3,423.2z"/>
				<path class="st0" d="M762.8,461.3c-19.2,0-34.9-17.1-34.9-38.1c0-21,15.7-38.1,34.9-38.1c19.2,0,34.9,17.1,34.9,38.1
					C797.7,444.2,782,461.3,762.8,461.3z M762.8,391.4c-15.6,0-28.3,14.2-28.3,31.7s12.7,31.7,28.3,31.7c15.6,0,28.3-14.2,28.3-31.7
					S778.4,391.4,762.8,391.4z"/>
			</g>
			<g>
				<path class="st0" d="M762.8,459.4c-18.1,0-32.9-16.2-32.9-36.2c0-20,14.8-36.2,32.9-36.2c18.1,0,32.9,16.2,32.9,36.2
					C795.7,443.1,780.9,459.4,762.8,459.4z M762.8,387.4c-17.9,0-32.5,16.1-32.5,35.8c0,19.7,14.6,35.8,32.5,35.8
					c17.9,0,32.5-16.1,32.5-35.8C795.2,403.4,780.7,387.4,762.8,387.4z M762.8,457.2c-16.9,0-30.7-15.3-30.7-34.1
					c0-18.8,13.8-34.1,30.7-34.1c16.9,0,30.7,15.3,30.7,34.1C793.5,442,779.7,457.2,762.8,457.2z M762.8,389.5
					c-16.7,0-30.3,15.1-30.3,33.7c0,18.6,13.6,33.7,30.3,33.7c16.7,0,30.3-15.1,30.3-33.7C793.1,404.6,779.5,389.5,762.8,389.5z"/>
				<path class="st0" d="M762.8,461.5c-19.4,0-35.1-17.2-35.1-38.3c0-21.1,15.7-38.3,35.1-38.3c19.4,0,35.1,17.2,35.1,38.3
					C797.9,444.3,782.1,461.5,762.8,461.5z M762.8,391.6c-15.5,0-28.1,14.1-28.1,31.5s12.6,31.5,28.1,31.5
					c15.5,0,28.1-14.1,28.1-31.5S778.3,391.6,762.8,391.6z"/>
			</g>
		</g>
		<g>
			<g>
				<path class="st0" d="M762.8,461.5c-19.4,0-35.1-17.2-35.1-38.3c0-21.1,15.8-38.3,35.1-38.3s35.1,17.2,35.1,38.3
					C797.9,444.3,782.1,461.5,762.8,461.5z M762.8,391.6c-15.5,0-28.1,14.1-28.1,31.5c0,17.4,12.6,31.5,28.1,31.5
					c15.5,0,28.1-14.1,28.1-31.5C790.9,405.8,778.3,391.6,762.8,391.6z"/>
				<path class="st0" d="M762.8,463.6c-20.6,0-37.3-18.2-37.3-40.5c0-22.3,16.7-40.5,37.3-40.5c20.6,0,37.3,18.2,37.3,40.5
					C800.1,445.5,783.3,463.6,762.8,463.6z M762.8,387c-18.1,0-32.9,16.2-32.9,36.2c0,20,14.8,36.2,32.9,36.2
					c18.1,0,32.9-16.2,32.9-36.2C795.7,403.2,780.9,387,762.8,387z M762.8,456.8c-16.7,0-30.3-15.1-30.3-33.7s13.6-33.7,30.3-33.7
					c16.7,0,30.3,15.1,30.3,33.7S779.5,456.8,762.8,456.8z M762.8,393.8c-14.3,0-25.9,13.2-25.9,29.4s11.6,29.4,25.9,29.4
					c14.3,0,25.9-13.2,25.9-29.4S777,393.8,762.8,393.8z"/>
			</g>
			<g>
				<path class="st0" d="M762.8,461.7c-19.5,0-35.3-17.3-35.3-38.5c0-21.2,15.8-38.5,35.3-38.5c19.5,0,35.3,17.3,35.3,38.5
					C798.1,444.4,782.2,461.7,762.8,461.7z M762.8,385c-19.2,0-34.9,17.1-34.9,38.1c0,21,15.7,38.1,34.9,38.1
					c19.2,0,34.9-17.1,34.9-38.1C797.7,402.2,782,385,762.8,385z M762.8,454.9c-15.6,0-28.3-14.2-28.3-31.7
					c0-17.5,12.7-31.7,28.3-31.7c15.6,0,28.3,14.2,28.3,31.7C791.1,440.7,778.4,454.9,762.8,454.9z M762.8,391.8
					c-15.4,0-27.9,14.1-27.9,31.3s12.5,31.3,27.9,31.3c15.4,0,27.9-14.1,27.9-31.3S778.1,391.8,762.8,391.8z"/>
				<path class="st0" d="M762.8,463.8c-20.7,0-37.5-18.2-37.5-40.7c0-22.4,16.8-40.7,37.5-40.7c20.7,0,37.5,18.2,37.5,40.7
					C800.3,445.6,783.4,463.8,762.8,463.8z M762.8,387.2c-18,0-32.7,16.1-32.7,36c0,19.8,14.7,36,32.7,36c18,0,32.7-16.1,32.7-36
					C795.5,403.3,780.8,387.2,762.8,387.2z M762.8,457c-16.8,0-30.5-15.2-30.5-33.9s13.7-33.9,30.5-33.9c16.8,0,30.5,15.2,30.5,33.9
					S779.6,457,762.8,457z M762.8,394c-14.2,0-25.7,13.1-25.7,29.2s11.5,29.2,25.7,29.2c14.2,0,25.7-13.1,25.7-29.2
					S776.9,394,762.8,394z"/>
			</g>
		</g>
	</g>
</g>
<circle class="st0" cx="656" cy="456.6" r="8.6"/>
<circle class="st0" cx="691.3" cy="375.5" r="8.4"/>
</svg>
