<?xml version="1.0" encoding="utf-8"?>
<!-- Generator: Adobe Illustrator 20.1.0, SVG Export Plug-In . SVG Version: 6.00 Build 0)  -->
<svg version="1.1" id="Layer_1" xmlns="http://www.w3.org/2000/svg" xmlns:xlink="http://www.w3.org/1999/xlink" x="0px" y="0px"
	 viewBox="0 0 800 800" style="enable-background:new 0 0 800 800;" xml:space="preserve">
<style type="text/css">
	.st0{fill:#FF4401;}
	.st1{fill:#95D0E5;}
</style>
<path class="st0" d="M228.3,319.6v1.8h-3.5v-1.8c0-15.2-15.7-27.1-34.7-27.1s-34.7,11.9-34.7,27.1c0,26.9,76.8,26.9,76.6,57.6
	c0,16.2-18.7,30.5-41.9,30.5c-23.7,0-41.9-14.1-41.9-30.5v-1.8h3.5v1.8c0,15,17.5,27.1,38.4,27.1c20.5,0,38.3-12.3,38.3-27.1
	c0-27.4-76.4-27.1-76.6-57.6c0-16.6,16.7-30.5,38.3-30.5S228.3,303.1,228.3,319.6z"/>
<path class="st0" d="M190.1,411.6c-25.2,0-45.7-15.4-45.7-34.4v-5.6h11.2v5.6c0,12.6,15.8,23.2,34.6,23.2
	c18.4,0,34.6-10.8,34.6-23.2c0-10.7-17.4-17.2-34.2-23.4c-20.8-7.8-42.3-15.8-42.4-34.1c0-19,18.9-34.5,42-34.5s42,15.4,42,34.4v5.6
	H221v-5.6c0-12.8-13.8-23.2-30.9-23.2s-30.9,10.4-30.9,23.2c0,10.3,17.3,16.7,33.9,23c21.1,7.8,42.8,16,42.7,34.6
	C235.7,395.8,214.9,411.6,190.1,411.6z"/>
<path class="st1" d="M68.6,351.2c-1.9,0-3.5-1.6-3.5-3.5c0-68.8,56-124.7,124.7-124.7c1.9,0,3.5,1.6,3.5,3.5s-1.6,3.5-3.5,3.5
	c-64.9,0-117.6,52.7-117.6,117.6C72.2,349.6,70.7,351.2,68.6,351.2C68.7,351.2,68.7,351.2,68.6,351.2z"/>
<path class="st1" d="M3.5,351.2c-1.9,0-3.5-1.6-3.5-3.5C0,243,85.2,157.9,189.8,157.9c1.9,0,3.5,1.6,3.5,3.5c0,1.9-1.6,3.5-3.5,3.5
	c-100.7,0-182.6,82-182.6,182.6c0,1.9-1.5,3.5-3.4,3.6C3.6,351.2,3.6,351.2,3.5,351.2z"/>
<path class="st1" d="M190.2,474c-1.9,0-3.5-1.6-3.5-3.5s1.6-3.5,3.5-3.5c32.6,0,63.8-13.6,86.1-37.5c1.3-1.4,3.6-1.5,5-0.2
	c1.4,1.3,1.5,3.6,0.2,5l0,0C257.9,459.6,224.9,474,190.2,474z"/>
<path class="st1" d="M190.2,539.1c-1.9,0-3.5-1.6-3.5-3.5c0-1.9,1.6-3.5,3.5-3.5c70,0,132.8-39,163.8-101.7c0.9-1.8,3-2.5,4.8-1.6
	c1.8,0.9,2.5,3,1.6,4.8C328.2,498.6,263,539.1,190.2,539.1z"/>
<path class="st0" d="M619.2,319.6v1.8h-3.5v-1.8c0-15.2-15.7-27.1-34.7-27.1c-19,0-34.7,11.9-34.7,27.1c0,26.9,76.8,26.9,76.6,57.6
	c0,16.2-18.7,30.5-41.9,30.5c-23.7,0-41.9-14.1-41.9-30.5v-1.8h3.5v1.8c0,15,17.5,27.1,38.3,27.1c20.5,0,38.3-12.3,38.3-27.1
	c0-27.4-76.4-27.1-76.6-57.6c0-16.6,16.7-30.5,38.2-30.5S619.2,303.1,619.2,319.6z"/>
<path class="st0" d="M580.9,411.6c-25.2,0-45.7-15.4-45.7-34.4v-5.6h11.2v5.6c0,12.6,15.8,23.2,34.6,23.2
	c18.4,0,34.6-10.8,34.6-23.2c0-10.7-17.4-17.2-34.2-23.4c-20.8-7.8-42.3-15.8-42.4-34.1c0-19,18.9-34.5,42-34.5
	c23.2,0,42,15.4,42,34.4v5.6h-11.2v-5.6c0-12.8-13.8-23.2-30.9-23.2c-17,0-30.9,10.4-30.9,23.2c0,10.3,17.3,16.7,33.9,23
	c21.1,7.8,42.8,16,42.7,34.6C626.5,395.8,605.8,411.6,580.9,411.6z"/>
<path class="st0" d="M282.8,406v1.8h-3.5v-117c0-1,0.9-1.8,1.9-1.7c0.5,0,1,0.3,1.3,0.6l80.5,110.8l0.2-109.7V289h3.5v1.8L366.4,406
	c0,1-0.9,1.8-1.9,1.7c-0.5,0-1-0.3-1.3-0.6l-80.5-110.8V406z"/>
<path class="st0" d="M282.8,411.6h-3.5c-2.1,0-3.9-1.8-3.9-3.9l0,0V290.8c0.1-3.1,2.6-5.6,5.7-5.6c1.8,0,3.3,0.9,4.4,2.3l73.4,101.2
	l0.2-99.6c0-2.1,1.8-3.9,3.9-3.9l0,0h3.5c2.1,0,3.9,1.8,3.9,3.9l0,0L370.2,406c-0.1,3.1-2.6,5.6-5.8,5.6c-1.7,0-3.3-0.9-4.4-2.2
	l-73.4-101.2v99.6C286.7,409.9,285,411.6,282.8,411.6C282.9,411.6,282.8,411.6,282.8,411.6z M366.3,404.7L366.3,404.7z M279.3,292
	L279.3,292z"/>
<path class="st0" d="M420,406.5l-0.3,1.1h-3.1l0.8-2.5L457.7,290c0.2-0.7,1-1.1,1.6-0.9c0.4,0.1,0.7,0.4,0.9,0.9l40.2,115.1l0.8,2.5
	H498l-0.3-1.1l-39-111.5L420,406.5z"/>
<path class="st0" d="M501.2,411.7h-3.1c-1.9,0-3.5-1.2-4.1-3.1l-0.3-1.1l-34.9-100l-35.2,100.9c-0.5,1.9-2.1,3.1-4.1,3.1h-3.1
	c-2.3,0-4.1-1.9-4.1-4.1c0-0.4,0.1-0.9,0.2-1.3l0.8-2.5l40.2-115.2c1-2.8,4.1-4.4,7-3.4c1.6,0.5,2.9,1.9,3.4,3.4l41,117.6
	c0.7,2.2-0.4,4.6-2.6,5.3C502.1,411.7,501.7,411.7,501.2,411.7L501.2,411.7z M456.3,291.3L456.3,291.3z M461.6,291.3L461.6,291.3z"
	/>
<g>
	<g>
		<path class="st0" d="M689.5,342.6v-1h3.8v1v64.7v1h-3.8v-1V342.6z"/>
		<rect x="685.4" y="339.4" class="st0" width="12.1" height="71.2"/>
	</g>
</g>
<g>
	<g>
		<g>
			<g>
				<path class="st0" d="M730.2,371.2c0-20,14.8-36.1,32.8-36.1s32.8,16,32.8,36.1s-14.7,36.1-32.8,36.1
					C745,407.2,730.2,391.2,730.2,371.2z M732.3,371.2c0,18.8,13.8,33.9,30.6,33.9c16.9,0,30.6-15.2,30.6-33.9s-13.7-33.9-30.6-33.9
					C746.2,337.3,732.3,352.4,732.3,371.2z"/>
				<path class="st0" d="M762.9,409.4c-19.3,0-35-17.1-35-38.2s15.7-38.2,35-38.2c19.3,0,35,17.1,35,38.2S782.2,409.4,762.9,409.4z
					 M762.9,339.4c-15.7,0-28.4,14.3-28.4,31.8s12.7,31.8,28.4,31.8s28.4-14.3,28.4-31.8S778.6,339.4,762.9,339.4z"/>
			</g>
			<g>
				<path class="st0" d="M762.9,407.4c-18.2,0-33-16.3-33-36.2c0-20,14.8-36.2,33-36.2s33,16.3,33,36.2
					C795.9,391.2,781.2,407.4,762.9,407.4z M762.9,335.3c-18,0-32.5,16.1-32.5,35.9c0,19.7,14.6,35.9,32.5,35.9
					c18,0,32.5-16.1,32.5-35.9C795.5,351.4,780.9,335.3,762.9,335.3z M762.9,405.3c-17,0-30.8-15.3-30.8-34.1
					c0-18.9,13.8-34.1,30.8-34.1c17,0,30.8,15.3,30.8,34.1C793.8,390,779.9,405.3,762.9,405.3z M762.9,337.4
					c-16.7,0-30.4,15.2-30.4,33.8s13.7,33.8,30.4,33.8c16.7,0,30.4-15.2,30.4-33.8C793.3,352.6,779.7,337.4,762.9,337.4z"/>
				<path class="st0" d="M762.9,409.5c-19.4,0-35.2-17.2-35.2-38.4c0-21.2,15.8-38.4,35.2-38.4c19.4,0,35.2,17.2,35.2,38.4
					S782.3,409.5,762.9,409.5z M762.9,339.5c-15.5,0-28.2,14.2-28.2,31.6s12.6,31.6,28.2,31.6c15.5,0,28.2-14.2,28.2-31.6
					S778.5,339.5,762.9,339.5z"/>
			</g>
		</g>
		<g>
			<g>
				<path class="st0" d="M762.9,409.6c-19.4,0-35.2-17.3-35.2-38.4s15.8-38.4,35.2-38.4c19.4,0,35.2,17.2,35.2,38.4
					C798.2,392.3,782.3,409.6,762.9,409.6z M762.9,339.5c-15.5,0-28.2,14.2-28.2,31.6c0,17.5,12.6,31.6,28.2,31.6
					c15.5,0,28.1-14.2,28.1-31.6C791.1,353.7,778.5,339.5,762.9,339.5z"/>
				<path class="st0" d="M762.9,411.7c-20.6,0-37.4-18.2-37.4-40.5s16.7-40.5,37.4-40.5c20.6,0,37.4,18.2,37.4,40.5
					C800.4,393.5,783.6,411.7,762.9,411.7z M762.9,334.9c-18.2,0-33,16.3-33,36.3c0,20,14.8,36.3,33,36.3s33-16.3,33-36.3
					C796,351.2,781.2,334.9,762.9,334.9z M762.9,404.9c-16.7,0-30.4-15.2-30.4-33.8s13.7-33.8,30.4-33.8c16.7,0,30.3,15.2,30.3,33.8
					C793.3,389.8,779.7,404.9,762.9,404.9z M762.9,341.7c-14.3,0-26,13.2-26,29.4s11.6,29.4,26,29.4c14.3,0,25.9-13.2,25.9-29.4
					S777.3,341.7,762.9,341.7z"/>
			</g>
			<g>
				<path class="st0" d="M762.9,409.8c-19.5,0-35.4-17.4-35.4-38.6c0-21.3,15.9-38.6,35.4-38.6c19.5,0,35.3,17.4,35.3,38.6
					C798.4,392.4,782.5,409.8,762.9,409.8z M762.9,332.9c-19.3,0-35,17.1-35,38.3c0,21.1,15.7,38.3,35,38.3c19.3,0,35-17.1,35-38.3
					C797.9,350.1,782.2,332.9,762.9,332.9z M762.9,402.9c-15.6,0-28.4-14.3-28.4-31.8c0-17.5,12.7-31.8,28.4-31.8
					c15.6,0,28.4,14.3,28.4,31.8C791.3,388.7,778.6,402.9,762.9,402.9z M762.9,339.8c-15.4,0-27.9,14.1-27.9,31.4
					s12.5,31.4,27.9,31.4c15.4,0,27.9-14.1,27.9-31.4S778.4,339.8,762.9,339.8z"/>
				<path class="st0" d="M762.9,411.9c-20.7,0-37.6-18.2-37.6-40.7s16.8-40.7,37.6-40.7c20.7,0,37.6,18.2,37.6,40.7
					C800.6,393.7,783.7,411.9,762.9,411.9z M762.9,335.1c-18.1,0-32.8,16.2-32.8,36.1c0,19.9,14.7,36.1,32.8,36.1
					c18.1,0,32.8-16.2,32.8-36.1C795.7,351.3,781,335.1,762.9,335.1z M762.9,405.1c-16.8,0-30.6-15.2-30.6-33.9s13.8-33.9,30.6-33.9
					s30.6,15.2,30.6,33.9S779.9,405.1,762.9,405.1z M762.9,341.9c-14.2,0-25.7,13.1-25.7,29.3c0,16.1,11.5,29.3,25.7,29.3
					s25.7-13.1,25.7-29.3C788.8,355.1,777.1,341.9,762.9,341.9z"/>
			</g>
		</g>
	</g>
</g>
<circle class="st0" cx="656" cy="404.7" r="8.6"/>
<circle class="st0" cx="691.4" cy="323.3" r="8.4"/>
</svg>
