<?xml version="1.0" encoding="utf-8"?>
<!-- Generator: Adobe Illustrator 20.1.0, SVG Export Plug-In . SVG Version: 6.00 Build 0)  -->
<svg version="1.1" id="Layer_1" xmlns="http://www.w3.org/2000/svg" xmlns:xlink="http://www.w3.org/1999/xlink" x="0px" y="0px"
	 viewBox="0 0 800 800" style="enable-background:new 0 0 800 800;" xml:space="preserve">
<style type="text/css">
	.st0{fill:#FFFFFF;}
</style>
<path class="st0" d="M228.2,359.5v1.8h-3.5v-1.8c0-15.2-15.7-27-34.7-27s-34.7,11.9-34.7,27c0,26.9,76.7,26.9,76.6,57.6
	c0,16.2-18.7,30.5-41.8,30.5c-23.7,0-41.9-14.1-41.9-30.5v-1.8h3.5v1.8c0,15,17.4,27,38.4,27c20.4,0,38.4-12.2,38.4-27
	c0-27.4-76.4-27-76.6-57.6c0-16.6,16.7-30.5,38.2-30.5S228.2,343,228.2,359.5z"/>
<path class="st0" d="M190,451.5c-25.2,0-45.7-15.4-45.7-34.4v-5.6h11.2v5.6c0,12.6,15.8,23.2,34.5,23.2c18.4,0,34.5-10.8,34.5-23.2
	c0-10.6-17.4-17.1-34.2-23.4c-20.8-7.8-42.3-15.8-42.4-34.1c0-19,18.9-34.4,42.1-34.4s42,15.4,42,34.4v5.6h-11.2v-5.6
	c0-12.8-13.8-23.2-30.8-23.2s-30.8,10.4-30.8,23.2c0,10.3,17.2,16.7,33.9,23c21,7.9,42.8,16,42.7,34.6S214.8,451.5,190,451.5z"/>
<path class="st0" d="M68.6,391.1c-1.9,0-3.5-1.6-3.5-3.5C65.1,318.9,121,263,189.7,263c2,0,3.6,1.6,3.6,3.6s-1.6,3.6-3.6,3.6
	c-64.8,0-117.5,52.7-117.5,117.5C72.2,389.6,70.6,391.1,68.6,391.1C68.6,391.1,68.6,391.1,68.6,391.1z"/>
<path class="st0" d="M3.5,391.1c-1.9,0-3.5-1.6-3.5-3.5C0,283,85.1,197.9,189.7,197.9c2,0,3.6,1.6,3.6,3.6c0,2-1.6,3.6-3.6,3.6
	C89,205,7.1,287,7.1,387.6c0,1.9-1.5,3.5-3.5,3.6C3.6,391.1,3.6,391.1,3.5,391.1z"/>
<path class="st0" d="M190.1,513.9c-2,0-3.6-1.6-3.6-3.6s1.6-3.6,3.6-3.6c32.6,0,63.8-13.6,86.1-37.4c1.3-1.4,3.6-1.5,5-0.2
	c1.4,1.3,1.5,3.6,0.2,5l0,0C257.7,499.4,224.7,513.8,190.1,513.9z"/>
<path class="st0" d="M190.1,578.9c-2,0-3.6-1.6-3.6-3.6s1.6-3.6,3.6-3.6c70,0,132.7-38.9,163.7-101.6c0.9-1.8,3-2.5,4.8-1.6
	c1.8,0.9,2.5,3,1.6,4.8C328,538.4,262.8,578.9,190.1,578.9z"/>
<path class="st0" d="M618.8,359.5v1.8h-3.5v-1.8c0-15.2-15.7-27-34.7-27c-19,0-34.7,11.9-34.7,27c0,26.9,76.7,26.9,76.6,57.6
	c0,16.2-18.7,30.5-41.9,30.5c-23.7,0-41.8-14.1-41.8-30.5v-1.8h3.5v1.8c0,15,17.4,27,38.4,27c20.4,0,38.4-12.2,38.4-27
	c0-27.4-76.4-27-76.6-57.6c0-16.6,16.7-30.5,38.2-30.5S618.8,343,618.8,359.5z"/>
<path class="st0" d="M580.6,451.5c-25.2,0-45.7-15.4-45.7-34.4v-5.6h11.2v5.6c0,12.6,15.8,23.2,34.5,23.2
	c18.4,0,34.5-10.8,34.5-23.2c0-10.6-17.4-17.1-34.2-23.4c-20.8-7.8-42.3-15.8-42.4-34.1c0-19,18.9-34.4,42-34.4
	c23.2,0,42.1,15.4,42.1,34.4v5.6h-11.2v-5.6c0-12.8-13.8-23.2-30.8-23.2c-17,0-30.8,10.4-30.8,23.2c0,10.3,17.2,16.7,33.9,23
	c21,7.9,42.8,16,42.7,34.6C626.2,435.7,605.4,451.5,580.6,451.5z"/>
<path class="st0" d="M282.6,445.9v1.8h-3.5V330.8c0-1,0.8-1.7,1.8-1.7c0.5,0,1,0.3,1.3,0.7l80.4,110.7l0.2-109.7V329h3.5v1.8
	l-0.2,115.1c0,1-0.8,1.7-1.8,1.7c-0.5,0-1-0.3-1.3-0.7l-80.4-110.7V445.9z"/>
<path class="st0" d="M282.6,451.5h-3.5c-2.1,0-3.9-1.7-3.9-3.9c0,0,0,0,0,0V330.8c0.1-3.1,2.6-5.6,5.7-5.5c1.7,0,3.4,0.9,4.4,2.3
	l73.4,101.1L359,329c0-2.1,1.7-3.9,3.9-3.9c0,0,0,0,0,0h3.5c2.1,0,3.9,1.7,3.9,3.8c0,0,0,0,0,0L370,445.9c-0.1,3.1-2.7,5.6-5.8,5.5
	c-1.7,0-3.3-0.9-4.4-2.2l-73.3-101.1v99.5C286.5,449.7,284.8,451.5,282.6,451.5C282.7,451.5,282.7,451.5,282.6,451.5z M366.2,444.6
	L366.2,444.6z M279.2,332L279.2,332z"/>
<path class="st0" d="M419.8,446.4l-0.3,1h-3l0.8-2.4l40.2-115.1c0.2-0.7,0.9-1.1,1.6-0.9c0.4,0.1,0.7,0.5,0.9,0.9L500.1,445l0.8,2.4
	h-3l-0.3-1l-38.9-111.4L419.8,446.4z"/>
<path class="st0" d="M500.9,451.6h-3c-1.9,0-3.5-1.3-4-3.1l-0.3-1l-34.9-99.9l-35.2,100.9c-0.5,1.8-2.1,3.1-4,3.1h-3
	c-2.3,0-4.2-1.9-4.2-4.2c0-0.4,0.1-0.9,0.2-1.3l0.8-2.4l40.2-115.1c1-2.9,4.1-4.4,6.9-3.4c1.6,0.5,2.9,1.8,3.4,3.4l41,117.5
	c0.7,2.2-0.4,4.5-2.6,5.3C501.8,451.5,501.4,451.6,500.9,451.6L500.9,451.6z M456,331.3L456,331.3z M461.4,331.3L461.4,331.3z"/>
<g>
	<g>
		<path class="st0" d="M689.1,382.6v-1h3.8v1v64.7v1h-3.8v-1V382.6z"/>
		<rect x="684.9" y="379.3" class="st0" width="12.1" height="71.2"/>
	</g>
</g>
<g>
	<g>
		<g>
			<g>
				<path class="st0" d="M729.8,411.1c0-20,14.8-36,32.8-36s32.8,16,32.8,36s-14.7,36-32.8,36C744.6,447.1,729.8,431.1,729.8,411.1z
					 M731.9,411.1c0,18.8,13.7,33.9,30.6,33.9c16.9,0,30.6-15.2,30.6-33.9s-13.7-33.9-30.6-33.9
					C745.7,377.2,731.9,392.3,731.9,411.1z"/>
				<path class="st0" d="M762.5,449.2c-19.3,0-35-17.1-35-38.1c0-21.1,15.7-38.1,35-38.1c19.3,0,35,17.1,35,38.1
					C797.4,432.2,781.8,449.2,762.5,449.2z M762.5,379.3c-15.7,0-28.4,14.3-28.4,31.8s12.7,31.8,28.4,31.8
					c15.7,0,28.4-14.3,28.4-31.8S778.2,379.3,762.5,379.3z"/>
			</g>
			<g>
				<path class="st0" d="M762.5,447.3c-18.1,0-32.9-16.3-32.9-36.2c0-20,14.8-36.2,32.9-36.2s32.9,16.3,32.9,36.2
					C795.4,431.1,780.7,447.3,762.5,447.3z M762.5,375.2c-18,0-32.5,16.1-32.5,35.9c0,19.7,14.6,35.9,32.5,35.9
					c18,0,32.5-16.1,32.5-35.9C795.1,391.3,780.4,375.2,762.5,375.2z M762.5,445.2c-17,0-30.7-15.3-30.7-34.1
					c0-18.9,13.8-34.1,30.7-34.1c17,0,30.7,15.3,30.7,34.1C793.3,429.9,779.5,445.2,762.5,445.2z M762.5,377.4
					c-16.7,0-30.4,15.2-30.4,33.7s13.7,33.7,30.4,33.7c16.7,0,30.4-15.2,30.4-33.7C792.9,392.5,779.2,377.4,762.5,377.4z"/>
				<path class="st0" d="M762.5,449.4c-19.4,0-35.2-17.2-35.2-38.4c0-21.1,15.8-38.4,35.2-38.4c19.4,0,35.2,17.2,35.2,38.4
					S781.9,449.4,762.5,449.4z M762.5,379.5c-15.5,0-28.2,14.2-28.2,31.6c0,17.4,12.6,31.6,28.2,31.6c15.5,0,28.2-14.2,28.2-31.6
					C790.7,393.7,778.1,379.5,762.5,379.5z"/>
			</g>
		</g>
		<g>
			<g>
				<path class="st0" d="M762.5,449.5c-19.4,0-35.2-17.3-35.2-38.4s15.8-38.4,35.2-38.4c19.4,0,35.2,17.2,35.2,38.4
					C797.7,432.2,781.9,449.5,762.5,449.5z M762.5,379.5c-15.5,0-28.2,14.2-28.2,31.5c0,17.4,12.6,31.5,28.2,31.5
					c15.5,0,28.1-14.2,28.1-31.5C790.7,393.7,778.1,379.5,762.5,379.5z"/>
				<path class="st0" d="M762.5,451.6c-20.6,0-37.4-18.1-37.4-40.5c0-22.4,16.7-40.5,37.4-40.5c20.6,0,37.4,18.1,37.4,40.5
					C799.9,433.4,783.1,451.6,762.5,451.6z M762.5,374.8c-18.1,0-32.9,16.3-32.9,36.3c0,20,14.8,36.3,32.9,36.3s32.9-16.3,32.9-36.3
					C795.5,391.1,780.7,374.8,762.5,374.8z M762.5,444.7c-16.7,0-30.4-15.2-30.4-33.7c0-18.6,13.7-33.7,30.4-33.7
					c16.7,0,30.3,15.2,30.3,33.7C792.9,429.7,779.2,444.7,762.5,444.7z M762.5,381.7c-14.3,0-26,13.2-26,29.4s11.6,29.4,26,29.4
					c14.3,0,25.9-13.2,25.9-29.4S776.8,381.7,762.5,381.7z"/>
			</g>
			<g>
				<path class="st0" d="M762.5,449.7c-19.5,0-35.4-17.4-35.4-38.6c0-21.3,15.9-38.6,35.4-38.6c19.5,0,35.3,17.4,35.3,38.6
					C797.9,432.3,782,449.7,762.5,449.7z M762.5,372.9c-19.3,0-35,17.1-35,38.2c0,21.1,15.7,38.2,35,38.2c19.3,0,35-17.1,35-38.2
					C797.4,390,781.8,372.9,762.5,372.9z M762.5,442.8c-15.6,0-28.4-14.3-28.4-31.8s12.7-31.8,28.4-31.8c15.6,0,28.4,14.3,28.4,31.8
					C790.8,428.6,778.2,442.8,762.5,442.8z M762.5,379.7c-15.4,0-27.9,14.1-27.9,31.4c0,17.3,12.5,31.4,27.9,31.4
					c15.4,0,27.9-14.1,27.9-31.4C790.4,393.8,777.9,379.7,762.5,379.7z"/>
				<path class="st0" d="M762.5,451.8c-20.7,0-37.6-18.2-37.6-40.7s16.8-40.7,37.6-40.7c20.7,0,37.5,18.2,37.5,40.7
					C800.1,433.6,783.3,451.8,762.5,451.8z M762.5,375.1c-18.1,0-32.8,16.2-32.8,36c0,19.9,14.7,36,32.8,36
					c18.1,0,32.8-16.2,32.8-36C795.2,391.2,780.5,375.1,762.5,375.1z M762.5,445c-16.8,0-30.6-15.2-30.6-33.9s13.7-33.9,30.6-33.9
					s30.6,15.2,30.6,33.9S779.4,445,762.5,445z M762.5,381.8c-14.2,0-25.7,13.1-25.7,29.2c0,16.1,11.5,29.2,25.7,29.2
					s25.7-13.1,25.7-29.2C788.3,395,776.7,381.8,762.5,381.8z"/>
			</g>
		</g>
	</g>
</g>
<circle class="st0" cx="655.6" cy="444.6" r="8.6"/>
<circle class="st0" cx="690.9" cy="363.3" r="8.4"/>
</svg>
