<?xml version="1.0" encoding="utf-8"?>
<!-- Generator: Adobe Illustrator 20.1.0, SVG Export Plug-In . SVG Version: 6.00 Build 0)  -->
<svg version="1.1" id="Layer_1" xmlns="http://www.w3.org/2000/svg" xmlns:xlink="http://www.w3.org/1999/xlink" x="0px" y="0px"
	 viewBox="0 0 128 128" style="enable-background:new 0 0 128 128;" xml:space="preserve">
<style type="text/css">
	.st0{fill:#3F95D1;}
	.st1{fill:#0B67A3;}
</style>
<g>
	<path class="st0" d="M11.6,122.4c0-3.1-2.5-5.6-5.6-5.6c-3.1,0-5.6,2.5-5.6,5.6c0,3.1,2.5,5.6,5.6,5.6
		C9.1,128,11.6,125.5,11.6,122.4"/>
	<path class="st0" d="M22,115.1L35,102c5.8,3.9,12.7,6.3,20.3,6.3c19.9,0,36-16.1,36-36c0-19.9-16.1-36-36-36c-19.9,0-36,16.1-36,36
		c0,8,2.6,15.4,7,21.3l-12.9,12.9c-2.4,2.4-2.4,6.2,0,8.6C15.8,117.4,19.6,117.4,22,115.1 M55.3,48.3c13.2,0,23.9,10.7,23.9,23.9
		c0,13.2-10.7,23.9-23.9,23.9c-6.4,0-12.1-2.5-16.4-6.6c0,0,0,0,0,0c0,0,0,0-0.1,0c-4.6-4.4-7.5-10.5-7.5-17.3
		C31.4,59,42.1,48.3,55.3,48.3"/>
	<path class="st1" d="M51.8,20.6c0-2,1.6-3.5,3.5-3.5c30.4,0,55.2,24.8,55.2,55.2c0,2-1.6,3.5-3.5,3.5s-3.5-1.6-3.5-3.5
		c0-26.5-21.6-48.1-48.1-48.1C53.3,24.1,51.8,22.5,51.8,20.6z"/>
	<path class="st1" d="M51.8,3.5c0-2,1.6-3.5,3.5-3.5c39.8,0,72.2,32.4,72.2,72.2c0,2-1.6,3.5-3.5,3.5s-3.5-1.6-3.5-3.5
		c0-35.9-29.2-65.2-65.2-65.2C53.3,7.1,51.8,5.5,51.8,3.5z"/>
</g>
</svg>
