<?xml version="1.0" encoding="utf-8"?>
<!-- Generator: Adobe Illustrator 20.1.0, SVG Export Plug-In . SVG Version: 6.00 Build 0)  -->
<svg version="1.1" id="Layer_1" xmlns="http://www.w3.org/2000/svg" xmlns:xlink="http://www.w3.org/1999/xlink" x="0px" y="0px"
	 viewBox="0 0 128 128" style="enable-background:new 0 0 128 128;" xml:space="preserve">
<style type="text/css">
	.st0{fill:#3F95D1;}
	.st1{fill:#75B4D8;}
</style>
<g>
	<g>
		<circle class="st0" cx="12.2" cy="64.3" r="12.2"/>
		<path class="st0" d="M14.6,64.3c0-0.2,0-0.5,0-0.7c0-26.7,21.6-48.3,48.3-48.3c0.5,0,0.9,0,1.4,0.1l-3.1,3c-1,1-0.9,2.7,0.1,3.6
			c1,1,2.7,0.9,3.6-0.1l7-7.5c0.5-0.5,0.7-1.2,0.7-1.8c0-0.7-0.3-1.3-0.8-1.8l-7.5-7c-1-1-2.7-0.9-3.6,0.1c-1,1-0.9,2.7,0.1,3.6
			l3.2,3c-0.4,0-0.8,0-1.2,0c-29.4,0-53.2,23.8-53.2,53.2c0,0.2,0,0.5,0,0.7H14.6z"/>
	</g>
	<path class="st1" d="M39.2,66.9c-1.4,0-2.6-1.2-2.6-2.6c0-15.2,12.4-27.5,27.5-27.5c1.4,0,2.6,1.2,2.6,2.6s-1.2,2.6-2.6,2.6
		c-12.3,0-22.4,10-22.4,22.4C41.8,65.7,40.6,66.9,39.2,66.9z"/>
	<g>
		<circle class="st0" cx="115.8" cy="64" r="12.2"/>
		<path class="st0" d="M113.4,64c0,0.2,0,0.5,0,0.7c0,26.7-21.6,48.3-48.3,48.3c-0.5,0-0.9,0-1.4-0.1l3.1-3c1-1,0.9-2.7-0.1-3.6
			c-1-1-2.7-0.9-3.6,0.1l-7,7.5c-0.5,0.5-0.7,1.2-0.7,1.8c0,0.7,0.3,1.3,0.8,1.8l7.5,7c1,1,2.7,0.9,3.6-0.1c1-1,0.9-2.7-0.1-3.6
			l-3.2-3c0.4,0,0.8,0,1.2,0c29.4,0,53.2-23.8,53.2-53.2c0-0.2,0-0.5,0-0.7H113.4z"/>
	</g>
	<path class="st1" d="M64,91.8c-1.4,0-2.6-1.2-2.6-2.6c0-1.4,1.2-2.6,2.6-2.6c12.3,0,22.4-10,22.4-22.4c0-1.4,1.2-2.6,2.6-2.6
		c1.4,0,2.6,1.2,2.6,2.6C91.6,79.5,79.2,91.8,64,91.8z"/>
</g>
</svg>
