<?xml version="1.0" encoding="utf-8"?>
<!-- Generator: Adobe Illustrator 20.1.0, SVG Export Plug-In . SVG Version: 6.00 Build 0)  -->
<svg version="1.1" id="Layer_1" xmlns="http://www.w3.org/2000/svg" xmlns:xlink="http://www.w3.org/1999/xlink" x="0px" y="0px"
	 viewBox="0 0 128 128" style="enable-background:new 0 0 128 128;" xml:space="preserve">
<style type="text/css">
	.st0{fill:#3F95D1;}
	.st1{fill:#0B67A3;}
</style>
<g>
	<circle class="st0" cx="20.9" cy="19.9" r="19.9"/>
	<circle class="st0" cx="65.6" cy="116.1" r="11.9"/>
	
		<ellipse transform="matrix(0.7071 -0.7071 0.7071 0.7071 -40.9588 112.741)" class="st0" cx="115.6" cy="105.8" rx="11.9" ry="11.9"/>
	<circle class="st0" cx="20.9" cy="108" r="11.9"/>
	<path class="st1" d="M34.2,97.4c-0.9,0-1.8-0.3-2.5-1c-1.4-1.4-1.4-3.6,0-5c12.1-12.1,12.1-31.8,0-43.9c-1.4-1.4-1.4-3.6,0-5
		c1.4-1.4,3.6-1.4,5,0c14.9,14.9,14.9,39.1,0,53.9C36,97.1,35.1,97.4,34.2,97.4z"/>
	<path class="st1" d="M115.6,90.7c-2,0-3.5-1.6-3.5-3.5c0-35.1-28.6-63.6-63.6-63.6c-2,0-3.5-1.6-3.5-3.5s1.6-3.5,3.5-3.5
		c39,0,70.7,31.7,70.7,70.7C119.1,89.1,117.6,90.7,115.6,90.7z"/>
	<path class="st1" d="M74.3,103.1c-0.4,0-0.8-0.1-1.2-0.2c-1.8-0.7-2.8-2.7-2.1-4.5c9.3-24.9-3.4-52.6-28.3-61.9
		c-1.8-0.7-2.8-2.7-2.1-4.5c0.7-1.8,2.7-2.8,4.5-2.1c28.5,10.6,43.1,42.5,32.5,71C77.1,102.2,75.7,103.1,74.3,103.1z"/>
</g>
</svg>
