<?xml version="1.0" encoding="utf-8"?>
<!-- Generator: Adobe Illustrator 20.1.0, SVG Export Plug-In . SVG Version: 6.00 Build 0)  -->
<svg version="1.1" id="Layer_1" xmlns="http://www.w3.org/2000/svg" xmlns:xlink="http://www.w3.org/1999/xlink" x="0px" y="0px"
	 viewBox="0 0 128 128" style="enable-background:new 0 0 128 128;" xml:space="preserve">
<style type="text/css">
	.st0{fill:#0B67A3;}
	.st1{fill:#3F95D1;}
	.st2{fill:#75B4D8;}
</style>
<g>
	<circle class="st0" cx="64.1" cy="64.1" r="25"/>
	<path class="st1" d="M64.1,31.6c17.1,0,31,13.1,32.4,29.8H128C126.6,27.3,98.6,0,64.1,0C28.7,0,0,28.7,0,64.1
		c0,34.5,27.3,62.5,61.4,63.9V96.4c-16.7-1.3-29.8-15.3-29.8-32.4C31.6,46.1,46.1,31.6,64.1,31.6z"/>
	<g>
		<path class="st2" d="M107.6,66.7H96.5c-1.3,15.8-13.9,28.4-29.7,29.7v11.1C88.7,106.2,106.2,88.6,107.6,66.7z"/>
		<path class="st2" d="M118.1,66.7c-1.4,27.8-23.6,50-51.4,51.4v9.9c33.3-1.4,59.9-28,61.3-61.3H118.1z"/>
	</g>
</g>
</svg>
