<svg id="Layer_1" data-name="Layer 1" xmlns="http://www.w3.org/2000/svg" viewBox="0 0 32 32"><defs><style>.cls-1{fill:#414042;}.cls-2{fill:#bcbec0;}</style></defs><title>SNASN_logo_GrayLight_small</title><path class="cls-1" d="M11.66,14.53v.09h-.18v-.09a1.61,1.61,0,0,0-1.77-1.38,1.61,1.61,0,0,0-1.77,1.38c0,1.37,3.92,1.37,3.91,2.94,0,.83-1,1.56-2.14,1.56s-2.14-.72-2.14-1.56v-.09h.18v.09c0,.77.89,1.38,2,1.38s2-.62,2-1.38c0-1.4-3.9-1.38-3.91-2.94A1.79,1.79,0,0,1,9.72,13,1.79,1.79,0,0,1,11.66,14.53Z"/><path class="cls-1" d="M9.72,19.22c-1.29,0-2.33-.79-2.33-1.75v-.29H8v.29c0,.64.81,1.18,1.76,1.18s1.76-.55,1.76-1.18-.89-.87-1.74-1.19c-1.06-.4-2.16-.81-2.16-1.74a2,2,0,0,1,2.15-1.76,2,2,0,0,1,2.15,1.75v.29h-.57v-.29c0-.65-.71-1.18-1.57-1.18s-1.57.53-1.57,1.18.88.85,1.73,1.17c1.07.4,2.18.82,2.18,1.76S11,19.22,9.72,19.22Z"/><path class="cls-2" d="M3.52,16.14A.18.18,0,0,1,3.34,16,6.37,6.37,0,0,1,9.7,9.6a.18.18,0,0,1,0,.36,6,6,0,0,0-6,6A.18.18,0,0,1,3.52,16.14Z"/><path class="cls-2" d="M.2,16.14A.18.18,0,0,1,0,16,9.69,9.69,0,0,1,9.7,6.28a.18.18,0,0,1,0,.36A9.33,9.33,0,0,0,.38,16,.18.18,0,0,1,.2,16.14Z"/><path class="cls-2" d="M9.72,22.4a.18.18,0,1,1,0-.36,6,6,0,0,0,4.39-1.91.18.18,0,1,1,.27.25A6.38,6.38,0,0,1,9.72,22.4Z"/><path class="cls-2" d="M9.72,25.72a.18.18,0,1,1,0-.36,9.26,9.26,0,0,0,8.35-5.19.18.18,0,1,1,.33.16A9.62,9.62,0,0,1,9.72,25.72Z"/><path class="cls-1" d="M31.6,14.53v.09h-.18v-.09a1.61,1.61,0,0,0-1.77-1.38,1.61,1.61,0,0,0-1.77,1.38c0,1.37,3.92,1.37,3.91,2.94,0,.83-1,1.56-2.14,1.56s-2.14-.72-2.14-1.56v-.09h.18v.09c0,.77.89,1.38,2,1.38s2-.62,2-1.38c0-1.4-3.9-1.38-3.91-2.94A1.79,1.79,0,0,1,29.65,13,1.79,1.79,0,0,1,31.6,14.53Z"/><path class="cls-1" d="M29.65,19.22c-1.29,0-2.33-.79-2.33-1.75v-.29h.57v.29c0,.64.81,1.18,1.76,1.18s1.76-.55,1.76-1.18-.89-.87-1.74-1.19c-1.06-.4-2.16-.81-2.16-1.74a2,2,0,0,1,2.15-1.76,2,2,0,0,1,2.15,1.75v.29h-.57v-.29c0-.65-.71-1.18-1.57-1.18s-1.57.53-1.57,1.18.88.85,1.73,1.17c1.07.4,2.18.82,2.18,1.76S30.91,19.22,29.65,19.22Z"/><path class="cls-1" d="M14.44,18.93V19h-.18v-6a.09.09,0,0,1,.16-.05l4.1,5.65V13h.18v6a.09.09,0,0,1-.16.05l-4.1-5.65Z"/><path class="cls-1" d="M14.44,19.22h-.18a.2.2,0,0,1-.2-.2v-6a.29.29,0,0,1,.52-.17l3.75,5.16V13a.2.2,0,0,1,.2-.2h.18a.2.2,0,0,1,.2.2v6a.29.29,0,0,1-.52.17l-3.75-5.16V19A.2.2,0,0,1,14.44,19.22Zm4.26-.35h0Zm-4.44-5.75h0Z"/><path class="cls-1" d="M21.44,19V19h-.16l0-.12,2-5.87a.07.07,0,0,1,.13,0l2,5.87,0,.12h-.16V19l-2-5.69Z"/><path class="cls-1" d="M25.58,19.23h-.16a.21.21,0,0,1-.21-.16V19l-1.78-5.1-1.8,5.15a.21.21,0,0,1-.21.16h-.16a.21.21,0,0,1-.2-.28l0-.12,2.05-5.88a.28.28,0,0,1,.53,0l2.09,6a.21.21,0,0,1-.2.28Zm-2.29-6.14h0Zm.27,0h0Z"/></svg>