<?xml version="1.0" encoding="utf-8"?>
<!-- Generator: Adobe Illustrator 20.1.0, SVG Export Plug-In . SVG Version: 6.00 Build 0)  -->
<svg version="1.1" id="Layer_1" xmlns="http://www.w3.org/2000/svg" xmlns:xlink="http://www.w3.org/1999/xlink" x="0px" y="0px"
	 viewBox="0 0 32 32" style="enable-background:new 0 0 32 32;" xml:space="preserve">
<style type="text/css">
	.st0{fill:#FF4401;}
	.st1{fill:#95D0E5;}
</style>
<title>SNASN_logo_orangeBlueLight_small</title>
<path class="st0" d="M11.7,14.5L11.7,14.5l-0.2,0.1v-0.1c-0.1-0.9-0.9-1.5-1.8-1.4c-0.9-0.1-1.7,0.5-1.8,1.4c0,1.4,3.9,1.4,3.9,2.9
	c0,0.8-1,1.6-2.1,1.6s-2.1-0.7-2.1-1.6v-0.1h0.2v0.1c0,0.8,0.9,1.4,2,1.4s2-0.6,2-1.4c0-1.4-3.9-1.4-3.9-2.9c0.1-0.9,1-1.6,1.9-1.5
	C10.7,12.9,11.5,13.6,11.7,14.5z"/>
<path class="st0" d="M9.7,19.2c-1.3,0-2.3-0.8-2.3-1.8v-0.3H8v0.3c0,0.6,0.8,1.2,1.8,1.2s1.8-0.5,1.8-1.2s-0.9-0.9-1.7-1.2
	c-1.1-0.4-2.2-0.8-2.2-1.7c0.1-1.1,1.1-1.8,2.1-1.8c1.1-0.1,2,0.7,2.1,1.8v0.3h-0.6v-0.3c0-0.6-0.7-1.2-1.6-1.2s-1.6,0.5-1.6,1.2
	s0.9,0.9,1.7,1.2c1.1,0.4,2.2,0.8,2.2,1.8S11,19.2,9.7,19.2z"/>
<path class="st1" d="M3.5,16.1c-0.1,0-0.2-0.1-0.2-0.1c0-3.5,2.8-6.4,6.3-6.4c0,0,0,0,0,0c0.1,0,0.2,0.1,0.2,0.2
	c0,0.1-0.1,0.2-0.2,0.2c-3.3,0-6,2.7-6,6C3.7,16.1,3.6,16.1,3.5,16.1z"/>
<path class="st1" d="M0.2,16.1c-0.1,0-0.2,0-0.2-0.1c0-5.4,4.3-9.7,9.7-9.7c0,0,0,0,0,0c0.1,0,0.2,0.1,0.2,0.2
	c0,0.1-0.1,0.2-0.2,0.2c-5.2,0-9.3,4.2-9.3,9.3c0,0,0,0,0,0C0.4,16.1,0.3,16.1,0.2,16.1z"/>
<path class="st1" d="M9.7,22.4c-0.1,0-0.2-0.1-0.2-0.2S9.6,22,9.7,22l0,0c1.7,0,3.3-0.7,4.4-1.9c0.1-0.1,0.2-0.1,0.3,0
	s0.1,0.2,0,0.3C13.2,21.7,11.5,22.4,9.7,22.4z"/>
<path class="st1" d="M9.7,25.7c-0.1,0-0.2-0.1-0.2-0.2s0.1-0.2,0.2-0.2l0,0c3.5,0,6.8-2,8.3-5.2c0-0.1,0.2-0.1,0.2-0.1
	c0.1,0,0.1,0.2,0.1,0.2C16.8,23.6,13.4,25.7,9.7,25.7z"/>
<path class="st0" d="M31.6,14.5L31.6,14.5l-0.2,0.1v-0.1c-0.1-0.9-0.9-1.5-1.8-1.4c-0.9-0.1-1.7,0.5-1.8,1.4c0,1.4,3.9,1.4,3.9,2.9
	c0,0.8-1,1.6-2.1,1.6s-2.1-0.7-2.1-1.6v-0.1h0.2v0.1c0,0.8,0.9,1.4,2,1.4s2-0.6,2-1.4c0-1.4-3.9-1.4-3.9-2.9
	c0.1-0.9,0.9-1.6,1.9-1.5C30.6,12.9,31.5,13.6,31.6,14.5z"/>
<path class="st0" d="M29.6,19.2c-1.3,0-2.3-0.8-2.3-1.8v-0.3h0.6v0.3c0,0.6,0.8,1.2,1.8,1.2s1.8-0.5,1.8-1.2s-0.9-0.9-1.7-1.2
	c-1.1-0.4-2.2-0.8-2.2-1.7c0.1-1.1,1.1-1.8,2.1-1.8c1.1-0.1,2,0.7,2.1,1.8v0.3h-0.6v-0.3c0-0.6-0.7-1.2-1.6-1.2s-1.6,0.5-1.6,1.2
	s0.9,0.9,1.7,1.2c1.1,0.4,2.2,0.8,2.2,1.8S30.9,19.2,29.6,19.2z"/>
<path class="st0" d="M14.4,18.9L14.4,18.9L14.3,19v-6c0,0,0-0.1,0.1-0.1c0,0,0,0,0.1,0l4.1,5.7V13h0.2v6c0,0,0,0.1-0.1,0.1
	c0,0,0,0-0.1,0l-4.1-5.6L14.4,18.9z"/>
<path class="st0" d="M14.4,19.2h-0.2c-0.1,0-0.2-0.1-0.2-0.2l0,0v-6c0-0.2,0.1-0.3,0.3-0.3c0.1,0,0.2,0,0.2,0.1l3.8,5.2v-5
	c0-0.1,0.1-0.2,0.2-0.2l0,0h0.2c0.1,0,0.2,0.1,0.2,0.2c0,0,0,0,0,0v6c0,0.2-0.1,0.3-0.3,0.3c-0.1,0-0.2,0-0.2-0.1L14.6,14v5
	C14.7,19.1,14.6,19.2,14.4,19.2C14.5,19.2,14.4,19.2,14.4,19.2z M18.7,18.9L18.7,18.9z M14.3,13.1L14.3,13.1z"/>
<path class="st0" d="M21.4,19L21.4,19h-0.2v-0.1l2-5.9c0,0,0.1-0.1,0.1,0c0,0,0,0,0,0l2,5.9V19h-0.2l0,0l-2-5.7L21.4,19z"/>
<path class="st0" d="M25.6,19.2h-0.2c-0.1,0-0.2-0.1-0.2-0.2V19l-1.8-5.1L21.6,19c0,0.1-0.1,0.2-0.2,0.2h-0.2
	c-0.1,0-0.2-0.1-0.2-0.2c0,0,0,0,0-0.1v-0.1l2-5.9c0-0.1,0.2-0.2,0.4-0.2c0.1,0,0.1,0.1,0.2,0.2l2.1,6C25.8,19,25.7,19.2,25.6,19.2
	C25.6,19.2,25.6,19.2,25.6,19.2L25.6,19.2z M23.3,13.1L23.3,13.1z M23.6,13.1L23.6,13.1z"/>
</svg>
