<svg id="Layer_1" data-name="Layer 1" xmlns="http://www.w3.org/2000/svg" viewBox="0 0 128 128"><defs><style>.cls-1{fill:#444;}</style></defs><title>Database_API</title><path class="cls-1" d="M49.76,114.48a29.38,29.38,0,0,0,4.89-1.08l13,8.73L76.64,115,71,100.33a29.51,29.51,0,0,0,2.15-4.44l15-4.78V79.67l-15-4.79a29.39,29.39,0,0,0-2.1-4.36l5.66-14.8L67.8,48.59,54.67,57.37a29.16,29.16,0,0,0-4.68-1L41.92,42.63,30.78,45.18,29.45,60.91a29.64,29.64,0,0,0-3.76,3L10,61.69,5,72,16.47,82.8c-.07.85-.13,1.71-.13,2.58s.06,1.54.11,2.31L5,98.55l5,10.3,15.53-2.2a29.68,29.68,0,0,0,3.88,3.15l1.31,15.65L41.8,128ZM26.14,85.39A19.6,19.6,0,1,1,45.74,105a19.6,19.6,0,0,1-19.6-19.6"/><path class="cls-1" d="M99.63,72.23H91.81a41,41,0,0,0-41-41V23.41A48.88,48.88,0,0,1,99.63,72.23Z"/><path class="cls-1" d="M123,72.23h-7.82a64.47,64.47,0,0,0-64.4-64.4V0A72.3,72.3,0,0,1,123,72.23Z"/><path class="cls-1" d="M39.18,79.1H36.69L32.44,91.61H35L36.2,88h3.4l1.23,3.63h2.61L39.29,79.42Zm-1.29,3.57.16.49L39,85.85H36.83l.92-2.71Z"/><path class="cls-1" d="M48,79a17.78,17.78,0,0,0-2.94.23l-.4.07v12.3h2.46V87.06c.25,0,.49,0,.72,0a5.23,5.23,0,0,0,3.88-1.41,3.87,3.87,0,0,0,1-2.8,3.58,3.58,0,0,0-1.17-2.77A5.19,5.19,0,0,0,48,79Zm2.28,3.93c0,1.64-1.31,2-2.41,2a6.49,6.49,0,0,1-.75,0V81.2a8.25,8.25,0,0,1,.92,0C49,81.16,50.24,81.46,50.24,82.94Z"/><rect class="cls-1" x="54.33" y="79.1" width="2.46" height="12.51"/></svg>