<?xml version="1.0" encoding="utf-8"?>
<!-- Generator: Adobe Illustrator 20.1.0, SVG Export Plug-In . SVG Version: 6.00 Build 0)  -->
<svg version="1.1" id="Layer_1" xmlns="http://www.w3.org/2000/svg" xmlns:xlink="http://www.w3.org/1999/xlink" x="0px" y="0px"
	 viewBox="0 0 128 128" style="enable-background:new 0 0 128 128;" xml:space="preserve">
<style type="text/css">
	.st0{fill:#444444;}
</style>
<g>
	<g>
		<path class="st0" d="M102.7,29c0-1.5-1.3-2.8-2.8-2.8c-15.1,0-29.2,4.2-41.3,11.5C40.2,38,25.3,47.4,25.3,59
			c0,0.2,0.2,0.3,0.3,0.3c0.2,0,0.3-0.2,0.3-0.3c0-2.8,6.2-5.2,13.7-5.4C31.5,63,25.4,74.4,22.3,86.9c10.5,0.9,18.9,9.3,19.8,19.8
			c12.5-3.1,23.8-9.2,33.2-17.4c-0.1,7.5-2.5,13.7-5.4,13.7c-0.2,0-0.3,0.2-0.3,0.3c0,0.2,0.2,0.3,0.3,0.3c11.6,0,21-14.9,21.3-33.4
			C98.5,58.2,102.7,44.1,102.7,29z M58,57.2c0-7.2,5.8-13,13-13c7.2,0,13,5.8,13,13s-5.8,13-13,13C63.8,70.1,58,64.3,58,57.2z"/>
		<path class="st0" d="M35.5,103.6c0-0.1,0-0.1,0-0.2c0-0.1-0.1-0.1-0.1-0.1c0,0,0-0.1-0.1-0.1l-3.3-1.5c0,0,0,0-0.1,0
			c0,0,0,0-0.1,0c0,0-0.1,0-0.1,0c-0.1,0-0.1,0-0.2,0c-0.1,0-0.1,0.1-0.2,0.1c0,0-0.1,0-0.1,0.1c0,0,0,0,0,0.1c0,0,0,0,0,0.1
			c-1.4,8.1-9.5,13.6-18.3,12.3c-0.6-4.2,0.3-8.4,2.8-11.8c2.4-3.3,5.8-5.5,9.8-6.1c0,0,0,0,0,0c0,0,0.1,0,0.1,0
			c0,0,0.1-0.1,0.1-0.1c0.1,0,0.1-0.1,0.1-0.1c0-0.1,0-0.1,0-0.2c0,0,0-0.1,0-0.1c0,0,0,0,0-0.1c0,0,0,0,0-0.1l-1.5-3.2
			c0,0-0.1,0-0.1-0.1c0-0.1-0.1-0.1-0.1-0.1c-0.1,0-0.1,0-0.2,0c0,0-0.1,0-0.1,0c-7.4,1.2-13.8,5.3-18.2,11.4
			c-4.6,6.5-6.4,14.5-5.1,22.5c0,0,0,0.1,0.1,0.1c0,0,0,0.1,0.1,0.1c0.1,0.1,0.1,0.1,0.2,0.1c0,0,0.1,0,0.1,0.1
			c1.8,0.3,3.5,0.4,5.3,0.4c14.4,0,27-9.6,29.3-23.3C35.5,103.7,35.5,103.6,35.5,103.6z"/>
	</g>
	<path class="st0" d="M113.8,31.8c-1.1,0-2-0.9-2-2c0-6.9-5.6-12.6-12.6-12.6c-1.1,0-2-0.9-2-2s0.9-2,2-2c9.2,0,16.7,7.5,16.7,16.7
		C115.9,30.9,115,31.8,113.8,31.8z"/>
	<path class="st0" d="M125.9,31.8c-1.1,0-2-0.9-2-2c0-13.6-11-24.6-24.6-24.6c-1.1,0-2-0.9-2-2s0.9-2,2-2
		c15.8,0,28.7,12.9,28.7,28.7C127.9,30.9,127,31.8,125.9,31.8z"/>
</g>
</svg>
