<?xml version="1.0" encoding="utf-8"?>
<!-- Generator: Adobe Illustrator 20.1.0, SVG Export Plug-In . SVG Version: 6.00 Build 0)  -->
<svg version="1.1" id="Layer_1" xmlns="http://www.w3.org/2000/svg" xmlns:xlink="http://www.w3.org/1999/xlink" x="0px" y="0px"
	 viewBox="0 0 128 128" style="enable-background:new 0 0 128 128;" xml:space="preserve">
<style type="text/css">
	.st0{fill:#444444;}
</style>
<g>
	<circle class="st0" cx="20.7" cy="19.9" r="19.9"/>
	<circle class="st0" cx="65.4" cy="116.1" r="11.9"/>
	
		<ellipse transform="matrix(0.7071 -0.7071 0.7071 0.7071 -41.0347 112.5579)" class="st0" cx="115.4" cy="105.8" rx="11.9" ry="11.9"/>
	<circle class="st0" cx="20.7" cy="108" r="11.9"/>
	<path class="st0" d="M33.9,97.4c-0.9,0-1.8-0.3-2.5-1c-1.4-1.4-1.4-3.6,0-5c12.1-12.1,12.1-31.8,0-43.9c-1.4-1.4-1.4-3.6,0-5
		c1.4-1.4,3.6-1.4,5,0c14.9,14.9,14.9,39.1,0,53.9C35.7,97.1,34.8,97.4,33.9,97.4z"/>
	<path class="st0" d="M115.4,90.7c-2,0-3.5-1.6-3.5-3.5c0-35.1-28.6-63.6-63.6-63.6c-2,0-3.5-1.6-3.5-3.5s1.6-3.5,3.5-3.5
		c39,0,70.7,31.7,70.7,70.7C118.9,89.1,117.3,90.7,115.4,90.7z"/>
	<path class="st0" d="M74,103.1c-0.4,0-0.8-0.1-1.2-0.2c-1.8-0.7-2.8-2.7-2.1-4.5c4.5-12.1,4-25.1-1.3-36.8s-14.9-20.6-27-25.1
		c-1.8-0.7-2.8-2.7-2.1-4.5c0.7-1.8,2.7-2.8,4.5-2.1c13.8,5.1,24.8,15.4,31,28.8c6.1,13.4,6.7,28.4,1.5,42.2
		C76.8,102.2,75.4,103.1,74,103.1z"/>
</g>
</svg>
